<?xml version="1.0" encoding="utf-8"?>
<!-- Generator: Adobe Illustrator 24.0.1, SVG Export Plug-In . SVG Version: 6.00 Build 0)  -->
<svg version="1.1" id="Ebene_1" xmlns="http://www.w3.org/2000/svg" xmlns:xlink="http://www.w3.org/1999/xlink" x="0px" y="0px"
	 viewBox="0 0 600 120" style="enable-background:new 0 0 600 120;" xml:space="preserve">
<style type="text/css">
	.st0{fill:#889BC6;}
	.st1{fill:#B8C3DD;}
	.st2{fill:#4260A4;}
	.st3{fill:#1B3F91;}
	.st4{fill:#FFFFFF;}
</style>
<g id="Ebene_1_1_">
	<g>
		<path class="st0" d="M519.8,44.7c-0.1-0.1-0.1-0.1-0.1-0.2c0-0.1,0-0.3,0-0.4c0-0.5-0.1-1-0.2-1.5c0-0.1,0-0.2,0-0.3
			c0.3-0.6,0.6-1.1,0.9-1.7c0,0,0-0.1,0.1-0.1c0-0.2,0.1-0.3,0.2-0.4c0.6-0.4,1.1-0.9,1.7-1.3c0.9-0.7,1.8-1.3,2.7-1.9
			c0.3-0.2,0.7-0.4,1-0.6c0.1-0.1,0.2-0.1,0.3-0.3c0.1-0.1,0.1-0.1,0.3-0.1c0.4,0.1,0.9,0,1.3,0c0.4-0.1,0.9-0.1,1.3-0.2
			c0,0,0.1,0,0.2,0c-0.1,0-0.1-0.1-0.2-0.1c-0.4-0.2-0.8-0.4-1.2-0.6c-0.5-0.2-1-0.5-1.5-0.7c-0.2-0.1-0.5-0.2-0.8-0.1
			c0,0,0,0-0.1,0c0,0.1,0,0.1,0,0.2c-0.1-0.1-0.2-0.1-0.3-0.2c-0.1,0-0.2,0.1-0.3,0.1H525c-0.1,0.2-0.3,0.1-0.5,0.1
			c-0.1,0-0.2,0-0.3,0s-0.1,0.1-0.2,0.1c-0.2,0.1-0.3,0-0.5,0c-0.1,0-0.1-0.1-0.1-0.2v-0.1c0.1,0,0.2,0,0.3,0.1c0,0,0-0.1,0.1-0.1
			s0.1,0.1,0.2,0h0.1c0.1,0,0.3,0,0.4-0.1c0-0.1-0.1-0.1-0.2-0.1c-0.1,0.1-0.2,0.1-0.4,0c-0.1,0-0.1,0-0.2,0h-0.1h-0.1
			c-0.1,0-0.2,0-0.3,0s-0.1-0.1-0.2-0.1h-0.1c-0.2-0.1-0.3-0.1-0.3-0.3c-0.1,0-0.1,0.1-0.1,0.2c-0.1-0.1-0.1-0.2-0.1-0.3
			s0.1-0.2,0.3-0.2c0.1,0,0.3,0,0.4,0c0.1,0,0.2-0.1,0.2-0.1s0,0,0.1,0c0.2,0,0.3-0.1,0.3-0.2c0.1-0.1,0.2-0.2,0.3-0.2
			s0.3,0,0.4-0.1c0.1-0.1,0.3-0.1,0.4-0.1c0.1,0,0.2-0.1,0.3-0.2c0-0.1,0.1-0.1,0.2-0.1c0.2,0,0.4,0,0.5-0.1h0.1v0.1
			c0.3-0.1,0.4-0.3,0.6-0.5c0,0.1,0,0.1,0,0.2c0,0.1-0.1,0.2-0.1,0.3l-0.1,0.1c-0.1,0.1-0.2,0.1-0.2,0.2c0.1,0.1,0.2,0.1,0.3,0h0.1
			c0.1,0,0.1,0,0.2,0h0.1l0,0c-0.1,0-0.1,0.1-0.2,0.1c0,0.1,0,0.1,0,0.2c0.2,0,0.3,0.1,0.5,0.1c0.4,0.1,0.7,0.2,1.1,0.4
			c0.4,0.2,0.7,0.4,1.1,0.6c0.2,0.1,0.5,0.2,0.7,0.2c0.4-0.1,0.8-0.2,1.2-0.3c0.2,0,0.2-0.1,0.3-0.3c0-0.3,0.1-0.5,0.1-0.7
			s0-0.4-0.1-0.6c-0.3-0.9-0.7-1.6-1.3-2.3c-0.2-0.2-0.4-0.4-0.7-0.5c-0.1,0-0.2,0-0.3-0.1v-0.1c0.1,0,0.1-0.1,0-0.1
			c-0.1-0.2,0-0.3,0.1-0.5s0.1-0.4,0.2-0.6c0.1-0.4,0.1-0.7,0.2-1c0.1-0.5,0.2-1.1,0.3-1.6c0.3-1.3,0.6-2.5,1.1-3.7
			c0.2-0.4,0.3-0.9,0.5-1.3c0.1-0.2,0.1-0.4,0.1-0.5s0-0.1,0.1-0.2s0.2-0.2,0.2-0.3c0.2-0.3,0.5-0.6,0.7-0.9
			c0.6-0.7,1.1-1.5,1.6-2.2c0.1-0.1,0.2-0.2,0.3-0.3c0.1,0,0.1-0.1,0.2-0.1c0.6-0.4,1.1-0.8,1.7-1.2c0.2-0.2,0.5-0.3,0.7-0.4
			c0.1-0.1,0.3-0.2,0.4-0.3c0.2-0.1,0.4-0.2,0.6-0.3c0.1,0,0.2,0,0.2,0l0,0c0,0,0,0.1-0.1,0.1c-0.1,0.1-0.2,0.1-0.3,0.2l-0.1,0.1
			c-0.1,0.1-0.2,0.1-0.1,0.3c0,0.1,0.1,0.2,0.1,0.3c0.2,0.3,0.3,0.6,0.4,1c0.1,0.2,0.1,0.4,0.2,0.6c0.3,0.8,0.9,1.4,1.6,1.8
			c0.6,0.3,1.2,0.6,1.8,0.7c1.4,0.4,2.8,0.5,4.2,0.5c0.4,0,0.8,0,1.2-0.1c0.2,0,0.3-0.1,0.5-0.1c0.2-0.1,0.5-0.1,0.7,0h0.1l0,0h-0.1
			c-0.1,0-0.3,0-0.4,0.1c-0.1,0-0.1,0-0.2,0c-0.6,0-1.2,0.2-1.8,0.5c-0.4,0.2-0.8,0.5-1.1,0.8c-0.5,0.6-0.9,1.3-1.2,2
			c-0.2,0.5-0.2,1-0.2,1.5c0,0.4,0.1,0.8,0.3,1.1c0.3,0.6,0.5,1.3,0.8,1.9c0.2,0.5,0.6,0.9,1,1.3c0.2,0.2,0.4,0.3,0.6,0.3
			c0.2,0,0.3,0.1,0.4,0.2l0,0c-0.2-0.1-0.5,0-0.7-0.1s-0.4-0.1-0.5-0.2c-0.4-0.1-0.7-0.2-1.1-0.3c-0.3-0.1-0.6-0.1-0.9-0.2
			c-0.3-0.1-0.6,0-0.8,0.1c-0.5,0.2-0.9,0.4-1.3,0.8c-0.5,0.6-1,1.2-1.4,1.9c-0.1,0.2-0.2,0.4-0.2,0.6s0,0.4,0,0.7
			c0,0.6,0,1.2,0.1,1.9c0.2,0,0.4,0.1,0.6,0c0.1,0,0.1,0,0.2,0c0.4-0.1,0.8-0.1,1.3-0.1c0.5-0.1,1.1-0.1,1.6,0
			c1.5,0.1,2.9,0.5,4.3,0.9c2.1,0.6,4.2,1.4,6.3,2.1c1.1,0.4,2.3,0.8,3.5,1.1s2.4,0.5,3.6,0.4c2.2-0.1,4-0.9,5.5-2.5
			c0.5-0.5,0.9-1,1.4-1.5c0.1-0.1,0.3-0.3,0.4-0.4l0.1-0.1l0,0c0,0.1-0.1,0.1-0.1,0.2c-0.4,0.5-0.8,1-1.2,1.5
			c-0.1,0.1-0.3,0.3-0.4,0.5c-1.1,1.4-2.5,2.3-4.3,2.7c-1,0.2-2.1,0.2-3.1,0.2c-1.7-0.1-3.3-0.5-4.9-1c-1.8-0.6-3.7-1.1-5.6-1.5
			c-1.1-0.2-2.2-0.4-3.3-0.5c-0.9-0.1-1.9-0.1-2.8-0.1c-0.7,0-1.3,0.1-2,0.2c-0.3,0-0.5,0.1-0.8,0.1h-0.1c-0.3,0.1-0.7,0.1-1,0.1
			c-0.1,0-0.2,0-0.3,0l0,0c0.1,0.2,0.2,0.5,0.3,0.7c0,0.1,0.1,0.1,0.1,0.2c0.1,0.1,0.1,0.1,0.2,0.1c0,0,0.1,0,0.1-0.1
			c0.3-0.2,0.7-0.2,1-0.1c0.1,0.1,0.2,0.1,0.4,0.1s0.3,0,0.4-0.2l0,0c0.1-0.2,0.2-0.2,0.3,0c0.3,0.2,0.5,0.4,0.8,0.5
			c0.2,0.1,0.3,0.1,0.5,0.1c0.1,0,0.1,0,0.2,0c0.2,0,0.2,0,0.4,0.1c0-0.1,0-0.1,0.1-0.2c0.1,0.1,0.1,0.2,0.1,0.3s0,0.3-0.1,0.4
			c-0.1,0.1-0.2,0.2-0.4,0.3h-0.1c-0.1,0-0.2,0-0.3-0.1c-0.1-0.2-0.3-0.3-0.5-0.3c-0.2-0.1-0.5-0.2-0.7-0.2s-0.3,0-0.5,0
			c-0.5,0.1-1,0.2-1.4,0.3c-0.2,0.1-0.5,0.1-0.7,0.1c-0.4,0.1-0.8,0-1.1-0.2c-0.4-0.2-0.7-0.3-1.1-0.5c-0.1,0-0.1,0-0.2-0.1
			c-0.1,0.1-0.1,0.1-0.3,0.2c0,0.1,0,0.1,0,0.2c0,0.1-0.1,0.1,0,0.2c-0.1,0-0.1,0.1-0.2,0.1c-0.4,0.1-0.7,0-1-0.3
			c-0.1-0.1-0.1-0.1-0.2-0.2l-0.1-0.1c-0.1,0.2-0.2,0.3-0.2,0.5c-0.1,0.2-0.1,0.4-0.2,0.6v0.1c0.1,0.2,0.2,0.5,0.3,0.7
			c0.1,0.1,0.1,0.2,0.3,0.2h0.1c0.2,0,0.5-0.1,0.7-0.1v-0.1c0.1,0.1,0.2,0.1,0.3,0.2c0,0,0,0-0.1,0.1c0,0.1,0.1,0.2,0.1,0.2
			c0.1,0.2,0,0.4-0.2,0.4c-0.1,0-0.2,0.1-0.3,0.1s-0.1,0-0.2,0c-0.2-0.1-0.5-0.2-0.7-0.3s-0.3-0.1-0.5-0.3c0,0.1,0.1,0.2,0.1,0.3
			c0.2,0.2,0.4,0.5,0.7,0.7c0.1,0.1,0.1,0.1,0.2,0.2c0.1,0.1,0.2,0.2,0.4,0.2c0.1,0,0.2,0.1,0.3,0.3c-0.2,0-0.3,0-0.5-0.1
			c-0.2-0.2-0.4-0.3-0.7-0.3c-0.2,0-0.4-0.1-0.6-0.1c0,0,0,0-0.1,0c-0.5-0.2-1-0.2-1.5-0.2c-0.7,0-1.4,0.1-2.1,0.3
			c-0.8,0.2-1.5,0.4-2.2,0.9c-0.2,0.2-0.4,0.3-0.6,0.5c-0.2,0.1-0.2,0.3-0.3,0.5c-0.1,0.3-0.2,0.7-0.1,1c0,0.1,0.1,0.2,0.1,0.3
			c0.1,0.1,0.2,0.2,0.2,0.4h-0.1c-0.1-0.1-0.1-0.2-0.2-0.2c-0.7-1.2-1.7-2-3-2.4c-0.8-0.3-1.7-0.2-2.5,0.1c-0.5,0.2-1,0.4-1.4,0.7
			c-0.2,0.1-0.4,0.3-0.6,0.4c-0.1,0.1-0.3,0.2-0.4,0.3c-0.2,0.1-0.3,0.2-0.3,0.4C519.9,44.5,519.9,44.5,519.8,44.7
			C519.9,44.6,519.8,44.6,519.8,44.7z M524.1,33.1c0,0.1,0,0.2,0.1,0.3c0.1,0,0.1-0.1,0.2-0.1l0.1-0.1c0,0,0-0.1-0.1-0.1
			C524.3,33.1,524.2,33.1,524.1,33.1z M536.4,40.5c0-0.1,0-0.1,0.1-0.2c-0.1,0-0.2,0-0.3,0.1C536.2,40.4,536.3,40.5,536.4,40.5z
			 M536.7,38.3C536.7,38.2,536.8,38.2,536.7,38.3c-0.1-0.2-0.1-0.2-0.2-0.1C536.5,38.2,536.6,38.2,536.7,38.3z M536.9,37.8
			c-0.1,0-0.1-0.1-0.2-0.1C536.7,37.8,536.7,37.8,536.9,37.8z M544.1,38.3c-0.1,0.1-0.1,0.1,0,0.2C544.1,38.4,544.1,38.4,544.1,38.3
			z"/>
	</g>
	<g>
		<path class="st1" d="M8.8,120c0-6.5,0-12.9,0-19.5c0.6,0,1.1,0,1.7,0c0-0.5,0-0.9,0-1.3c0.1-0.9,0.3-1.7,0.4-2.6
			c0.1-0.6,0.3-1.2,0.3-1.8c0-2.6,0-5.2,0-7.8c0-0.4,0.2-0.9,0.4-1.2c1.9-2.5,3.9-4.9,5.9-7.4c0.3-0.3,0.5-0.5,1-0.5
			c2.8,0,5.6,0,8.5,0c0.4,0,0.7,0.1,1,0.5c1.2,1.6,2.5,3.2,3.8,4.8c1-1,1.9-1.9,2.9-2.9c1.4,1.4,2.7,2.7,4,4c0.1,0,0.1-0.1,0.2-0.1
			c0-4.7,0-9.3,0-14.1c1.4,0,2.8,0,4.1,0c0.6,0,0.9-0.2,1.3-0.5c2.1-2.1,4.3-4.2,6.4-6.3c0.2-0.2,0.3-0.3,0.6-0.6
			c0.3,0.3,0.5,0.7,0.8,1c2,2,4.1,4,6.1,6c0.3,0.2,0.7,0.4,1.1,0.4c3.2,0,6.3,0,9.5,0c0.2,0,0.5,0,0.8,0c0,1,0,2,0,3.1
			c1.5-1.3,2.8-2.5,4.1-3.8c0.2-0.2,0.4-0.4,0.6-0.5c0.5-0.3,1-0.4,1.4,0c0.5,0.4,0.9,0.8,1.4,1.2c0.6-0.5,1.1-1,1.6-1.6
			c0.2-0.2,0.3-0.5,0.3-0.7c0-0.7,0-1.4,0-2.1c0-0.6,0.3-0.9,1-1c0.4,0,0.8,0,1.2,0c1,0.1,1.7-0.2,2.4-0.9c0.3-0.4,0.5-0.8,0.5-1.3
			c0-1.4,0-2.7,0-4.1c0-0.2,0-0.5,0-0.8c0.9,0,1.7,0,2.7,0c0,0.9,0,1.8,0,2.9c1.6-1.6,3-3,4.5-4.5c0.6-0.6,1.1-0.6,1.7,0
			c2.4,2.4,4.9,4.7,7.2,7.2c1,1.1,2.1,1.5,3.6,1.4c1.2-0.1,1.5,0.2,1.4,1.3c-0.2,1.6,0.4,2.8,1.7,3.8c0.5,0.3,0.8,0.8,1.2,1.2
			c0.1,0.1,0.3,0.4,0.2,0.4c-0.1,0.1-0.3,0.2-0.5,0.3c-0.3,0-0.5,0-0.8,0c0,0.9,0,1.7,0,2.6c1.1-0.8,2-1.7,3.1-2.4
			c0.8-0.6,1.1-1.3,1-2.3c-0.1-0.9,0-1.8,0-2.7c1.2,0,2.3,0,3.5,0c0,0.4,0,0.8,0,1.2c0.2-0.1,0.4-0.1,0.5-0.2
			c1.6-1.3,3.2-2.6,4.8-3.9c0.8-0.7,1.3-0.7,2.4,0.1c3.1,2.4,6.1,4.9,9.2,7.3c1.1,0.9,2.2,1.7,3.4,2.7c0-7.4,0-14.7,0-22
			c-0.2,0-0.4-0.1-0.7-0.1c0.1-0.1,0.2-0.2,0.3-0.3c1.3-0.9,2.6-1.9,3.9-2.8c0.2-0.1,0.5-0.2,0.6-0.1c1.4,1,2.9,2.1,4.4,3.2
			c-0.3,0.1-0.5,0.1-0.7,0.1c0,4,0,7.9,0,12c1.1,0,2.2,0,3.4,0c0.1,0,0.3-0.2,0.4-0.3c0.2-0.3,0.4-0.7,0.6-1c0.1,0,0.1,0,0.2,0.1
			c0.4,1.1,1.2,1.4,2.3,1.2c0.7-0.1,1.4,0,2.1,0c0-3.9,0-7.9,0-11.9c-0.2,0-0.5-0.1-0.8-0.1c1.6-1.2,3.1-2.3,4.7-3.4
			c1.5,1.1,3,2.2,4.7,3.4c-0.3,0-0.5,0.1-0.7,0.1c0,6.5,0,13,0,19.7c0.5-0.4,0.9-0.8,1.2-1.1c0.7-0.6,1-0.6,1.7,0
			c2.4,2.3,4.7,4.6,7.1,6.9c0.3,0.3,0.8,0.4,1.3,0.7c0-1.1,0-2,0-2.9c2.5,0,5,0,7.5,0c0,1.1,0,2.2,0,3.2h0.1
			c1.3-2.2,2.7-4.5,4.1-6.8c1.9,3.1,3.7,6.1,5.6,9.2c0-0.7,0-1.2,0-1.7c0-1.9,0-3.9,0-5.8c0-0.8,0.3-1.4,0.7-2c1.5-2,3-4,4.4-6
			c0.2-0.3,0.3-0.7,0.3-1c0-1.9,0-3.7,0-5.6c0-0.5,0.1-0.7,0.7-0.7c0.8,0,1.6,0,2.5,0c0,0.8,0,1.5,0,2.3c0.1,0,0.1,0.1,0.2,0.1
			c1.6-2.1,3.1-4.2,4.8-6.4c0.6,0.8,1.2,1.5,1.7,2.2c2.6,3.6,5.3,7.1,7.9,10.7c1,1.4,2,2.8,3.1,4.2c0.6,0.8,1,1.7,0.9,2.7
			c0,0.5,0,1,0.1,1.6c0.3-0.4,0.7-0.9,1-1.3c2.1-2.8,4.2-5.6,6.4-8.4c0.4-0.5,0.8-0.9,1.1-1.5c0.4-0.6,0.7-0.4,1,0
			c0.6,0.8,1.2,1.6,1.9,2.5c2.1,2.8,4.3,5.6,6.4,8.4c0.6,0.8,1.2,1.6,1.8,2.4c0.1,0,0.1,0,0.2-0.1c0-0.6,0.1-1.3,0-1.9
			c-0.1-0.9,0.2-1.6,0.8-2.2c1.3-1.4,2.5-2.9,3.9-4.2c0.8-0.7,1.3-1.6,1.9-2.4c0.1-0.1,0.1-0.2,0.1-0.4c-0.1-1.2-0.2-2.4-0.4-3.7
			c0.8,0,1.4,0,2,0c0.1,0,0.3,0.3,0.3,0.4c0,0.5,0,1,0,1.6c0.8-0.9,1.6-1.7,2.3-2.5c0.9-1,1.7-1.9,2.6-2.9c0.4-0.4,0.7-0.3,1,0
			c1.4,1.6,2.9,3.2,4.3,4.7c2.2,2.4,4.4,4.9,6.6,7.3c0.6,0.7,1.3,1.4,1.9,2.1c0.3,0.4,0.5,1,0.6,1.5s0,1,0,1.8
			c0.5-0.6,0.8-1,1.2-1.4c2-2.6,4.1-5.3,6.1-7.9c0.4-0.5,0.5-0.5,0.9,0c1.2,1.6,2.4,3.1,3.6,4.6c0.1,0.1,0.2,0.2,0.4,0.4
			c1.3-1.7,2.6-3.3,3.9-5c0.1-0.1,0.3-0.3,0.3-0.4c0.3-0.5,0.6-0.3,0.8,0c1.2,1.5,2.4,3.1,3.6,4.6c0,0,0.1,0.1,0.3,0.2
			c0-1.1,0-2,0-3c4.4,0,8.7,0,13.1,0c0,3.1,0,6.2,0,9.2h0.1c2.1-3.4,4.1-6.8,6.3-10.3c0.6,0.9,1.1,1.7,1.6,2.5
			c1.4,2.3,2.8,4.7,4.3,7c0.5,0.9,0.4,1.8,0.5,2.7c0,0.1,0,0.2,0,0.3c0,0,0,0,0.1,0.1c2.1-3.2,4.1-6.4,6.3-9.8
			c1.7,2.6,3.3,5,4.9,7.5c0.1,0,0.1,0,0.2-0.1c0-1-0.1-2,0-2.9c0-0.5,0.3-1.1,0.6-1.4c1.8-1.9,3.7-3.8,5.5-5.7
			c0.2-0.2,0.3-0.5,0.3-0.8c0-1.3,0-2.6,0-3.9c0.8,0,1.6,0,2.4,0c0,0.6,0,1.2,0,1.8c0.1,0,0.1,0.1,0.2,0.1c0.4-0.5,0.8-1,1.3-1.4
			c1.4-1.4,2.8-2.8,4.2-4.2c0.4-0.4,0.7-0.4,1.1,0c2.7,2.7,5.4,5.4,8,8.1c0.8,0.8,1.6,1.7,2.4,2.5c1.1,1.2,2.3,2.3,3.4,3.5
			c0.3,0.3,0.5,0.8,0.5,1.2c0,3.1,0,6.1,0,9.2c0,0.2,0,0.4,0,0.9c0.6-0.8,1.2-1.5,1.7-2.2c0.2-0.3,0.5-0.6,0.6-0.9
			c0.2-0.4,0.4-0.8,0.4-1.2c0-1.9,0-3.7,0-5.6c0-0.4,0.1-0.6,0.6-0.6c0.8,0,1.7,0,2.6,0c0,0.8,0,1.5,0,2.2c0.1,0,0.1,0.1,0.2,0.1
			c1.6-2.1,3.1-4.2,4.7-6.3c0.1-0.1,0.2-0.1,0.3-0.2c0.1,0.2,0.2,0.5,0.4,0.7c3,4.1,6.1,8.2,9.1,12.3c1.3,1.7,2.6,3.4,3.9,5
			c0.1,0.2,0.3,0.3,0.6,0.6c0-0.5,0-0.8,0-1.2c0-1.1,0-2.3,0-3.4c0-0.5,0.1-0.8,0.5-1.1c1-0.9,2-1.8,3-2.7c0,0,0.1-0.1,0.4-0.3
			c0.7,0.9,1.4,1.8,2.2,2.8c0.8-1,1.4-1.8,2-2.6c0.1-0.1,0.1-0.4,0.1-0.6c0-9.8,0-19.6,0-29.3c0-0.1,0-0.1,0-0.3
			c-0.4,0-0.7-0.1-1.2-0.1c2.2-3.4,4.3-6.8,6.5-10.3c2.2,3.4,4.3,6.8,6.5,10.3c-0.4,0-0.7,0.1-1.1,0.1c0,7,0,14.1,0,21.3
			c2-2.1,4-4.1,5.9-6.1c1.9,2,3.8,4.1,5.8,6.2c0-1.2,0-2.2,0-3.3c-0.2,0-0.6-0.1-1-0.1c0.2-0.2,0.4-0.3,0.5-0.4
			c1.8-1.3,3.6-2.6,5.4-4c0.3-0.2,0.5-0.3,0.8,0c1.9,1.4,3.8,2.8,5.7,4.2c0.1,0.1,0.2,0.1,0.2,0.1l-0.1,0.1c-0.3,0-0.7,0-1.1,0.1
			c0,0.3,0,0.5,0,0.8c0,4.5,0,9,0,13.5c0,0.9,0.3,1.6,0.7,2.3c0.6,0.9,1.5,1.7,2.2,2.5c0,0,0.1,0,0.3,0.1c0-0.3,0.1-0.5,0.1-0.7
			c0-0.9,0-1.8,0-2.6c0-0.8,0.3-1.4,1-1.8c0.2-0.1,0.3-0.5,0.3-0.8c0.1-3.8,0.2-7.5,0.3-11.3c0-0.3,0-0.5,0-0.9c0.3,0,0.6,0,0.8,0
			c1.6,0,3.3,0,4.9,0c0.2,0,0.6-0.2,0.6-0.2c0-0.3-0.1-0.6-0.3-0.8c-0.3-0.4-0.6-0.7-0.4-1.2c0.1-0.2,0.1-0.4,0-0.5
			c-0.5-0.9-1.1-1.7-1.7-2.6c-0.3-0.4-0.3-0.6,0-1c0.2-0.3,0.4-0.7,0.4-1c0-1.1,0-2.2,0-3.3c0-1.2,0.2-2.4,0.2-3.5
			c0-0.8-0.2-1.5-0.3-2.3c0-0.3,0-0.7,0.2-1c0.3-0.5,0.8-0.8,1.1-1.3c0.3-0.5,0.6-1.1,0.9-1.7c0.1-0.2,0.3-0.3,0.4-0.4
			c0.1,0.2,0.2,0.3,0.3,0.5c0.4,0.7,0.7,1.4,1.1,2c0.1,0.1,0.5,0.1,0.6,0c2-2.2,4-4.4,5.8-6.7c0.5-0.7,0.7-1.7,0.9-2.6
			c0.2-0.5,0.3-1,0.4-1.5c0-1.1-0.1-2.2-0.1-3.3c0-0.1,0.1-0.4,0.1-0.4c0.2,0,0.4,0.1,0.7,0.1c0.1-0.8,0.2-1.6,0.4-2.4
			c0.2-1.4,0.6-2.7,0.8-4.1c0.3-2.1,0.5-4.3,0.8-6.4c0.1-0.6,0.3-1.2,0.3-1.8c0-0.2-0.1-0.4-0.2-0.6c-0.4-0.5-0.1-1.5,0.5-1.7
			c0.1,0,0.2,0,0.2,0c0.3,0.4,0.8,0.9,0.8,1.3s-0.4,0.8-0.2,1.4c0.2,0.7,0,1.5,0.1,2.3c0.2,2,0.6,3.9,0.8,5.8
			c0.2,1.6,0.4,3.2,0.6,4.9c0.1,0.5,0.1,1.1,0.7,1.2c0.1,0,0.2,0.3,0.2,0.4c0,0.9-0.1,1.8-0.1,2.6c0,0.5,0.1,1,0.2,1.5
			c0,0.2,0.1,0.3,0.1,0.5c0,1.4,0.7,2.5,1.6,3.6c1.5,1.6,2.8,3.4,4.2,5.1c0.3,0.4,0.6,0.9,1.1,0.9c0.2-0.6,0.3-1.1,0.6-1.5
			c0.9-1.1,1.3-2.4,1.8-3.6c0.2-0.4,0.3-0.8,0.4-1.2c0.1-0.3-0.1-0.6,0-0.9c0-0.3,0-0.6,0.1-0.8c0-0.1,0.4-0.1,0.5,0
			c0.2,0.2,0.4,0.6,0.3,0.7c-0.4,0.8-0.1,1.4,0.3,2c0.6,1.1,1,2.3,1.7,3.4c0.6,0.8,0.9,1.4,0.1,2.2l-0.1,0.1c0,1.7,0.1,3.4,0.1,5
			c0,0.4-0.1,0.9-0.1,1.3c0,1.9,0,3.7,0,5.6c0,0.2,0,0.4,0,0.7c0.8-0.7,1.5-1.3,2.2-1.9c1.3-1.2,2.7-2.4,4-3.6
			c0.6-0.5,0.8-0.5,1.4,0c2.2,1.9,4.3,3.9,6.5,5.8c0.4,0.3,0.5,0.6,0.5,1.1c0,4,0,8,0,12c0,0.1,0,0.2,0,0.3c0.1,0,0.1,0.1,0.2,0.1
			c0.2-0.3,0.4-0.6,0.4-0.9c0.1-0.7,0-1.4,0-2c0-0.8,0.3-1.1,1.1-1.1c0.6,0,1.1,0,1.7,0c1.1,0,2.3-1.1,2.3-2.2c0-1.6,0-3.3,0-5
			c0.9,0,1.8,0,2.7,0c0,0.9,0,1.9,0,3c0.7-0.7,1.4-1.3,2-1.9c0.9-0.9,1.7-1.7,2.5-2.6c0.6-0.6,1.1-0.6,1.6,0c2,2,3.9,4,5.9,5.9
			c0.3,0.3,0.7,0.3,0.9-0.1c0.3-0.6,0.7-1.2,1.1-1.8c0.2-0.4,0.6-0.8,0.8-1.1c0.8-1.2,1.7-2.4,2.5-3.6c0.6-0.9,1.1-1.8,1.6-2.7
			c0.7-1.1,1.5-2.2,2.4-3.5c1.1,1.6,2.1,3.1,3.1,4.7c0-0.5,0.1-0.9,0.1-1.4c0-0.7,0.4-0.8,0.9-0.8s1,0,1,0.8c0,1,0.1,2,0,3
			c-0.1,1.3,0.5,2.2,1.2,3.1s1.3,1.8,1.8,2.7c0.5,0.9,1.1,1.3,2.2,1.2c6.6-0.1,13.2,0,19.8,0c0.7,0,1-0.3,1-0.9s0-1.1,0-1.7
			c0.1,0,0.1,0,0.2,0c0.1,0.1,0.2,0.2,0.2,0.3c0.2,0.7,0.4,1.4,0.4,2.2c0.1,0.7,0.7,0.5,1,0.7c0.6,0.4,1.3,0.7,2,1.1
			c0.2,0.1,0.3,0.1,0.5,0.2c1.1,0.6,2.2,1.1,3.3,1.7c0.2,0.1,0.3,0.6,0.2,0.8c-0.2,0.8-0.1,1.7,0.4,2c0.3,0.2,0.7,0.2,1,0.2
			c0.8,0,1.2,0.2,1.4,1c0.1,0.6,0.5,1.1,0.8,1.7c0.5,1,0.9,2,1.4,3c0.2,0.4,0.5,0.7,0.8,1.1c0.2-0.4,0.3-0.7,0.5-1.1
			c0.4,0.7,0.7,1.2,1,1.7c0.6-0.3,0.8-0.8,0.8-1.4c0-1.1,0-2.3,0-3.5c0.9,0,1.7,0,2.6,0c0,0.5,0,1,0,1.7c1-1,1.8-1.8,2.7-2.6
			c0.3-0.2,0.7-0.2,1.1-0.3c0.4-0.1,0.8-0.2,1-0.5c0.6-0.7,1.1-0.8,1.8-0.1c1.4,1.4,2.8,2.7,4.1,4.1c1.6,1.5,3.2,3.1,4.8,4.6
			c0.5,0.5,1.1,1.1,1.6,1.6c0.8-0.7,1.6-1.4,2.3-2.1c0.6-0.6,1.1-1.3,1.7-1.9c0.6-0.6,1.3-1.1,2-1.7c0.6-0.6,1.1-1.2,1.7-1.8
			c0.3-0.3,0.6-0.7,1-0.9c0.2-0.1,0.8-0.2,0.9,0c0.7,0.6,1.2,1.2,1.8,1.9c0.3,0.3,0.6,0.6,0.9,0.9c0.2,0.2,0.5,0.4,0.8,0.6
			c0.4-0.5,0.8-1.1,1.2-1.6c1.4,1.8,2.7,3.5,4.1,5.3c0.6-0.5,1.1-1.1,1.7-1.6c0.5-0.5,1-1.1,1.6-1.6c0.1-0.1,0.5-0.1,0.6,0
			c2.2,2.2,4.4,4.4,6.5,6.6c0,0,0,0,0,0.1c-0.3,0-0.6-0.1-0.9-0.1c0,2.9,0,5.7,0,8.6c0.4,0,0.8,0,1.3,0c0,6.5,0,13,0,19.5
			C401.5,120,205.1,120,8.8,120z M390.7,71c0-1.1,0-2.2,0-3.3c0-0.7-0.6-0.8-1.1-0.8c-0.6,0-1.3,0-1.3,0.7c-0.1,1.1,0,2.3,0,3.4
			C389,71,389.8,71,390.7,71z M391.6,59c0-1.6,0-3.2,0-4.7c0-0.2-0.3-0.6-0.5-0.6c-0.3,0-0.8,0-1,0.2c-0.3,0.4-0.4,0.9-0.5,1.3
			c-0.1,1,0,2,0,3c0,0.5,0.3,0.7,0.7,0.8C390.8,59.1,391.2,59,391.6,59z M387,59c0.4,0,0.7,0,1,0c0.8,0,1-0.2,1-1
			c0-1.3,0.2-2.6-0.4-3.9c-0.1-0.2-0.5-0.4-0.8-0.5c-0.4-0.1-0.7,0.2-0.7,0.6C387,55.9,387,57.4,387,59z M156,57.3
			c0-0.8,0-1.6,0-2.3c0-0.5-0.4-0.6-0.8-0.6c-0.4,0-0.9,0-1,0.5c-0.1,0.8,0,1.6,0,2.4C154.8,57.3,155.4,57.3,156,57.3z M139.4,57.3
			c0-0.8,0-1.6,0-2.3c0-0.5-0.5-0.6-0.9-0.6s-0.9,0.1-0.9,0.6c0,0.8,0,1.6,0,2.4C138.2,57.3,138.7,57.3,139.4,57.3z"/>
	</g>
	<path class="st2" d="M518.7,119.4L518.7,119.4c0.1,0,0.1,0,0.2,0c0,0,0,0,0,0.1c0,0,0,0,0,0.1c-0.1,0.1,0,0.2,0,0.3
		c0,0,0,0.1,0.1,0.1c0,0.1,0,0.2,0.1,0.2s0.1,0.1,0.2,0c0,0,0,0,0,0.1h22c0.1-0.1,0.1-0.2,0-0.3c-0.1-0.1-0.2-0.2-0.3-0.1h-0.1h-0.1
		c-0.1-0.1-0.2-0.1-0.2-0.1s0,0-0.1-0.1c0.1,0,0.2,0,0.4-0.1h0.1c0,0,0.1-0.1,0.1-0.2s0-0.1,0-0.1l-0.1-0.1l0,0v-0.1
		c-0.1-0.1-0.1-0.1-0.2-0.2c0,0,0,0-0.1,0c0,0-0.1,0-0.2,0l0.1-0.1l0.1-0.1v-0.1c-0.1,0-0.1-0.1-0.2-0.1c-0.1-0.1-0.2-0.1-0.3,0
		c0,0-0.1-0.1,0-0.1c0-0.1,0-0.1-0.1-0.2s-0.2-0.1-0.2-0.1c-0.1,0-0.1,0-0.2-0.1c-0.1-0.1-0.1-0.1-0.2,0c-0.1,0-0.1,0-0.2,0.1h-0.1
		h-0.1l0,0l0.1-0.1c0,0,0,0,0-0.1s0-0.1,0.1-0.2v-0.1c0-0.1-0.1-0.2-0.1-0.2l0,0c0-0.1,0-0.1-0.1-0.3c-0.1-0.1-0.1-0.1-0.2-0.2
		c0,0,0,0,0-0.1v-0.1c0,0-0.1-0.1,0-0.1h0.1c0.1,0,0.1,0,0.2,0c0,0,0.1-0.1,0.1-0.2v-0.1c0.1-0.1,0.1-0.2,0-0.4c0,0,0-0.1-0.1-0.1
		c0,0,0-0.1-0.1-0.1c0.1-0.1,0.1-0.1-0.1-0.3c0,0,0-0.1,0.1-0.1c0,0,0.1-0.1,0.1-0.2V115c-0.1-0.1-0.1-0.2-0.3-0.2h-0.1
		c0-0.1,0-0.1,0.1-0.1s0.1-0.1,0.2-0.1v-0.1l0,0c0,0-0.1-0.1,0-0.1c0,0,0-0.1-0.1-0.1c-0.1-0.1-0.1-0.1-0.2-0.2l0,0V114
		c-0.1-0.1-0.1-0.1-0.2-0.2c0,0-0.1-0.1,0-0.1v-0.1c-0.1-0.1-0.1-0.1-0.2-0.1l0,0c-0.1,0-0.2,0-0.3,0l0,0l0,0c0,0,0.1-0.1,0-0.1
		c0-0.1-0.1-0.1-0.2-0.1c-0.1,0-0.1,0-0.2,0c0,0-0.1,0-0.1,0.1s-0.1,0.1-0.1,0.2c0-0.1,0-0.1,0-0.1s0.1-0.1,0-0.1l-0.1-0.1
		c0,0-0.1,0-0.1-0.1s0-0.1-0.1-0.2s-0.2-0.1-0.2-0.1l0,0l0,0c0.1-0.1,0.1-0.1,0-0.2c0,0-0.1-0.1-0.2-0.1h-0.1c0,0-0.1,0-0.1,0.1
		c-0.1,0-0.2-0.1-0.2-0.2c-0.1-0.1-0.3-0.2-0.4-0.1l-0.1,0.1h-0.1c-0.1,0.1-0.1,0.2-0.2,0.3v0.1c0,0.1,0,0.1-0.1,0.2l0,0l0,0
		c-0.1,0-0.1,0-0.2-0.1c0,0-0.1,0-0.1-0.1c-0.1,0-0.1-0.1-0.2-0.1h-0.1c0,0-0.1,0-0.1,0.1h-0.1c-0.1-0.1-0.1-0.1-0.2,0
		c0,0-0.1,0.1-0.2,0.1l0,0c0-0.1,0-0.2,0-0.2c-0.1-0.1-0.2-0.1-0.3-0.1s-0.2,0-0.2,0.1c-0.1-0.1-0.2-0.1-0.2-0.2s-0.1-0.1-0.1-0.2
		l0,0c0,0,0.1-0.1,0-0.1c0-0.1-0.1-0.1-0.2-0.1c-0.1,0-0.1,0-0.2,0c0,0,0,0-0.1,0c0,0,0,0,0-0.1s-0.1-0.2-0.2-0.2h-0.1
		c-0.1,0.1-0.1,0.1-0.1,0.2s-0.1,0.1,0,0.2v0.1c0,0-0.1,0-0.1,0.1c0-0.1,0-0.2-0.1-0.2c0-0.1,0-0.1,0-0.2l0,0c0-0.1,0-0.2-0.1-0.3
		c0,0,0,0-0.1,0s-0.2,0-0.2,0.1l0,0c-0.1,0.1-0.1,0.1-0.2,0c-0.1-0.1-0.1-0.1-0.2,0c-0.1,0.1-0.1,0.1,0,0.2c0,0,0,0,0,0.1
		c-0.1,0-0.1,0-0.2-0.1c-0.1,0-0.1,0-0.1,0c-0.1,0.1-0.1,0.1-0.1,0.3c0,0,0,0,0,0.1c0,0,0,0-0.1,0H531c-0.1,0.1-0.1,0.1-0.2,0.2v0.1
		c0.1,0,0.1,0.1,0.2,0.1l0.1,0.1l-0.1,0.1v0.1c0,0,0,0,0,0.1l-0.1-0.1v-0.1V113c-0.1-0.1-0.1-0.1-0.2-0.1c0,0-0.1,0-0.1,0.1h-0.1
		c-0.1,0-0.1,0-0.1,0s0,0.1-0.1,0.1l-0.1,0.1l0,0c-0.2,0-0.2,0.1-0.3,0.2h-0.1c0,0,0,0,0-0.1s0-0.1,0-0.1c-0.1-0.1-0.2-0.1-0.3-0.1
		l0,0c0,0,0,0.1-0.1,0.1v-0.1c0,0,0-0.1-0.1-0.1c0,0-0.1-0.1,0-0.1c0-0.1,0-0.1,0-0.2c-0.1,0-0.1-0.1-0.2-0.1c-0.1,0-0.1,0-0.1,0
		c-0.1,0.1-0.1,0.2-0.2,0.3c0,0,0,0,0,0.1s0,0.1,0,0.2c-0.1,0-0.2,0-0.2-0.1h-0.1c-0.1,0-0.2,0-0.2-0.1c-0.1,0-0.1,0-0.1,0
		c-0.1,0.1-0.1,0-0.2,0l-0.1-0.1h-0.1c0,0,0,0-0.1,0s-0.2,0-0.2-0.1c-0.1-0.1-0.1-0.1-0.2,0c-0.1,0-0.1,0-0.2,0.1
		c0,0.1-0.1,0.1-0.1,0.2c-0.1-0.1-0.2,0-0.3,0s-0.1,0.1-0.1,0.2s-0.1,0.1-0.1,0.2c0,0,0,0-0.1,0s-0.1,0-0.2,0l-0.1,0.1
		c-0.1,0-0.1-0.1-0.2-0.1c0.1,0,0-0.1,0-0.2l0,0c0,0,0-0.1-0.1-0.1c-0.1-0.1-0.2-0.1-0.3-0.2h-0.1l-0.1,0.1l-0.1-0.1
		c-0.1-0.1-0.1-0.1-0.2,0c-0.1,0.1-0.1,0.1-0.1,0.3c0,0.1,0,0.1-0.1,0.1s-0.2,0.1-0.1,0.2c0,0.1,0,0.1,0,0.2s-0.1,0.1-0.2,0
		l-0.1-0.1c0,0-0.1-0.1-0.1,0c-0.1,0-0.2,0.1-0.2,0.1c-0.1,0-0.1,0.1-0.1,0.2c0,0.2-0.1,0.2-0.2,0.3c0,0,0,0-0.1,0s-0.1,0-0.1,0
		s0,0-0.1,0.1l0,0c0-0.1-0.1-0.1-0.2-0.2h-0.1c-0.1,0.1-0.2,0.1-0.1,0.3c0,0,0,0,0,0.1l0,0c0,0.1-0.1,0.2-0.1,0.2
		c-0.1,0.1-0.1,0.1,0.1,0.2c0,0,0.1,0,0.1,0.1h0.1c-0.1,0.1-0.1,0.1-0.2,0.2c0,0.1,0,0.1,0,0.2c0.1,0.1,0.1,0.1,0.2,0.2l-0.1,0.1
		l0,0v-0.1l-0.1-0.1H523c-0.1,0-0.2,0-0.2,0.1c0,0-0.1,0-0.1-0.1h-0.1c-0.1,0.1-0.1,0.1-0.2,0.2c-0.1,0.1-0.1,0.1-0.1,0.2
		c-0.2,0-0.2,0.1-0.3,0.2c0,0,0,0-0.1,0s-0.1,0-0.1,0.1l-0.1,0.1c-0.1,0.1-0.2,0.2-0.1,0.4c0,0,0,0,0,0.1c0,0-0.1,0.1-0.1,0.2v0.1
		c-0.1,0.1-0.1,0.1-0.2,0.2l0,0c-0.1-0.1-0.1-0.1-0.2,0c0,0.1-0.1,0.1-0.1,0.2s-0.1,0.1-0.2,0c-0.1,0-0.2,0-0.3,0l-0.1,0.1
		c0,0-0.1,0-0.2,0l0,0c-0.1-0.1-0.1-0.1-0.2,0l-0.1,0.1c0,0,0,0,0,0.1s0,0.1-0.1,0.2s-0.1,0.1-0.1,0.2c0,0,0,0.1-0.1,0.1
		c0,0.1,0,0.1,0.1,0.2c0,0,0.1,0.1,0.2,0.1c0,0,0.1,0,0.1,0.1l0.1,0.1l0.1,0.1c0,0.1,0,0.2,0,0.2l-0.1,0.1c0,0.1,0,0.1-0.1,0.1
		c0,0-0.1,0-0.1,0.1c-0.1,0.1-0.1,0.1-0.2,0c-0.1-0.1-0.2,0-0.3,0l-0.1,0.1c0,0,0,0,0,0.1C518.5,119.3,518.5,119.3,518.7,119.4
		C518.6,119.4,518.6,119.4,518.7,119.4z M536.9,113.4C537,113.4,537,113.4,536.9,113.4L536.9,113.4L536.9,113.4L536.9,113.4z"/>
	<g>
		<path class="st0" d="M254.1,117.3c1.5-4.5,3.1-9,4.7-13.6c-0.3-0.1-0.6-0.2-0.9-0.3c0,0,0,0.1,0.1,0.1c-0.6,0.4-1.2,0.7-1.7,1.1
			c-0.1,0.1-0.3,0.2-0.4,0.3c-1.1,1.4-3.7,1.3-4.8,0c-0.1-0.1-0.3-0.2-0.4-0.3c-0.4-0.2-0.8-0.4-1.1-0.6c-0.7-0.5-0.7-1.3,0-1.7
			c0.7-0.4,1.5-0.7,2.3-0.9c0.2-0.1,0.5-0.1,0.9-0.1c-0.8-0.5-1.5-1-2.4-1c-0.3,0-0.7-0.1-1-0.1c-1-0.2-1.1-0.5-0.5-1.4
			c-0.1-0.1-0.2-0.1-0.3-0.2c-1-0.6-1.6-0.4-2.4,0.4c-0.8,0.8-1.8,0.9-2.8,0.7c-0.7-0.1-1.4-0.3-1.8-1c-0.1-0.2-0.3-0.2-0.5-0.3
			c-0.6-0.3-1.3-0.6-1.4-1.4c0-0.8,0.7-1.2,1.3-1.4c0.7-0.2,1.4-0.3,2.1-0.5c0.2-0.1,0.4-0.2,0.6-0.3c-0.2-0.2-0.4-0.5-0.6-0.5
			c-0.6-0.1-1.2-0.1-1.8-0.2c-0.7-0.1-1.4-0.3-2.1-0.6c-0.7-0.3-0.7-0.8,0-1.1c0.5-0.3,1.1-0.4,1.6-0.6c-0.6-0.7-1.2-1.5-1.8-2.2
			c-1.1,0.9-2.3,1-3.6,0.7c-0.2-0.1-0.5-0.1-0.6-0.3c-0.5-0.6-1.2-0.8-1.8-1.2c-0.9-0.6-0.9-1.5,0-2.1c0.7-0.4,1.5-0.6,2.3-0.8
			c0.3-0.1,0.7-0.1,1.1-0.1c-0.1-0.5-0.3-0.7-0.8-0.8c-1.1-0.1-2.1-0.3-3.2-0.5c-0.2,0-0.5-0.2-0.7-0.3c-0.5-0.3-0.5-0.8,0-1
			c0.7-0.3,1.5-0.5,2.2-0.7c0.2-0.1,0.4-0.1,0.6-0.1c-0.4-0.9-0.7-1.7-1.1-2.6c-0.1-0.1-0.1-0.2-0.2-0.4c-0.1-0.6-0.4-0.8-1-1
			c-0.5-0.1-0.9-0.5-1.3-0.8c-0.2-0.1-0.3-0.2-0.5-0.3c-0.4-0.2-0.7-0.3-1.1-0.6c-0.7-0.6-0.7-1.3,0-1.8c0.6-0.4,1.3-0.7,2-1
			c0-0.9,0-0.8-1-1c-0.7-0.1-1.3-0.3-1.9-0.5c-0.3-0.1-0.6-0.4-0.6-0.7c0-0.2,0.3-0.5,0.6-0.6c0.7-0.3,1.5-0.5,2.2-0.7
			c-0.1-1.5-0.2-3-0.4-4.5c0-0.1-0.1-0.2-0.2-0.3c-0.1-0.1-0.3-0.1-0.4-0.2c-0.5-0.3-0.9-0.6-0.9-1.2s0.4-1,0.9-1.1
			c0.8-0.3,0.7-0.9,0.7-1.5c0-0.1-0.2-0.3-0.4-0.3c-0.5-0.2-1.1-0.3-1.5-0.5c-0.3-0.1-0.6-0.5-0.6-0.6c0-0.3,0.4-0.6,0.6-0.7
			c0.7-0.3,1.4-0.4,2.1-0.6c0.5-3.3,1.2-6.6,2.5-9.7c-0.5-0.2-1-0.4-1.5-0.6c-0.2-0.1-0.5-0.4-0.5-0.6c0-0.2,0.3-0.5,0.5-0.6
			c0.7-0.2,1.4-0.4,2-0.6c0.2-0.1,0.5-0.2,0.6-0.4c1.2-2.4,2.6-4.8,4.2-7c-0.2-0.1-0.4-0.2-0.6-0.3c-0.6-0.4-0.6-0.8,0-1.1
			s1.2-0.4,1.9-0.6c0.2-0.1,0.5-0.2,0.7-0.4c2-2.3,4.3-4.4,6.7-6.3c-0.2-0.7-0.1-0.9,0.6-1.2c0.2-0.1,0.4-0.2,0.7-0.2
			c1-0.1,1.9-0.7,2.7-1.2c5.4-3.2,11.3-5,17.6-5.6c4-0.3,8-0.2,12,0.6c3.8,0.8,7.4,2,10.8,3.7c0.4,0.2,0.9,0.2,1.4,0.3
			c0.5,0.1,1.1,0.3,1.6,0.5s0.7,0.5,0.4,1c1.3,1,2.7,2,4,3c0.9,0.7,1.8,1.6,2.7,2.4c0.3,0.2,0.6,0.3,0.9,0.4
			c0.8,0.2,1.6,0.3,2.3,0.6c0.3,0.1,0.6,0.4,0.6,0.7c0,0.2-0.4,0.5-0.6,0.7c-0.2,0.1-0.4,0.2-0.7,0.3c0.1,0.1,0.1,0.2,0.2,0.3
			c2.2,2.5,4,5.3,5.5,8.2c0.1,0.2,0.4,0.4,0.6,0.5c0.5,0.2,1,0.3,1.5,0.6c0.6,0.3,0.6,0.7,0,1.1c-0.3,0.2-0.6,0.3-0.9,0.4
			c0.3,0.8,0.6,1.6,0.9,2.4c0.5,1.8,1,3.6,1.5,5.3c0.1,0.4,0.2,0.6,0.6,0.7c0.7,0.1,1.3,0.3,1.9,0.6s0.6,0.8,0,1.1s-1.3,0.5-2,0.7
			c0.1,0.6-0.1,1.3,0.8,1.8c1,0.5,0.9,1.5,0,2.1c-0.3,0.2-0.4,0.4-0.4,0.8c0,0.9,0,1.8,0,2.7c0,0.9-0.1,1.8-0.2,2.7
			c0.5,0.2,1,0.3,1.4,0.5c0.3,0.1,0.6,0.4,0.6,0.6c0,0.3-0.4,0.6-0.6,0.7c-0.4,0.2-0.9,0.3-1.4,0.4c-0.7,0.1-0.4,0.7-0.5,1.1
			c-0.1,0.3,0.2,0.4,0.4,0.5c0.6,0.3,1.3,0.6,1.3,1.4s-0.7,1.1-1.3,1.4c-0.9,0.4-1.4,1-1.7,1.9c-0.4,1.3-0.9,2.6-1.4,4
			c0.3,0.1,0.6,0.3,0.9,0.5c0.5,0.3,0.5,0.7,0,1c-0.3,0.2-0.7,0.3-1,0.4c-1,0.3-1.2,0.4-1.5,1.5c0.5,0.2,0.9,0.4,1.4,0.7
			c0.8,0.5,0.8,1.3,0,1.9c-0.7,0.5-1.5,0.9-2.2,1.4c-0.4,0.3-1.1,0.3-1.6,0.4c-0.3,0.1-0.6,0.2-0.8,0.4c-0.4,0.5-0.8,1.1-1.2,1.6
			c0,0.1,0,0.1,0.1,0.1c0.2,0.2,0.5,0.5,0.7,0.7c-0.3,0.2-0.5,0.5-0.8,0.7s-0.7,0.3-1,0.3c-0.8,0.1-1.3,0.6-1.7,1.2
			c0.6,0.2,1.2,0.4,1.8,0.7c1.1,0.6,1.1,1.6,0,2.3c-0.6,0.3-1.1,0.6-1.6,1.1c-0.8,0.8-3.3,0.9-4.3-0.3c-2.1,1.3-4.1,2.6-6.2,3.9
			c0.2,0.1,0.5,0.2,0.8,0.3c0.3,0.2,0.7,0.3,1,0.6c0.6,0.5,0.6,1.2,0,1.6c-0.8,0.6-1.6,1.2-2.5,1.7c-1.2,0.6-2.4,0.5-3.6-0.3
			c-0.3-0.2-0.5-0.5-0.8-0.7s-0.6-0.3-1.1-0.5c0.2,0.8,0.5,1.5,0.7,2.3c1.1,3.6,2.2,7.1,3.2,10.7c0,0.1,0,0.2,0.1,0.3
			C277.7,117.3,265.9,117.3,254.1,117.3z M271.8,75.2c6,0.1,11.2-5,11.3-11c0.1-6.3-5.1-11.4-11.1-11.5c-6.2-0.1-11.4,5.1-11.5,11.2
			C260.5,70,265.7,75.3,271.8,75.2z M254.8,90.2c-3.4-2.2-6.2-5-8.6-8.4c-2.2,1.5-4.3,2.9-6.5,4.3c1.2,0.9,1.3,1.2,0.6,2.3
			c0.7,0.9,1.5,1.7,2.2,2.6c0.3,0.3,0.6,0.4,1,0.4c1.2,0.1,2.4,0.1,3.5,0.3c0.5,0.1,1.1,0.3,1.6,0.5c0.6,0.3,0.7,0.8,0,1.2
			c-0.3,0.2-0.7,0.3-1.1,0.4c-0.6,0.1-1.1,0.2-1.9,0.4c1.5,1.1,2.9,2.2,4.3,3.3C251.6,95,253.2,92.6,254.8,90.2z M246.8,46.6
			c-2.2,3.4-3.8,6.9-4.6,10.9c3.2,0.6,6.3,1.3,9.5,1.9c0.6-2.7,1.7-5.1,3.2-7.3C252.1,50.3,249.4,48.5,246.8,46.6z M246.5,80.9
			c2.7-1.8,5.4-3.6,8.1-5.3c-1.5-2.3-2.5-4.7-3.1-7.3c-3.2,0.6-6.3,1.2-9.5,1.8C242.8,74,244.3,77.6,246.5,80.9z M266.7,33.6
			c-4,0.8-7.6,2.2-10.9,4.3c1.8,2.7,3.6,5.4,5.3,8.1c2.3-1.4,4.8-2.4,7.4-2.9C267.8,39.9,267.3,36.8,266.7,33.6z M254.9,76.1
			c-2.7,1.8-5.4,3.6-8.1,5.3c2.3,3.3,5,6,8.3,8.1c1.8-2.7,3.6-5.4,5.3-8C258.3,80,256.5,78.2,254.9,76.1z M279,33.8
			c-0.6,3.2-1.3,6.3-1.9,9.5c2.6,0.6,5,1.7,7.1,3.2c1.8-2.7,3.6-5.3,5.4-8C286.4,36.3,282.9,34.7,279,33.8z M298.3,47.4
			c-2.7,1.8-5.4,3.6-8.1,5.3c1.4,2.2,2.3,4.6,2.9,7.2c3.2-0.6,6.3-1.2,9.5-1.8C301.8,54.2,300.4,50.7,298.3,47.4z M302.4,70.3
			c-3.2-0.6-6.3-1.3-9.5-1.9c-0.6,2.6-1.6,4.9-3,7.1c2.7,1.8,5.3,3.6,8,5.4C300.1,77.7,301.6,74.2,302.4,70.3z M242,58.1
			c-0.7,3.8-0.8,7.6-0.1,11.4c3.2-0.6,6.3-1.2,9.5-1.8c-0.4-2.6-0.4-5.1,0.1-7.7C248.3,59.4,245.2,58.7,242,58.1z M247.1,46.1
			c2.7,1.8,5.3,3.6,8,5.5c1.5-2.1,3.3-3.8,5.5-5.3c-1.8-2.7-3.6-5.4-5.3-8.1C252,40.4,249.3,43,247.1,46.1z M267.2,33.6
			c0.6,3.2,1.2,6.3,1.8,9.5c2.5-0.4,5-0.3,7.5,0.2c0.6-3.2,1.3-6.3,1.9-9.4C275.6,33,270.2,32.9,267.2,33.6z M245.9,81.3
			c-2.3-3.5-3.8-7.2-4.6-11.2c-1.1,0.2-2.2,0.4-3.3,0.6c0.6,0.7,0.6,1-0.3,1.3c-0.6,0.2-1.2,0.4-1.8,0.5c-0.8,0.1-1.6,0.2-2.3,0.3
			c0,0.3,0,0.5,0,0.7c0.3,0,0.6,0,0.8,0.1c0.8,0.2,1.6,0.4,2.2,0.7c1.2,0.6,1.2,1.6,0,2.3c-0.7,0.4-1.4,0.9-2.1,1.3
			c0.5,1.2,1.1,2.4,1.5,3.5c0.1,0.3,0.3,0.4,0.7,0.4c0.8,0,1.7,0.1,2.5,0.2c0.7,0.1,1.3,0.3,1.9,0.6c0.2,0.1,0.5,0.4,0.5,0.6
			s-0.2,0.5-0.5,0.6c-0.3,0.2-0.7,0.3-1.1,0.4c-0.7,0.2-1.4,0.3-2.2,0.4c0.1,0.2,0.2,0.4,0.3,0.5c0.4,0.7,0.7,0.7,1.3,0.3
			c0.6-0.4,1.3-0.9,1.9-1.3C242.9,83.3,244.4,82.3,245.9,81.3z M290.3,89.8c1.7,2.5,3.3,5,4.9,7.5c0.4-0.4,0.8-0.7,1.2-1
			c-0.6-0.7-0.6-1.4,0.3-1.8c0.7-0.3,1.6-0.5,2.4-0.8c0.4-0.1,0.7-0.4,1-0.6c0-0.1-0.1-0.1-0.1-0.2c-0.1,0-0.3,0-0.4,0
			c-0.9-0.1-1.8-0.2-2.8-0.4c-0.5-0.1-1.1-0.3-1.6-0.6c-0.4-0.2-0.4-0.6,0-0.9c0.3-0.2,0.6-0.4,1-0.5c1.6-0.5,3.2-0.6,4.8-0.4
			c1.4,0.2,2.2-0.3,2.9-1.4c0.7-1.1,0.8-1-0.4-1.6c-0.1,0-0.1-0.1-0.2-0.1c-1-0.6-1.2-1.1-0.6-2.1c-1.5-1-3-2-4.5-3.1
			C296.1,85,293.5,87.7,290.3,89.8z M290.2,38.9c-1.8,2.7-3.6,5.3-5.5,8c2,1.5,3.7,3.3,5.1,5.4c2.7-1.8,5.4-3.5,8-5.3
			C296.8,44.8,292.9,40.7,290.2,38.9z M302.5,69.8c0.7-3.7,0.7-7.4,0.1-11.1c-3.2,0.6-6.3,1.2-9.4,1.8c0.1,1.3,0.2,2.5,0.2,3.7
			c0,1.2-0.2,2.4-0.2,3.7C296.2,68.5,299.4,69.1,302.5,69.8z M289.7,76c-1.4,2-3.1,3.7-5.2,5.2c1.8,2.7,3.6,5.4,5.3,8.1
			c3.1-2.1,5.6-4.7,7.8-7.8C294.9,79.6,292.3,77.8,289.7,76z M310.5,76.5c-0.6-0.3-1.2-0.3-1.6-0.7c-0.5-0.5-1.1-0.8-1.7-1.1
			c-1-0.6-1-1.6,0-2.2c0.6-0.3,1.2-0.5,1.8-0.8c-2-0.4-3.9-0.8-5.9-1.2c-0.9,3.9-2.4,7.5-4.6,10.9c1.6,1.1,3.1,2.1,4.6,3.1
			c0.1,0.1,0.2,0.1,0.3,0.1c0.9-0.2,1.9-0.5,2.9-0.7c0-0.1,0-0.4,0-0.6c-0.6-0.1-1.2,0-1.8-0.2c-0.9-0.2-1.9-0.4-2.7-0.7
			c-0.6-0.2-0.6-0.8,0-1.1c0.3-0.2,0.7-0.3,1.1-0.4c1.8-0.4,3.6-0.5,5.4-0.3c0.3,0,0.5,0,0.7-0.3C309.5,78.9,310,77.7,310.5,76.5z
			 M241.2,69.6c-0.7-3.9-0.6-7.8,0.1-11.6c-2.8-0.6-5.6-1.1-8.4-1.7c-0.1,0.7-0.2,1.4-0.4,2c1.2,0.1,2.3,0.1,3.4,0.3
			c0.8,0.1,1.5,0.4,2.3,0.7c0.5,0.2,0.5,0.7,0,1c-0.4,0.2-0.8,0.4-1.2,0.5c-1.1,0.2-2.2,0.3-3.3,0.5c0,0.2,0,0.4,0,0.7
			c0.4,0.1,0.8,0,1.2,0.2c0.7,0.2,1.5,0.5,2.2,0.9c0.8,0.5,0.8,1.3,0,1.9c-0.3,0.2-0.7,0.4-1.1,0.6c-0.1,0.1-0.3,0.1-0.4,0.2
			c-0.4,0.7-1.1,0.9-1.8,1c-0.5,0.1-1,0-1.6,0c0.1,1.2,0.3,2.3,0.4,3.4c1.1,0.1,2.2,0.1,3.2,0.2c0.4,0,0.8,0.2,1.2,0.2
			C238.3,70.1,239.7,69.8,241.2,69.6z M303.4,58.6c0.6,3.8,0.6,7.6-0.1,11.3c2.4,0.5,4.8,1,7.2,1.4c0-0.1,0.1-0.1,0.1-0.2
			c-0.1-0.1-0.2-0.3-0.4-0.3c-0.5-0.1-0.9,0-1.4-0.1c-0.9-0.2-1.8-0.4-2.6-0.6c-0.3-0.1-0.6-0.4-0.6-0.7c0-0.2,0.3-0.5,0.6-0.7
			c0.5-0.2,1.1-0.4,1.6-0.5c1.4-0.2,2.9-0.2,4.4-0.4c0.1-1.4,0.1-2.8,0.2-4.3c-1.1,0.3-2.1,0.4-3-0.1c-0.8-0.5-1.5-1-2.3-1.6
			c-0.7-0.5-0.6-1.3,0.1-1.8c0.4-0.3,0.9-0.5,1.3-0.6c0.7-0.2,1.4-0.3,2.1-0.4c0-0.7,0-0.7-0.7-0.7c-0.4,0-0.9,0-1.3-0.1
			C307,57.7,305.2,58.2,303.4,58.6z M246.1,46.2c-0.6-0.4-1.1-0.8-1.7-1.1c-0.2-0.1-0.6-0.2-0.9-0.2c-1.3,0.1-2.5,0.2-3.3-1
			c0-0.1-0.2-0.1-0.2-0.1c-0.6-0.3-1.2-0.7-1.8-1.1c-0.6,1.1-1.2,2.2-1.9,3.4c0.8,0.1,1.6,0,2.3,0.2c1,0.2,1.9,0.4,2.8,0.7
			c0.6,0.2,0.6,0.8,0,1.1c-0.4,0.2-0.8,0.4-1.2,0.5c-1.1,0.2-2.1,0.3-3.2,0.5c0,0.2,0,0.4,0,0.7c0.2,0,0.4,0,0.5,0
			c1,0.1,2,0.3,2.8,0.9c0.9,0.6,0.9,1.4,0,2.1c-0.3,0.2-0.7,0.3-1,0.5c-0.1,0.1-0.3,0.2-0.4,0.3c-1,1.3-3.7,1.3-4.7,0
			c-0.1-0.1-0.3-0.2-0.5-0.4c-0.2,0.9-0.4,1.7-0.6,2.5c2.9,0.6,5.6,1.1,8.5,1.7C242.3,53.3,243.8,49.6,246.1,46.2z M290.7,38.1
			c1.5,1.3,2.9,2.5,4.3,3.9c1.3,1.4,2.5,2.9,3.7,4.4c2.3-1.5,4.7-3.1,7.1-4.7c-0.5-0.6-0.9-1.2-1.3-1.8c-0.9,0.7-1.8,1.4-2.8,2
			c-1.1,0.6-2.3,0.6-3.3-0.1c-0.7-0.5-1.5-0.9-2.2-1.5c-0.7-0.5-0.6-1.3,0-1.8c0.4-0.3,0.9-0.5,1.3-0.7c0.7-0.2,1.5-0.3,2.2-0.4
			c0-0.2,0-0.4,0-0.7c-0.2,0-0.4,0-0.6,0c-1.3-0.1-2.7-0.2-3.9-0.8c-0.2-0.1-0.5-0.4-0.5-0.6c0-0.2,0.2-0.5,0.5-0.6
			c0.6-0.2,1.3-0.4,1.9-0.6c0.5-0.1,1.1-0.2,1.8-0.3c-1.3-1-2.4-1.9-3.6-2.8C293.9,33.5,292.3,35.8,290.7,38.1z M279.2,33.1
			c4,0.9,7.6,2.5,10.9,4.8c1.1-1.7,2.3-3.3,3.4-4.9c-0.6,0.2-1.2,0.3-1.6,0.7c-1.1,1.1-2.9,1.5-4.2,0.6c-0.7-0.5-1.4-0.9-2.1-1.4
			s-0.7-1.3,0-1.8c0.4-0.3,1-0.6,1.5-0.7c0.7-0.2,1.4-0.3,2-0.4c0-0.2,0-0.5,0-0.7c-0.5,0-0.9,0-1.4-0.1c-1-0.2-2.1-0.4-3.1-0.7
			c-0.2-0.1-0.5-0.4-0.5-0.6s0.3-0.4,0.5-0.6c0.1-0.1,0.3-0.1,0.4-0.2c0.6-0.2,1.1-0.3,1.7-0.5v-0.1c-2-0.6-4-1.2-6-1.8
			c-0.1,0.7-0.3,1.3-0.4,1.8c0,0.1,0,0.3,0.1,0.4c0.9,0.9,0.8,1.5-0.3,2.2c-0.2,0.1-0.4,0.3-0.4,0.4
			C279.7,30.6,279.5,31.8,279.2,33.1z M279.3,29.7c-1.4,1-2.8,1.2-4.1,0.4c-0.7-0.4-1.4-0.9-2-1.4c-0.7-0.5-0.8-1.4,0-1.9
			c0.6-0.4,1.3-0.6,2-0.8c0.5-0.2,1-0.2,1.5-0.2c0-0.2,0-0.5,0-0.7c-0.5,0-1,0-1.5-0.1c-1.2-0.2-2.6-0.1-3.5-1.2
			c-0.1-0.1-0.2-0.1-0.3-0.1c-1.8,0.1-3.5,0.3-5.3,0.4c0,0.1,0,0.1,0,0.2c0.2,0,0.4,0,0.6,0.1c0.8,0.2,1.5,0.4,2.3,0.7
			c0.6,0.3,0.6,0.7,0,1c-0.4,0.2-0.8,0.4-1.2,0.5c-0.6,0.2-1.2,0.2-1.7,0.4c0,0.7,0.2,1.2,1,1.4c0.3,0.1,0.7,0.3,0.9,0.5
			c0.6,0.5,0.6,1.1,0,1.6c-0.3,0.2-0.6,0.4-0.9,0.6c-0.1,0.1-0.3,0.3-0.3,0.4c0,0.4,0.2,0.8,0.2,1.1c2-0.1,3.9-0.3,5.8-0.3
			s3.8,0.3,5.8,0.5C278.9,31.9,279.1,30.9,279.3,29.7z M306.1,42.2c-2.4,1.6-4.8,3.2-7.2,4.8c2.2,3.4,3.6,7.1,4.4,11
			c0.9-0.2,1.7-0.3,2.6-0.5c-0.3-0.7-0.2-0.9,0.4-1.1c1-0.3,2-0.5,3-0.7c0.7-0.1,1.4-0.1,2.3-0.1c-0.4-1.3-0.7-2.6-1.1-4
			c-0.6,0.4-1,0.8-1.4,1.1c-0.8,0.7-2.6,0.9-3.7,0.3c-0.8-0.5-1.6-1-2.3-1.6c-0.6-0.5-0.6-1.2,0-1.7c0.4-0.3,1-0.6,1.5-0.8
			c0.7-0.2,1.4-0.3,2.1-0.4c0-0.2,0-0.5,0-0.7c-0.5,0-0.9,0-1.4-0.1c-1.1-0.2-2.2-0.4-3.2-0.8c-0.6-0.2-0.6-0.8,0-1.1
			c0.5-0.3,1.1-0.5,1.7-0.6c1.3-0.2,2.5-0.3,3.9-0.4C307.2,44,306.7,43.2,306.1,42.2z M289.1,100.5L289.1,100.5
			c-0.6-0.2-1.3-0.2-1.9-0.3c-0.8-0.2-1.7-0.4-2.4-0.7c-0.6-0.3-0.6-0.7,0-1.1c0.3-0.2,0.6-0.3,1-0.4c2.2-0.6,4.4-0.5,6.7-0.2
			c0.3,0.1,0.7,0.3,1.1,0.5c0.3-0.2,0.7-0.4,1.2-0.7c-1.6-2.5-3.2-5-4.9-7.5c-2.3,1.5-4.7,2.8-7.3,3.7c0.8,2.8,1.7,5.5,2.5,8.3
			C286.4,101.6,287.7,101.1,289.1,100.5z M289.4,89.5c-1.8-2.7-3.6-5.4-5.3-7.9c-1.6,0.8-3.1,1.6-4.6,2.4c0.9,3,1.8,6.1,2.8,9.1
			C284.1,92.6,287.8,90.7,289.4,89.5z M255.2,90.6c-1.6,2.4-3.1,4.7-4.8,7.3c0.4,0,0.7,0.1,0.9,0.1c1.4-0.1,2.7-0.3,4.1-0.2
			c0.9,0,1.9,0.3,2.8,0.7c0.7,0.3,0.7,0.8,0,1.2c-0.4,0.2-0.7,0.3-1.1,0.4c-0.5,0.1-1.1,0.2-1.6,0.3v0.1c1.3,0.5,2.6,1,3.9,1.6
			c0.9-2.8,1.9-5.5,2.7-8C259.7,92.9,257.5,91.8,255.2,90.6z M251,32c-0.4-1-1.3-1.3-2.2-0.6c-2,1.4-3.9,3.1-5.6,4.9
			c-0.1,0.1-0.2,0.3-0.4,0.4c0.7,0.1,1.4,0,2,0.2c0.9,0.2,1.9,0.4,2.8,0.7c0.6,0.2,0.6,0.8,0,1.1s-1.3,0.5-1.9,0.6
			c-0.8,0.2-1.7,0.2-2.6,0.3c0,0.2,0,0.5,0,0.6c0.9,0.2,1.8,0.4,2.6,0.7c0.7,0.2,1.4,0.6,1.3,1.4c0,0.8-0.7,1.1-1.3,1.4
			c-0.4,0.2-0.7,0.5-1.2,0.8c0.7,0.5,1.3,0.9,1.9,1.3c2.3-3.2,5.1-5.9,8.3-8.1c-0.2-0.3-0.4-0.6-0.6-0.9c-0.2-0.3-0.4-0.4-0.7-0.2
			c-0.9,0.3-1.9,0.4-2.8-0.1c-0.9-0.5-1.7-1.1-2.5-1.7c-0.6-0.5-0.5-1.2,0-1.6c0.3-0.2,0.6-0.4,0.9-0.6
			C249.8,32.3,250.4,32.2,251,32z M257.9,114.5c9.3,0,18.5,0,27.7,0c-0.2-0.1-0.4-0.1-0.6-0.2c-6.1-0.9-12.1-1.9-18.2-2.8
			c-2.4-0.4-4.7-0.7-7.1-1.1c-0.2,0-0.5,0.1-0.6,0.2C258.8,111.9,258.4,113.2,257.9,114.5z M261,81.9c-1.7,2.6-3.5,5.3-5.3,8
			c2.1,1.3,4.2,2.5,6.6,3.2c1.1-3.1,2.1-6.1,3.1-9C263.9,83.4,262.5,82.6,261,81.9z M253.7,28.3v0.1c0.2,0,0.3,0,0.5,0.1
			c1,0.2,1.9,0.4,2.9,0.7c0.2,0.1,0.5,0.4,0.5,0.6s-0.3,0.5-0.5,0.6c-0.3,0.2-0.7,0.3-1.1,0.4c-1.1,0.2-2.2,0.3-3.3,0.5
			c0,0.2,0,0.4,0,0.7c0.2,0,0.4,0,0.5,0.1c0.9,0.3,1.9,0.4,2.7,0.9c1,0.5,0.9,1.4,0,2.1c-0.3,0.2-0.7,0.3-1,0.5
			c-0.2,0.1-0.4,0.5-0.4,0.7c0.2,0.4,0.5,0.8,0.7,1.1c1.9-0.9,3.6-1.9,5.5-2.6c1.9-0.7,3.8-1.2,5.7-1.8c-0.1-0.3-0.1-0.6-0.2-1
			c-1.5,0.8-2.8,1-3.9,0.4c-0.8-0.5-1.6-1-2.3-1.6c-0.6-0.5-0.6-1.2,0-1.7c0.3-0.3,0.7-0.5,1.2-0.6c0.8-0.2,1.6-0.4,2.4-0.5
			c0.1-0.7,0.1-0.7-0.6-0.7c-1.4-0.1-2.8-0.2-4-0.8c-0.1-0.1-0.3,0-0.5,0c-0.9,0.4-1.9,0.7-2.8,1.1C255.1,27.6,254.4,28,253.7,28.3z
			 M289.6,53.1c-2.5,1.7-5,3.3-7.3,4.9c0.5,1.2,0.9,2.4,1.3,3.7c2.8-0.5,5.8-1.1,8.7-1.6C291.8,57.5,290.9,55.3,289.6,53.1z
			 M282.1,70.1c2.4,1.6,4.8,3.3,7.3,5c1.1-1.4,2.7-5,2.8-6.8c-2.9-0.6-5.8-1.2-8.7-1.8C283,67.7,282.6,68.9,282.1,70.1z M277,44.1
			c-0.1,0.3-0.1,0.7-0.2,1c-0.5,2.3-1,4.7-1.4,7c0,0.2,0,0.5,0.2,0.5c1.1,0.5,2.3,1.1,3.5,1.6c1.6-2.3,3.2-4.7,4.8-7.1
			C282.6,46,278.8,44.3,277,44.1z M266,53.4c1.4-0.5,2.7-0.9,4.1-1.4c-0.5-2.7-1-5.4-1.5-8.2c-2.6,0.5-4.9,1.4-7.1,2.8
			C263,48.9,264.5,51.2,266,53.4z M252.3,68.1c0.6,2.6,1.5,4.9,3,7.1c2.3-1.5,4.5-3,6.7-4.4c-0.6-1.4-1.2-2.7-1.8-4.1
			C257.6,67.1,255,67.6,252.3,68.1z M260.1,61.1c0.6-1.4,1.2-2.7,1.8-4.1c-2.1-1.5-4.4-3-6.6-4.5c-1.5,2.2-2.5,4.5-3,7.1
			C255,60.1,257.6,60.6,260.1,61.1z M283.6,62.2c0,1.2,0,2.4,0,3.7c2.9,0.6,5.8,1.2,8.7,1.8c0.5-1.5,0.6-5.8,0.1-7.1
			C289.5,61.1,286.5,61.7,283.6,62.2z M261,80.9c1.5-2.3,3-4.6,4.5-6.8c-1.1-1-2.1-1.9-3.2-2.9c-2.2,1.5-4.5,3-6.7,4.5
			C257,77.8,258.8,79.5,261,80.9z M281.9,57.5c2.4-1.6,4.9-3.2,7.3-4.9c-1.4-2-3-3.7-5-5.2c-1.7,2.4-3.3,4.8-4.9,7.2
			C280.3,55.6,281.1,56.5,281.9,57.5z M274.7,52.3c0.6-2.7,1.1-5.5,1.7-8.3c-1.5-0.5-5.5-0.6-7.2-0.2c0.5,2.7,1,5.5,1.5,8.2
			C272,52.1,273.3,52.2,274.7,52.3z M281.2,106.7c0.1,0.9,0,1.3-0.8,1.7c-0.2,0.1-0.5,0.2-0.7,0.3c-0.1,0.1-0.3,0.2-0.4,0.3
			c-0.6,1.1-3.4,1.4-4.5,0.3c-0.4-0.4-0.7-0.6-1.2-0.8c-0.2-0.1-0.3-0.2-0.5-0.3c-0.2-0.1-0.5-0.2-0.7-0.2c-1.9,0.3-3.8,0.6-5.6,0.9
			c-0.4,0.1-0.8,0.3-1.1,0.5c0,0.1,0,0.1,0.1,0.2c6.5,1,13,2,19.6,3.1c-0.7-2.2-1.3-4.2-1.9-6.3C282.7,106.5,282,106.6,281.2,106.7z
			 M265.5,53.7c-1.5-2.2-3-4.5-4.5-6.8c-2.1,1.4-3.8,3.1-5.3,5.1c2.2,1.5,4.5,3.1,6.6,4.6C263.4,55.6,264.4,54.7,265.5,53.7z
			 M260,61.7c-2.6-0.5-5.2-1-7.8-1.6c-0.5,1.7-0.5,5.7,0,7.4c2.6-0.5,5.2-1,7.8-1.5C260,64.6,260,63.2,260,61.7z M281.7,70.6
			c-0.9,0.9-1.7,1.8-2.5,2.7c1.6,2.4,3.2,4.8,4.8,7.3c2-1.4,3.6-3,4.9-5C286.6,73.9,284.1,72.2,281.7,70.6z M265.9,99.9L265.9,99.9
			c1.6,0.5,3.2,0.8,4.7,1.2c1.8,0.5,3.6,0.9,5.5,0.6c1-0.2,2.1,0,3.2,0c-0.3-1.3-0.5-2.7-0.8-4.2C274.3,98.4,270.1,99.2,265.9,99.9z
			 M276.7,74.8c0.9,2.8,1.7,5.6,2.6,8.5c1.5-0.8,2.9-1.5,4.4-2.3c-1.7-2.6-3.3-5-4.9-7.4C278.1,74,277.4,74.4,276.7,74.8z
			 M265.7,83.4c1-2.8,1.9-5.4,2.8-8.1c-0.8-0.3-1.6-0.7-2.4-1c-1.5,2.3-3,4.6-4.6,6.9C262.9,82,264.2,82.7,265.7,83.4z M268,91.2
			L268,91.2c3.3,1,6.6,2,10,2.9c-0.4-1.9-0.7-3.7-1.1-5.6C273.9,89.5,270.9,90.4,268,91.2z M266,98.3c4.1-0.8,8.1-1.5,12.1-2.2
			c-1.1-0.4-2.1-0.8-3.3-0.7c-1.7,0.1-3.4,0.1-5.1,0c-1,0-2-0.2-3.1-0.3C266.4,96.1,266.2,97.1,266,98.3z M276.1,87.2L276.1,87.2
			c-2.4-0.9-4.8-1.7-7.3-2.5c-0.3,1.7-0.7,3.3-1,4.9C270.6,88.8,273.3,88,276.1,87.2z M270.2,83.4c1.9,1,3.8,1.3,5.9,0.6
			c-0.1-0.8-0.3-1.6-0.5-2.4C273.8,82.1,272,82.7,270.2,83.4z M270.5,77.7c1.5,0.4,3,0.7,4.5,1.1c-0.3-1.1-0.7-2.2-0.9-3.1
			c-0.9,0-1.8,0-2.7,0c-0.1,0-0.3,0.1-0.3,0.3C270.9,76.5,270.7,77.1,270.5,77.7z M279.2,97.5c0.3,1.5,0.5,2.8,0.8,4.2
			c0,0.1,0.2,0.3,0.3,0.4c0.6,0.2,1.3,0.4,1.9,0.6c-0.6-1.8-1.1-3.7-1.7-5.5C280.1,97.3,279.7,97.4,279.2,97.5z M273.6,94.9
			c0-0.1,0-0.2,0-0.2c-2.1-0.6-4.3-1.2-6.5-1.8c-0.1,0.5-0.2,1-0.3,1.6C269.1,94.6,271.3,94.7,273.6,94.9z M264.7,94.6
			c-0.5,1.4-0.9,2.7-1.4,4.1c0.6-0.1,1.2-0.2,1.7-0.3c0.1,0,0.3-0.2,0.4-0.3c0.2-1.1,0.4-2.1,0.7-3.3
			C265.6,94.8,265.2,94.7,264.7,94.6z M270,79.2c-0.2,0.9-0.5,1.7-0.8,2.7c1.7-0.6,3.2-1.1,4.7-1.6v-0.1
			C272.6,79.9,271.4,79.6,270,79.2z M295.1,30.8c-0.9-0.6-1.8-1.1-2.7-1.6c-0.1,0-0.1-0.1-0.2-0.1c-0.7,0.1-1.4,0.1-2.2,0.2
			c0,0.2,0,0.4,0,0.7c0.2,0,0.4,0,0.6,0.1c0.8,0.2,1.5,0.3,2.3,0.6c0.6,0.2,1.1,0.7,1.1,1.6C294.4,31.7,294.7,31.3,295.1,30.8z
			 M268.7,107c1.3-0.2,2.8-0.4,4.2-0.7c0.2,0,0.4-0.2,0.7-0.4c-2.2-0.1-4.2-0.2-6.2-0.3C267.7,106.1,268.1,106.5,268.7,107z
			 M279.6,93.9c-0.6-1.9-1.1-3.7-1.7-5.5c-0.1,0-0.1,0-0.2,0c0,0.2-0.2,0.3-0.1,0.5c0.2,1.1,0.4,2.2,0.6,3.4
			c0.1,0.6,0.2,1.2,0.4,1.9C279,94,279.3,94,279.6,93.9z M272.4,104c-0.2-0.2-0.6-0.6-0.9-0.9c-0.1-0.1-0.1-0.1-0.2-0.1
			c-0.7-0.2-1.4-0.3-2.2-0.5c0.5,1-0.4,1.1-0.8,1.5C269.8,104,271.2,104,272.4,104z M277.4,25.8c0.9,0.2,1.7,0.3,2.6,0.5
			c0.1-0.5,0.2-1,0.3-1.5c-0.5,0.1-1,0.1-1.5,0.2s-1,0.1-1.5,0.1c0,0.2,0,0.3,0,0.4C277.4,25.7,277.4,25.7,277.4,25.8z M242.4,39.6
			c-1.9-0.2-2.4,0-2.9,1.2c0.9-0.2,1.9-0.4,2.9-0.6C242.4,40,242.4,39.8,242.4,39.6z M265,93.9c0.5,0.1,0.8,0.2,1.2,0.3
			c0.1-0.5,0.2-1,0.3-1.5c-0.4-0.1-0.7-0.2-1-0.3C265.3,92.9,265.2,93.4,265,93.9z M266.4,89.9c0.5,0,0.8-0.1,0.8-0.6
			c0.2-1,0.4-1.9,0.6-2.9c0-0.2,0.1-0.4,0.1-0.7h-0.1C267.3,87.1,266.8,88.5,266.4,89.9z M309.6,48.9c-0.4-1.1-0.4-1.1-1.5-1.1
			c-0.2,0-0.4,0-0.6,0c0,0.3,0,0.5,0,0.7C308.2,48.7,308.9,48.8,309.6,48.9z M300.5,37.5c0.8,0.1,1.5,0.3,2.3,0.4
			c-0.8-1.2-1.1-1.3-2.3-1C300.5,37,300.5,37.2,300.5,37.5z M263.8,105.1c-0.9-0.2-1.6-0.4-2.4-0.6c-0.1,0.4-0.3,0.8-0.4,1.1
			C261.9,105.5,262.8,105.3,263.8,105.1z M236.2,49c-1.1-0.1-1.2-0.1-1.4,0.9c0.5,0,0.9-0.1,1.4-0.1C236.2,49.4,236.2,49.2,236.2,49
			z M262.6,101c-0.1,0.2-0.1,0.4-0.2,0.6c0.8,0,1.5,0,2.3,0v-0.1C264,101.3,263.3,101.1,262.6,101z M265.7,27.9
			c-0.1-0.3-0.1-0.6-0.2-0.9c-0.4,0-0.7,0.1-1,0.1c0,0.3,0,0.5,0,0.7C264.9,27.8,265.2,27.9,265.7,27.9z M312.2,59.2
			c0.1-0.1,0.1-0.1,0.2-0.2c-0.2-0.2-0.4-0.6-0.5-0.6c-0.6,0-0.3,0.4-0.3,0.7C311.8,59.1,312,59.2,312.2,59.2z M275,84.9L275,84.9
			c0.4,0.2,0.8,0.4,1.3,0.5c-0.1-0.3-0.1-0.5-0.2-0.7C275.8,84.8,275.4,84.9,275,84.9z M232.3,61.9c0.2,0,0.4,0,0.5,0
			c0-0.3,0-0.5,0-0.7C232.2,61.1,232.2,61.1,232.3,61.9z M311.2,70.9c0.2,0.3,0.3,0.5,0.4,0.7c0.1-0.2,0.3-0.4,0.5-0.7
			C311.7,70.9,311.6,70.9,311.2,70.9z"/>
		<path class="st0" d="M274.1,58.3c1.6-0.7,3.3-0.6,4.8,0.1c2.7,1.2,3.9,4.2,2.8,7.1c-1,2.8-3.2,4.6-6,5.4c-2,0.6-4,0.8-6,1.2
			c-0.2,0-0.5,0.1-0.7,0.1c-0.3,0-0.6-0.1-0.8-0.3c-1.3-1.8-2.8-3.5-4-5.4c-1.4-2.1-1.8-4.5-1.1-6.9c0.7-2.2,2.2-3.6,4.5-4.1
			s4.2,0.2,5.8,2C273.7,57.8,273.9,58.1,274.1,58.3z M263.5,61.3c0.1,0,0.1,0.1,0.2,0.1c0.1-0.1,0.3-0.2,0.4-0.2
			c2-1.2,5.4-0.7,6.9,1c0.6,0.7,1.1,0.9,2,0.8c2.7-0.3,4.8,1.1,6,3.6c0.2,0.4,0.3,0.8,0.6,1.3c0.4-0.5,0.7-0.9,0.9-1.4
			c0.1-0.2,0.1-0.4,0.1-0.6c-0.6-2.6-2.2-4.4-4.8-5c-0.9-0.2-2-0.1-3-0.2c-0.7-1-1.9-1.7-3.1-2.2c-1.6-0.6-3.2-0.7-4.8,0
			c-0.3,0.1-0.6,0.3-0.7,0.6C263.9,59.8,263.7,60.6,263.5,61.3z M265.8,67.8c0.2,0,0.3-0.1,0.4-0.1c1.3-0.4,2.5-0.4,3.6,0.5
			c0.2,0.2,0.5,0.2,0.8,0.2c1.8-0.1,3,0.6,3.6,2.4c0.6-0.2,1.2-0.4,1.8-0.6c0.4-0.1,0.7-0.3,1-0.4c-0.2-1.6-1.5-2.9-3.5-3.3
			c-1-0.2-2.1-0.4-3,0.1c-0.1-0.2-0.2-0.5-0.4-0.7c-0.4-0.4-0.9-0.8-1.4-1.1c-1.5-0.7-3.4-0.4-4.5,0.6
			C264.8,66.2,265.3,67,265.8,67.8z"/>
	</g>
	<g>
		<g>
			<path class="st0" d="M445.5,120c0-0.1,0-0.2,0-0.3c0-6.8,0-13.6,0-20.5c0-0.2,0-0.4,0.2-0.5c0.3-0.2,0.2-0.5,0.2-0.7
				c0-1.3,0-2.5,0-3.8c0-0.1,0-0.2-0.1-0.3c-0.2-0.3-0.3-0.5-0.2-0.9c0.2-1.3,0.4-2.5,0.6-3.8c0.2-1.6,0.5-3.1,0.7-4.7
				c0-0.3,0-0.6,0-0.9c0.4,0,0.7,0,1.1,0c0,0.3,0,0.6,0,0.9c0.3,0,0.5,0,0.8,0c-0.1-0.6,0.2-1.3-0.2-1.9c-0.1-0.2-0.1-0.5,0-0.8
				c0.1-0.2,0.1-0.3,0.1-0.5c0-3.5,0-7,0-10.4c0-0.2,0-0.4-0.1-0.5c-0.1-0.3,0-0.7,0.3-0.9c0.2-0.1,0.2-0.3,0.2-0.4
				c0-0.5,0-1.1,0-1.6c0-0.1,0.1-0.3,0.2-0.4c0.7-0.6,0.9-1.3,0.8-2.1c0-0.4,0-0.8,0-1.2c0-0.1,0-0.2,0.1-0.2c0.3-0.3,0.5-0.7,0.8-1
				c0.1,0.1,0.2,0.3,0.3,0.4c-0.1-0.9,0.1-1.6,0.8-2.2c0.5-0.5,1-0.7,1.7-0.7c0.8,0,1.4,0.3,1.9,0.9c0.5,0.6,0.7,1.3,0.6,2
				c0.1-0.1,0.2-0.2,0.3-0.4c0.4,0.4,0.7,0.8,1.1,1.2c0,0,0,0.1,0,0.2c0,0.8,0,1.6,0,2.5c0,0.2,0,0.4,0.2,0.5
				c0.4,0.3,0.5,0.6,0.4,1.1c0,0.3,0,0.6,0,0.9s0,0.6,0.3,0.8c0.3,0.2,0.3,0.6,0.1,1c-0.1,0.1-0.1,0.3-0.1,0.5c0,0.6,0,1.2,0,1.8
				c0,0.2,0,0.3,0,0.6c0.4-0.3,0.7-0.6,1-0.8c1.7-1.4,3.4-2.8,5.1-4.3c0.1-0.1,0.2-0.2,0.3-0.3c0.2-0.2,0.4-0.2,0.6,0
				c0.9,0.7,1.7,1.4,2.6,2.2c1.2,1,2.4,2,3.6,2.9c0.1,0,0.1,0.1,0.2,0.2c0-0.5,0-0.9,0-1.3s0-0.7,0-1.1c0-0.2,0-0.3-0.1-0.4
				c-0.1-0.4,0-0.7,0.3-1c0.1-0.1,0.2-0.2,0.2-0.3c0-0.6,0-1.2,0-1.8c0-0.1,0.1-0.3,0.1-0.4c0.2-0.2,0.4-0.5,0.6-0.7
				s0.2-0.4,0.2-0.7c0-0.7,0-1.3,0.1-2c0-0.1,0-0.1,0.1-0.2c0.3-0.3,0.5-0.7,0.8-1c0.1,0.1,0.2,0.2,0.3,0.3c0-1.7,0.8-2.8,2.6-2.9
				c0.5,0,0.9,0.2,1.3,0.4c0.4,0.3,0.7,0.6,0.9,1.1c0.1,0.4,0.2,0.9,0.2,1.4c0.1-0.1,0.2-0.2,0.3-0.4c0.4,0.4,0.7,0.8,1.1,1.2
				c0.1,0.1,0.1,0.2,0.1,0.3c0,0.8,0,1.6,0,2.5c0,0.2,0,0.4,0.2,0.5c0.4,0.3,0.5,0.6,0.4,1c0,0.4,0,0.9,0,1.4c0,0.1,0.1,0.2,0.2,0.3
				c0.4,0.3,0.5,0.7,0.2,1.1c-0.1,0.1-0.1,0.2-0.1,0.4c0,3.5,0,7.1,0,10.6c0,0.8,0,1.6,0,2.5c0,0.6,0,0.6,0.6,0.5c0,0,0.1,0,0.2,0
				c0-0.3,0-0.6,0-0.9c0.4,0,0.7,0,1,0c0.4,2.3,0.8,4.5,1.2,6.7c0.2,0.8,0.3,1.7,0.5,2.5c0.1,0.3,0,0.5-0.1,0.8
				c-0.1,0.1-0.1,0.3-0.1,0.4c0,1.1,0,2.2,0,3.3c0,0.3,0,0.7,0,1c0,0.1,0,0.2,0.1,0.2c0.2,0.1,0.2,0.3,0.2,0.6c0,6.8,0,13.6,0,20.4
				c0,0.1,0,0.2,0,0.4C472.3,120,458.9,120,445.5,120z M472.3,101.2c0-3.7-2.9-6.6-6.6-6.6c-3.8,0-6.7,3.2-6.5,6.9
				c0.2,3.1,2.8,6.2,6.6,6.2C469.4,107.7,472.3,104.8,472.3,101.2z"/>
			<path class="st0" d="M471.9,101.2c0,3.4-2.8,6.2-6.1,6.2c-3.4,0-6.2-2.7-6.2-6.2c0-3.4,2.8-6.2,6.2-6.2
				C469.1,95,471.9,97.8,471.9,101.2z M465.8,107c3.2,0,5.8-2.6,5.7-5.9c0-3.2-2.8-5.7-5.9-5.6s-5.7,2.6-5.6,5.9
				C460,104.4,462.6,107,465.8,107z"/>
			<path class="st0" d="M465.8,95.8c3,0,5.4,2.4,5.4,5.4s-2.4,5.4-5.4,5.4c-3.2,0-5.4-2.6-5.4-5.4C460.4,98.2,462.8,95.8,465.8,95.8
				z M470.6,101.2c0-2.7-2.2-4.9-4.9-4.9c-2.7,0-4.9,2.2-4.9,4.9c0,2.7,2.2,4.9,4.8,4.9C468.4,106.1,470.6,103.9,470.6,101.2z"/>
			<path class="st0" d="M470.3,101.2c0,2.5-2.1,4.5-4.6,4.5c-2.4,0-4.5-2.1-4.4-4.5c0-2.5,2.1-4.5,4.6-4.5
				C468.3,96.7,470.3,98.7,470.3,101.2z M465.8,103.3c1.1,0,2.1-0.9,2.1-2.1c0-1.1-0.9-2-2-2s-2,0.9-2,2
				C463.8,102.4,464.7,103.3,465.8,103.3z M465.9,103.6c-0.5,0-0.9,0.4-1,0.9c0,0.5,0.4,1,0.9,1s0.9-0.4,0.9-0.9
				C466.8,104,466.4,103.6,465.9,103.6z M465.6,98.1c0-0.5-0.4-0.9-0.9-0.9s-1,0.4-0.9,1c0,0.5,0.5,0.9,1,0.9
				C465.2,99.1,465.6,98.6,465.6,98.1z M461.6,101.8c0,0.5,0.4,0.9,0.9,0.9s0.9-0.4,0.9-0.9s-0.4-1-1-1
				C462,100.9,461.6,101.3,461.6,101.8z M468.6,100.5c0.5,0,0.9-0.4,1-0.9c0-0.5-0.4-1-0.9-1s-0.9,0.4-0.9,0.9
				C467.7,100,468.1,100.5,468.6,100.5z M469,102.7c0.5,0,0.9-0.4,1-0.9c0-0.5-0.4-1-1-0.9c-0.5,0-0.9,0.4-0.9,0.9
				C468.1,102.3,468.5,102.7,469,102.7z M463.7,104.7c0.5,0,0.9-0.4,0.9-0.9s-0.4-1-1-1c-0.5,0-0.9,0.5-0.9,1
				C462.8,104.3,463.2,104.7,463.7,104.7z M467.9,102.8c-0.5,0-1,0.4-1,0.9s0.4,0.9,0.9,0.9s1-0.4,1-0.9
				C468.9,103.2,468.5,102.8,467.9,102.8z M466.9,97.2c-0.5,0-0.9,0.4-0.9,0.9s0.4,0.9,0.9,1c0.5,0,1-0.4,1-1
				C467.8,97.6,467.4,97.2,466.9,97.2z M462,99.6c0,0.5,0.4,0.9,0.9,0.9s0.9-0.4,0.9-0.9s-0.4-1-1-1C462.4,98.7,462,99.1,462,99.6z"
				/>
		</g>
	</g>
	<path class="st3" d="M379.7,119.2c0-0.1-0.1-0.1-0.1-0.1c-0.4-0.3-0.4-0.6-0.4-1.1c0-1.1,0-2.3,0-3.4c0-0.9-0.1-1.8-0.1-2.7
		c0-2.2,0-4.4-0.1-6.6c0-0.1,0-0.2,0-0.3c0-0.2,0-0.5,0-0.7c0-0.1,0-0.3,0-0.4c0-0.9,0-1.8,0-2.8c0-0.3,0-0.6,0-0.9
		c0-0.2,0-0.3,0-0.5c0-0.4,0.2-0.8,0.5-1c-0.2-0.2-0.4-0.2-0.6-0.2c-0.4-0.1-0.5-0.2-0.5-0.6s0-0.9,0-1.3c0-3.4,0-6.8,0-10.2
		c0-0.3,0.1-0.6,0.3-0.9c0.2-0.3,0.2-0.3-0.1-0.5c-0.4-0.2-0.6-0.5-0.5-1c0-0.4,0-0.9,0-1.3c0-1.1,0-2.1,0-3.2c0-1,0-2.1,0-3.1
		c0-0.5-0.1-1-0.1-1.5c0-0.9,0-1.8,0-2.6c0-0.2,0-0.4,0.2-0.6s0.3-0.4,0.5-0.7c-0.2-0.1-0.3-0.2-0.4-0.3c-0.4-0.2-0.5-0.5-0.5-0.9
		c0-0.8,0-1.6,0-2.4c0-1.5-0.1-2.9-0.1-4.4c0-1.6-0.1-3.1-0.1-4.7c0-0.7,0-1.4,0-2.2c0-0.1,0.1-0.2,0.1-0.3c0.2-0.3,0.5-0.5,0.6-0.8
		c-0.3,0-0.4-0.2-0.5-0.4c-0.4-0.7-0.4-1.4-0.4-2.2c0-0.2,0-0.3,0-0.5s0.1-0.4,0.1-0.7c0-0.2,0-0.3,0-0.5s-0.1-0.5-0.1-0.7
		s0-0.4-0.1-0.6c-0.1-0.3-0.4-0.5-0.3-0.8c0-0.5,0-1,0-1.5c0-1,0-2,0-2.9c0-0.2,0-0.4,0.2-0.6c0.2-0.2,0.5-0.4,0.7-0.6
		c0.1-0.1,0.1-0.1,0.2-0.2c-0.1-0.1-0.2-0.1-0.3-0.2c-0.1,0-0.2,0-0.3,0c-0.1,0-0.2-0.1-0.2-0.1c0-0.3-0.2-0.4-0.3-0.6
		c-0.1-0.1-0.1-0.3-0.1-0.4c0-0.3,0-0.6,0-0.9c0-0.3,0-0.5-0.4-0.6c0-0.2,0.1-0.4,0.1-0.5c0-1.6,0-3.2,0-4.8c0-0.2,0-0.4,0.2-0.6
		c0.1-0.1,0.1-0.2,0.1-0.4c0-0.5,0-1.1,0-1.6c0-0.1,0-0.2,0-0.3c0.2-0.4,0.2-0.9,0.1-1.3c0-0.3,0-0.5,0.2-0.7s0.3-0.4,0.5-0.6
		c-0.6-0.4-0.8-1.1-1-1.8c-0.1-0.3-0.1-0.7-0.3-1.1c-0.2-0.4-0.2-0.8-0.2-1.2c0-0.9,0-1.8,0.1-2.6c0-0.4-0.2-0.8-0.2-1.2
		c0,0-0.1-0.1-0.2-0.2c0,0.2-0.1,0.3-0.1,0.4s-0.1,0.2-0.2,0.2c-0.3,0-0.6,0.1-0.8,0c-0.2-0.5-0.4-0.9-0.5-1.3
		c-0.1-0.2-0.2-0.5-0.3-0.7c-0.2-0.6-0.4-1.2-0.6-1.8c-0.1-0.2-0.2-0.5-0.3-0.7c-0.2-0.5-0.3-1-0.5-1.5c-0.1-0.2-0.2-0.4-0.2-0.6
		c-0.2-0.5-0.3-1-0.5-1.4c-0.1-0.2-0.2-0.5-0.2-0.7c-0.2-0.5-0.4-1-0.6-1.5c-0.1-0.4-0.3-0.7-0.5-0.9c0-0.1,0.1-0.2,0.1-0.4
		c-0.1,0-0.2,0-0.3,0c-0.1,0-0.3,0-0.3-0.2s0.1-0.2,0.2-0.2c0.3,0,0.4-0.1,0.4-0.3s0-0.5,0-0.8c-0.1,0-0.2,0.1-0.4,0.1
		c-0.1-0.4-0.3-0.7-0.4-1.1c0-0.2,0-0.4,0.2-0.5c0.1,0,0.1-0.1,0.2-0.2c-0.2-0.2-0.4-0.2-0.3-0.5c0-0.1-0.3-0.2-0.3,0
		c-0.1,0.3-0.3,0.4-0.5,0.6c0.1,0,0.1,0.1,0.1,0.1c0.4,0.2,0.4,0.4,0.3,0.8c0,0.1-0.1,0.2-0.1,0.3c0,0.2,0,0.3-0.2,0.5
		s-0.3,0-0.5,0.1c0,0.3-0.1,0.6,0.2,1c0.1,0.2,0.1,0.5,0,0.7c-0.2,0.4-0.2,0.9-0.4,1.3c-0.1,0.2-0.2,0.3-0.2,0.5
		c-0.2,0.6-0.3,1.2-0.5,1.9c-0.1,0.2-0.1,0.5-0.2,0.7c-0.2,0.3-0.2,0.7-0.4,1c-0.2,0.3-0.2,0.7-0.3,1.1c-0.1,0.3-0.2,0.5-0.3,0.8
		c-0.1,0.3-0.2,0.5-0.3,0.8c-0.1,0.4-0.2,0.8-0.3,1.2c-0.2,0.6-0.4,1.2-0.6,1.8c0,0.1-0.1,0.2-0.2,0.2c-0.3,0-0.6,0-0.8,0
		c-0.1-0.2-0.1-0.4-0.2-0.7c-0.1,0.1-0.3,0.2-0.3,0.3c0,0.3-0.2,0.6-0.2,0.9c0,0.5-0.2,1.1,0.2,1.6c0,0.1,0,0.1,0,0.2
		c0,0.7,0,1.4,0,2c0,0.2,0,0.4-0.1,0.6c-0.1,0.5-0.3,0.9-0.4,1.4s-0.4,0.9-0.8,1.1c-0.2,0.1-0.3,0.2-0.1,0.4
		c0.1,0.1,0.1,0.1,0.2,0.2c0.2,0.2,0.3,0.4,0.3,0.8c0,1,0,2.1,0,3.1c0,0.1,0,0.3,0.1,0.4c0.2,0.6,0.4,1.2,0.3,1.8c0,0.3,0,0.6,0,0.9
		c0,1.1,0,2.2,0,3.3c0,0.2,0,0.4-0.2,0.6c-0.1,0.1-0.1,0.3-0.1,0.4c0,0.5,0.2,1-0.3,1.3c0,0.3-0.2,0.4-0.5,0.6
		c0.1,0.1,0.2,0.2,0.3,0.3c0.3,0.3,0.4,0.6,0.4,1.1c0,0.7,0,1.4,0,2.1c0,0.1-0.1,0.2-0.1,0.3c-0.4-0.5-0.7-0.9-1-1.3
		c-1.5-2-3.1-4-4.6-6c-0.8-1.1-1.7-2.2-2.5-3.3c-0.6-0.8-1.3-1.7-1.9-2.5c-0.3-0.4-0.5-0.7-0.4-1.2c0-0.3-0.1-0.6-0.2-0.8
		c-0.1-0.3-0.2-0.6,0.1-0.9c0.2-0.2,0.1-0.9-0.1-1.1c-0.3-0.2-0.4-0.6-0.4-1c0-0.3,0.1-0.3,0.3-0.3c0.1,0,0.3,0.1,0.3-0.1
		c0-0.1,0-0.2,0-0.3c-0.2,0-0.3,0-0.5,0c0-0.2,0-0.3,0-0.5c-0.1,0-0.3,0-0.4,0.1c0,0.2,0,0.3,0,0.4c-0.1,0-0.2,0-0.3,0
		c-0.2,0-0.3,0-0.3,0.2s0.2,0.3,0.3,0.2c0.1,0,0.1,0,0.2,0c0,0.2,0,0.3,0,0.4c0,0.2-0.1,0.4-0.1,0.6c-0.6,0.4-0.7,0.8-0.4,1.4
		c0.1,0.1,0.1,0.2,0.1,0.4c0,0.2-0.1,0.5-0.1,0.7c-0.1,0.3-0.1,0.5,0,0.8s0,0.6-0.2,0.8c-0.6,0.8-1.3,1.6-1.9,2.5
		c-0.5,0.7-1,1.4-1.5,2.1c-0.5,0.6-1,1.2-1.4,1.8c-1.5,2-3,4-4.5,6c-0.2,0.2-0.4,0.5-0.6,0.7c-0.1,0.1-0.2,0.1-0.3,0.2
		c0-0.4,0.1-0.7,0.1-1c0-0.5,0-1.1,0.1-1.6c0-0.2,0.1-0.4,0.2-0.6c0.2-0.2,0.1-0.3,0-0.5c-0.3-0.3-0.6-0.7-0.6-1.1c0-1,0-2,0-3.1
		c0-1.5,0-3,0.1-4.5c0-1.3,0-2.5,0-3.8c0-0.3,0.2-0.5,0.3-0.7c0.3-0.3,0.3-0.4,0-0.7c-0.5-0.4-0.8-0.8-0.9-1.5c0-0.1,0-0.1,0-0.2
		c-0.2-0.5-0.4-0.9-0.4-1.5c0-0.3,0-0.7,0-1c0-0.2,0-0.4,0.1-0.7c0.1-0.2,0.1-0.4,0.1-0.6c0-0.7-0.1-1.3-0.2-1.9
		c0-0.1-0.1-0.2-0.2-0.2s-0.1,0.1-0.2,0.2c0,0.1,0,0.3,0,0.4c-0.3,0-0.5,0.1-0.8,0.1c-0.1-0.1-0.2-0.3-0.3-0.4
		c-0.3-0.9-0.6-1.7-0.9-2.6c-0.1-0.2-0.2-0.4-0.2-0.6c-0.3-0.9-0.5-1.8-0.9-2.6c-0.3-0.7-0.4-1.4-0.7-2.1c-0.2-0.6-0.4-1.1-0.6-1.7
		c-0.1-0.4-0.3-0.7-0.3-1.1c0-0.6,0-1.2,0-1.8c-0.1,0-0.3,0.1-0.5,0.1c0-0.4-0.1-0.7-0.3-1.1c-0.1-0.1-0.1-0.4,0.1-0.5
		c0.1,0,0.1-0.2,0.2-0.2c-0.2-0.2-0.3-0.4-0.4-0.6c-0.2,0-0.2,0-0.3,0.1c0,0.1-0.1,0.2-0.1,0.3c-0.2,0.3-0.2,0.3,0,0.4
		c0.2,0.1,0.2,0.2,0.2,0.4s-0.1,0.4-0.1,0.6c0,0.1,0,0.3,0,0.5c-0.2-0.1-0.3-0.2-0.4-0.3c0,0.3-0.1,0.6-0.1,0.9c0,0.3,0,0.6,0,0.9
		c-0.1,0.6-0.2,1.2-0.5,1.7c-0.1,0.2-0.2,0.4-0.2,0.6c-0.1,0.4-0.2,0.9-0.4,1.3c-0.2,0.5-0.4,0.9-0.5,1.4c-0.2,0.7-0.3,1.4-0.7,2
		c-0.1,0.2-0.2,0.5-0.2,0.7c-0.1,0.4-0.2,0.7-0.3,1.1c-0.1,0.3-0.2,0.5-0.3,0.8c-0.1,0.3-0.2,0.5-0.3,0.8c-0.1,0.3-0.2,0.6-0.3,0.8
		c-0.3,0-0.5,0-0.7,0s-0.2-0.1-0.2-0.3c0-0.2,0-0.3,0-0.5c-0.3,0-0.4,0-0.4,0.3s0,0.5-0.1,0.7v0.1c0,0.6-0.2,1.2,0.1,1.8
		c0,0,0,0.1,0,0.2c0,0.3,0,0.7,0,1s0,0.6,0,0.8c-0.1,0.5-0.3,1-0.5,1.5s-0.6,0.9-0.9,1.3c-0.1,0.1-0.2,0.2-0.2,0.4
		c0.1,0,0.2,0.1,0.2,0.1c0.3,0.2,0.5,0.5,0.5,0.9c0,1.1,0,2.1,0,3.2c0,1.3,0,2.6,0,3.9c0,1.3,0,2.6,0,4c0,0.6-0.2,1.1-0.7,1.4
		c-0.1,0.1-0.1,0.3,0,0.4c0.1,0,0.1,0.1,0.2,0.1c0.2,0,0.3,0.2,0.3,0.4c0,0.5,0,0.9,0,1.4c0,1.2,0,2.4,0,3.6c0,0.3,0,0.5-0.2,0.8
		c-0.1,0.2-0.2,0.3,0,0.5s0.2,0.5,0.2,0.8c0,0.1,0,0.3,0,0.5s0.1,0.4,0.1,0.6c0,0.5,0,1.1,0,1.6c0,0.8-0.2,1.5-0.7,2.3
		c0.5,0.2,0.4,0.7,0.4,1.1c0,1.7,0,3.4,0,5.1c0,1.2,0,2.4,0,3.6c0,1,0,1.9,0.1,2.9c0,0.6,0,1.2,0,1.9c0,0.4,0,0.8-0.1,1.2
		c-0.1,0.3-0.2,0.6-0.3,1c0.3,0.1,0.3,0.3,0.3,0.6c0,1.4,0,2.8,0,4.2c0,2.3,0,4.6,0,6.9c0,0.2,0,0.4,0.1,0.6c0,0.1,0,0.2,0,0.3
		c-0.1,0.3-0.3,0.6-0.4,0.9c-0.1,0.2-0.1,0.3,0.1,0.4s0.2,0.2,0.2,0.5c0,1.9,0.1,3.8,0.1,5.7c0,0.7,0,1.4,0,2.1s0,1.4,0,2.1
		c0,0.6,0.1,1.2-0.3,1.7c-0.1,0.1-0.2,0.3-0.3,0.4c0,0.1-0.1,0.3,0,0.3c0.3,0.2,0.2,0.5,0.2,0.7c0,1.6,0,3.2,0,4.8
		c0,4.6,0,9.1,0,13.7c0,0.2,0.1,0.5,0,0.6c-0.3,0.3-0.1,0.8-0.4,1.1c0.9,0.1,53.8,0.1,54.2-0.1C379.9,119.8,379.8,119.5,379.7,119.2
		z M327.4,39.3c0-2,0-3.9,0-5.9c0.1-0.1,0.2-0.1,0.4-0.2c0.1,0.1,0.2,0.3,0.3,0.5c0.1,0.2,0.2,0.4,0.3,0.6c0,0.1,0,0.1,0,0.2
		c0,1.6,0,3.1,0,4.7C328.1,39.3,327.7,39.3,327.4,39.3z M334.2,39.3c0,0.2,0,0.3-0.2,0.2c-0.2,0-0.5,0-0.7,0c-0.3,0-0.3,0-0.3-0.3
		c0-0.8,0-1.6,0-2.3l0,0c0-0.8,0-1.6,0-2.4c0-0.1,0.1-0.2,0.1-0.3v-0.1c0-0.3,0.2-0.4,0.4-0.6h0.2c0.1,0.2,0.2,0.3,0.4,0.5
		c0.2,0.2,0.2,0.5,0.2,0.7C334.1,36.3,334.2,37.8,334.2,39.3z M340.3,34.1c0,1.6,0,3.1,0,4.7c0,0.2-0.1,0.4-0.4,0.4
		c-0.1,0-0.2,0.1-0.3,0.1c-0.1,0-0.2,0-0.2,0s0-0.1,0-0.2c0-0.2,0-0.4,0-0.6c0-1.3,0-2.5,0-3.8c0-0.1,0-0.2,0-0.3s0.1-0.2,0.1-0.2
		c0.1-0.1,0.2-0.2,0.2-0.3c0.1-0.2,0.2-0.5,0.4-0.7c0.1-0.1,0.1-0.2,0.2-0.3c0,0,0,0,0.1,0C340.3,33.4,340.3,33.7,340.3,34.1z
		 M360.8,84.5c0.2,0.3,0.3,0.8,0,1c-0.3,0.3-0.2,0.5-0.1,0.9c0.1,0.1,0.3,0.1,0.4,0.2c0.3,0.2,0.5,0.5,0.4,0.9
		c-0.1,0.3-0.4,0.6-0.7,0.5c-1.4,0-2.9-0.1-4.3-0.1c-0.4,0-0.7-0.2-0.8-0.5c-0.1-0.4,0.1-0.7,0.4-0.9c0.2-0.2,0.4-0.3,0.7-0.4
		c1-0.5,2-1,3-1.6c0.1,0,0.1-0.1,0.2-0.1C360.3,84.2,360.6,84.3,360.8,84.5z M357.6,80.5c0.4,0.1,0.6,0.5,0.6,0.8
		c0,0.1,0,0.3-0.1,0.4c0,0,0.1,0.1,0.1,0.2c0.2,0.2,0.3,0.3,0.6,0.2c0.3-0.1,0.6,0.1,0.8,0.3c0.2,0.3,0.2,0.5,0.1,0.8
		c-0.1,0.1-0.2,0.3-0.4,0.3c-0.9,0.5-1.8,1-2.8,1.5c-0.3,0.1-0.5,0.3-0.8,0.4c-0.1,0.1-0.2,0.1-0.3,0.1c-0.6,0.2-1.1-0.2-0.9-0.9
		c0-0.2,0.1-0.3,0.2-0.5c0.7-1.1,1.4-2.3,2.2-3.4C357.1,80.6,357.3,80.4,357.6,80.5z M352.4,79.6L352.4,79.6c0-0.6,0.2-0.8,0.5-0.9
		c0.4-0.1,0.8,0.2,1,0.6c0,0.1,0.1,0.2,0.1,0.3c0.2,0.1,0.4,0.1,0.5,0.2c0.1-0.1,0.2-0.2,0.4-0.3c0.3-0.2,0.7-0.1,0.9,0.1
		c0.2,0.2,0.3,0.6,0.1,0.9c-0.6,1-1.3,2.1-1.9,3.1c-0.1,0.2-0.2,0.4-0.4,0.6c-0.2,0.3-0.4,0.5-0.8,0.4s-0.5-0.4-0.6-0.7
		c0-0.2,0-0.3,0-0.5C352.3,82.1,352.4,80.9,352.4,79.6z M348,79.5c0.3-0.3,0.7-0.3,1-0.1c0.4,0.3,0.4,0.3,0.9,0.1
		c0.1-0.1,0.1-0.3,0.2-0.4c0.2-0.3,0.5-0.4,0.9-0.4c0.3,0.1,0.6,0.4,0.6,0.7c0,1.5-0.1,2.9-0.2,4.4c0,0.3-0.1,0.6-0.5,0.7
		c-0.3,0.1-0.6,0-0.8-0.3c-0.1-0.1-0.2-0.2-0.2-0.3c-0.6-1.2-1.2-2.3-1.8-3.5v-0.1C347.7,80,347.7,79.7,348,79.5z M344,82.6
		c0.1-0.4,0.5-0.6,0.9-0.6c0.1,0,0.3,0,0.4,0.1c0.1-0.1,0.2-0.2,0.3-0.3c0.1-0.1,0.1-0.2,0.1-0.3c0-0.1,0-0.2,0-0.3
		c0-0.4,0.2-0.6,0.6-0.7c0.2-0.1,0.7,0,0.9,0.4c0.7,1.3,1.4,2.6,2,3.8c0.1,0.1,0.1,0.3,0.1,0.5c0,0.4-0.3,0.6-0.6,0.6
		c-0.3,0-0.5-0.1-0.7-0.2c-1.2-0.7-2.3-1.5-3.5-2.2C344,83.2,343.9,82.9,344,82.6z M342.7,86.4c0.4-0.1,0.5-0.4,0.5-0.7
		c-0.1-0.1-0.2-0.2-0.2-0.3c-0.2-0.3-0.2-0.7,0-1c0.2-0.2,0.7-0.3,0.9-0.1c1.2,0.8,2.5,1.5,3.7,2.3c0.1,0,0.1,0.1,0.2,0.1
		c0.4,0.4,0.3,1-0.3,1.2c-0.2,0.1-0.5,0.1-0.7,0.1c-1.3,0-2.5-0.1-3.8-0.2h-0.1c-0.4,0-0.7-0.2-0.8-0.5
		C342.1,86.9,342.3,86.5,342.7,86.4z M343.6,92.5c-0.3,0.1-0.6,0-0.8-0.3c-0.2-0.3-0.2-0.6,0-0.9c0.3-0.3,0.3-0.5,0.1-0.9
		c-0.1,0-0.2-0.1-0.3-0.1c-0.3-0.2-0.5-0.5-0.5-0.8c0.1-0.4,0.4-0.6,0.8-0.6c1.4,0,2.9,0.1,4.3,0.1c0.3,0,0.5,0.1,0.6,0.3
		c0.2,0.2,0.2,0.6,0,0.8c-0.1,0.2-0.3,0.3-0.5,0.4c-1.2,0.6-2.4,1.3-3.5,1.9C343.8,92.4,343.7,92.4,343.6,92.5z M346.1,96.3
		c-0.4-0.1-0.6-0.5-0.6-0.9c0-0.1,0-0.3,0.1-0.5c-0.1-0.1-0.3-0.2-0.4-0.4c-0.1,0-0.2,0-0.4,0c-0.4,0-0.7-0.2-0.8-0.5
		c-0.1-0.3,0-0.7,0.4-0.9c1.3-0.7,2.5-1.4,3.8-2c0.1-0.1,0.2-0.1,0.4-0.1c0.4-0.1,0.8,0.2,0.8,0.7c0,0.2-0.1,0.5-0.2,0.7
		c-0.7,1.1-1.4,2.3-2.1,3.4C346.7,96.3,346.4,96.4,346.1,96.3z M351.3,97.3c0,0.5-0.2,0.7-0.5,0.8c-0.4,0.1-0.8-0.1-1-0.5
		c0-0.1-0.1-0.2-0.1-0.3c-0.2-0.1-0.4-0.1-0.5-0.2c-0.1,0.1-0.2,0.2-0.3,0.2c-0.3,0.2-0.7,0.2-1-0.1c-0.3-0.2-0.3-0.6-0.1-0.9
		c0.5-0.8,1-1.7,1.6-2.5c0.2-0.4,0.4-0.7,0.7-1.1c0.1-0.2,0.2-0.3,0.4-0.4c0.3-0.2,0.7-0.1,0.9,0.2c0.1,0.2,0.2,0.5,0.2,0.8
		C351.4,94.7,351.4,96,351.3,97.3z M349.1,88.4c0-1.5,1.2-2.7,2.7-2.7s2.7,1.2,2.7,2.7s-1.2,2.8-2.7,2.8
		C350.4,91.2,349.2,89.9,349.1,88.4z M355.8,97.3c-0.3,0.3-0.8,0.3-1.1,0c-0.1-0.1-0.2-0.2-0.3-0.3c-0.2,0.1-0.4,0.1-0.6,0.1
		c-0.1,0.1-0.1,0.3-0.1,0.4c-0.2,0.3-0.5,0.5-0.9,0.4c-0.3-0.1-0.6-0.4-0.6-0.8c0-1.1,0.1-2.2,0.1-3.3c0-0.3,0-0.6,0-0.9
		c0-0.2,0-0.3,0.1-0.5c0.2-0.4,0.6-0.5,0.9-0.3c0.2,0.1,0.4,0.3,0.5,0.6c0.6,1.2,1.3,2.4,1.9,3.6C356.1,96.9,356,97.1,355.8,97.3z
		 M359.7,94.2c-0.1,0.4-0.5,0.6-0.9,0.6c-0.1,0-0.2,0-0.3-0.1c-0.1,0.1-0.1,0.1-0.2,0.2c-0.2,0.1-0.3,0.3-0.2,0.6
		c0,0.2,0,0.4-0.1,0.6c-0.3,0.5-1,0.4-1.2-0.1c-0.5-1-1.1-2-1.6-3c-0.1-0.3-0.3-0.5-0.4-0.8c-0.1-0.1-0.1-0.3-0.1-0.4
		c-0.1-0.5,0.3-0.9,0.7-0.8c0.2,0,0.5,0.1,0.7,0.3c1.1,0.7,2.2,1.4,3.3,2.1l0,0C359.7,93.6,359.8,93.9,359.7,94.2z M361.1,90.5
		c-0.1,0.1-0.3,0-0.4,0.3c-0.1,0.2-0.1,0.4,0.1,0.7c0.3,0.3,0.3,0.7,0,1c-0.2,0.2-0.7,0.3-1,0.1c-1.2-0.8-2.4-1.5-3.6-2.2
		c-0.1-0.1-0.2-0.2-0.3-0.3c-0.3-0.3-0.2-0.8,0.2-1c0.2-0.1,0.5-0.2,0.7-0.2c0.6,0,1.3,0,1.6,0.1c1,0,1.7,0.1,2.4,0.1
		c0.4,0,0.7,0.2,0.8,0.5S361.4,90.3,361.1,90.5z M369.2,35c0,0.9,0,1.8,0,2.7c0,0.2-0.1,0.5-0.2,0.7c0,0-0.1,0.1-0.2,0.1
		s-0.3,0-0.4,0c-0.2,0-0.5,0-0.5,0c-0.1-0.2-0.2-0.5-0.2-0.8c0-0.5,0-1,0-1.5s0-1,0-1.6c0-0.1,0-0.2,0-0.2c0.2-0.3,0.1-0.6,0.1-0.9
		c0-0.1,0-0.2,0-0.3c0.1-0.3,0.2-0.4,0.5-0.4c0.1,0,0.2,0,0.3,0c0.3,0,0.5,0.2,0.5,0.4s0,0.5,0,0.7c0,0.1,0,0.2,0,0.2
		C369.3,34.3,369.2,34.7,369.2,35z M371.1,34.7c0,1,0,2,0,2.9c0,0.1-0.1,0.2-0.1,0.4l-0.1,0.1c0,0.3-0.2,0.3-0.4,0.3
		c-0.3,0-0.5,0-0.9,0c0-0.7,0-1.3,0-1.9c0-0.7,0-1.4,0-2.1c0-0.3-0.1-0.6,0.2-0.8v-0.1c-0.2-0.1-0.1-0.4-0.1-0.5s0-0.2,0-0.4
		c-0.1-0.4,0.2-0.6,0.4-0.9c0,0,0.1-0.1,0.2-0.1c0.2,0,0.4,0.1,0.6,0.2c0.1,0,0.1,0.1,0.1,0.2c0,0.6,0,1.3,0,1.9c0,0.1,0,0.1,0,0.1
		C371.2,34.2,371.1,34.5,371.1,34.7z M372.9,37.9c0,0.1-0.2,0.3-0.2,0.4c-0.1,0.2-0.2,0.2-0.4,0.2c-0.2,0-0.4,0-0.6,0
		s-0.2-0.1-0.2-0.2c0-0.7,0-1.3,0-2l0,0c0-0.7,0-1.5,0-2.2c0-0.1,0-0.2,0.1-0.2c0.1-0.1,0.1-0.2,0-0.3c-0.1-0.2,0-0.4,0.1-0.5
		s0.4-0.3,0.5-0.3c0.4,0.1,0.5,0.3,0.5,0.7c0,0.2,0,0.3,0.1,0.4c0.1,0.1,0.1,0.3,0.1,0.4c0,0.6,0,1.2,0,1.8
		C372.9,36.6,372.9,37.2,372.9,37.9z"/>
	<g>
		<path class="st0" d="M382.4,120.3c0.1-0.2,0.2-0.4,0.3-0.7c0-0.1,0-0.1,0-0.2c0-0.2,0-0.5,0-0.7c0-0.1,0-0.2,0-0.4
			c0-0.3,0-0.7,0-1c0-0.7,0-1.4-0.1-2.1c0-0.5-0.1-0.9-0.2-1.4c0-0.3,0-0.6-0.1-0.9c0-0.2,0-0.3,0-0.5c-0.1,0.2-0.2,0.2-0.4,0.2
			h-0.1c-0.1-0.1-0.2-0.1-0.2,0c-0.1,0-0.1,0.1-0.2,0.1c0,0,0,0.1,0.1,0.1c0.1,0.2,0.1,0.5-0.1,0.6c-0.1,0-0.2,0-0.3,0.1l0,0
			c-0.1-0.2-0.2,0-0.3,0.1c-0.1,0.1-0.1,0.2-0.2,0.2c0,0-0.1,0-0.1,0.1c-0.1,0-0.2,0-0.2-0.2c0,0.1-0.1,0.2-0.1,0.3
			c-0.1,0.3-0.3,0.3-0.5,0.1c0-0.1-0.1-0.1-0.1-0.1c-0.1,0-0.1-0.1-0.1-0.2s0-0.2-0.1-0.3c-0.1-0.1-0.1-0.4,0-0.5c0,0,0-0.1,0.1-0.1
			c-0.1,0-0.1,0-0.1,0c-0.2,0.1-0.3,0.1-0.5,0c-0.1,0-0.2,0-0.2,0.1v0.1c0,0.3-0.2,0.5-0.3,0.4c-0.1,0-0.2-0.1-0.2-0.2
			s-0.1-0.1-0.1,0c-0.1,0-0.2,0-0.3,0h-0.1c-0.1,0.2-0.3,0.2-0.5,0.2c-0.1,0.3-0.2,0.4-0.4,0.4h-0.1c-0.1,0.2-0.2,0.2-0.3,0.3
			c-0.1,0.1-0.2,0-0.3-0.1c-0.1-0.1-0.1-0.3,0-0.4s0.1-0.2,0.2-0.3l0,0c0-0.1,0-0.3,0-0.4l-0.1-0.1c-0.1,0-0.1-0.1-0.2-0.1
			c-0.1-0.1-0.2-0.2-0.3-0.3c-0.1-0.1-0.1,0-0.2,0c-0.1,0.1-0.1,0.2-0.1,0.4c0,0.1,0,0.1-0.1,0.2c-0.1,0-0.1,0.1-0.2,0.1l-0.1,0.1
			c0,0.2-0.1,0.2-0.2,0.3c-0.2,0-0.3,0-0.4-0.2c-0.1-0.1-0.1-0.1-0.2-0.1c-0.2-0.1-0.3,0-0.5,0c-0.1,0-0.2-0.1-0.2-0.3
			c0,0,0-0.1-0.1-0.1c-0.2-0.2-0.2-0.3,0-0.6l-0.1-0.1c-0.1,0-0.2,0-0.2,0c-0.1,0-0.2-0.1-0.3-0.3c0,0,0-0.1-0.1-0.1
			c-0.1-0.1-0.1-0.2,0-0.4c-0.1-0.3-0.2-0.4-0.5-0.3c0-0.2,0-0.5,0-0.7c0-0.1,0-0.2,0.1-0.2s0.2-0.1,0.3-0.3l0.1-0.1c0,0,0,0,0.1,0
			c0.1-0.1,0.1-0.2,0.2-0.4c-0.1,0-0.1,0-0.1,0c-0.1,0-0.1-0.1-0.1-0.2c0.1-0.3,0.1-0.5,0-0.8c0-0.1-0.1-0.2-0.1-0.3
			c-0.1-0.2-0.1-0.5,0-0.7v-0.1c-0.2-0.1-0.2-0.2-0.2-0.4c0-0.1,0-0.2,0.1-0.2c0-0.1,0.1-0.1,0.1-0.2s0.1-0.2,0.1-0.4l-0.1-0.1
			c-0.1,0-0.3-0.1-0.4-0.1s-0.2-0.1-0.4-0.2c-0.1-0.1-0.2-0.4-0.1-0.6c0-0.1,0-0.2,0-0.2c-0.1-0.1-0.2-0.2-0.2-0.3
			c-0.1-0.2,0-0.7,0.2-0.8c0-0.2,0-0.3-0.1-0.5c-0.1-0.1,0-0.2,0-0.4c0-0.1,0.1-0.1,0.1-0.1c-0.1-0.1-0.1-0.2-0.2-0.2
			c-0.1-0.1-0.1-0.2-0.2-0.3c-0.1-0.1-0.1-0.2-0.2-0.3c-0.1-0.1-0.1-0.2-0.1-0.3c0-0.2,0-0.5,0-0.7c0.1-0.1,0.1,0,0.2,0.1
			c0,0.1,0.1,0.1,0.1,0l0.1-0.1c0.1,0,0.2,0,0.3,0h0.1c0.1-0.1,0.1-0.1,0.2-0.1s0.2,0.1,0.2,0.2h0.1c0-0.2-0.1-0.3-0.1-0.4
			c0-0.2,0-0.3,0.2-0.4c-0.1-0.1-0.2-0.3-0.2-0.4c-0.1-0.1-0.1-0.2-0.2-0.3c0-0.1,0-0.2,0-0.3c0-0.1,0.1-0.2,0.2-0.1c0,0,0,0,0.1,0
			c0-0.1,0-0.3,0.1-0.4c0-0.1,0-0.1,0.1-0.1c0.1-0.1,0.2-0.2,0.3-0.2c0.1,0,0.2,0,0.2-0.1c0.1-0.1,0.1-0.1,0.2-0.1
			c0-0.1,0.1-0.3,0-0.4c0-0.1,0-0.3,0.1-0.3s0.1-0.2,0.2-0.1c0.1,0,0.2,0.1,0.3,0.2c0,0,0,0,0-0.1c0.1-0.2,0.2-0.2,0.3-0.3
			c0,0,0.1,0,0.1-0.1c0.1-0.2,0.4-0.2,0.5,0c0,0.1,0,0.2,0,0.3c0.1-0.1,0.1-0.1,0.1-0.3c0-0.1,0-0.2,0-0.2c0-0.1,0.2-0.2,0.3-0.1
			c0.1,0.1,0.1,0.1,0.3,0.2c0-0.1,0-0.1,0-0.1c-0.1-0.1-0.2-0.2-0.3-0.3c-0.1-0.1-0.2-0.2-0.2-0.4c0-0.1,0-0.2-0.1-0.3
			c-0.1-0.2-0.1-0.3,0-0.5c0.1-0.1,0.1-0.2,0.1-0.3l0.1-0.1c0.1,0,0.2,0,0.3,0.1h0.1c0.1-0.1,0.1-0.2,0.2-0.3c0.1-0.1,0.1-0.2,0-0.4
			c0-0.1,0-0.2,0-0.3c0-0.1,0-0.2-0.1-0.3c-0.1-0.1-0.1-0.3-0.1-0.5c0-0.1,0-0.1,0.1-0.1c0.1-0.1,0.3,0,0.3,0.1
			c0.1,0.1,0.2,0.1,0.3,0c0.1-0.1,0.1-0.1,0.2-0.2s0.3,0.1,0.3,0.3c0,0.1,0,0.2,0.1,0.2c0-0.2,0.2-0.5,0.4-0.5c0,0,0.1,0,0.1,0.1
			c0.1,0.1,0.2,0.2,0.2,0.3v-0.1c-0.1-0.1-0.1-0.2,0-0.4c0-0.1,0-0.2,0-0.3c-0.1-0.3,0-0.6,0.2-0.8c0.1-0.1,0.1-0.1,0.2-0.1h0.1
			c0.1-0.2,0-0.4,0-0.7c-0.1-0.3,0-0.4,0.2-0.4h0.1c0.1-0.1,0.2-0.1,0.3,0c0,0,0.1,0.1,0.1,0s0.1-0.1,0.2-0.2c0,0,0-0.1-0.1-0.1
			c-0.1-0.2-0.1-0.4-0.1-0.6c0-0.1,0.1-0.2,0.1-0.2c0.1,0,0.3,0,0.4,0c0,0,0.1,0,0.1-0.1c0.1-0.2,0.2-0.3,0.3-0.2c0,0,0,0,0.1,0
			c0-0.1,0-0.2,0.1-0.4c0-0.2,0.3-0.3,0.4-0.2c0.1,0.2,0.2,0.3,0.3,0.6c0.1,0,0.1-0.1,0.2-0.1c0,0,0,0,0-0.1s0.1-0.2,0.1-0.3
			c0-0.1,0-0.1,0-0.2c-0.1-0.2-0.1-0.3-0.2-0.5l0,0c0-0.3-0.1-0.5-0.1-0.8c0-0.1,0.1-0.2,0.1-0.2h0.1c0.1-0.1,0.3-0.2,0.4-0.1
			c0.1,0,0.2,0.2,0.3,0.3l0,0l0,0c0-0.1,0-0.2,0-0.2c0-0.1,0-0.2,0.1-0.3c0.1-0.1,0.2-0.1,0.3-0.3c0-0.1,0.1-0.1,0.1-0.1l0,0v-0.1
			c0-0.2,0-0.3,0.1-0.4c0,0,0-0.1,0.1-0.2c0-0.1,0.1-0.2,0.2-0.3c0.2,0,0.2,0,0.3,0.3c0,0.1,0.1,0.2,0.1,0.2s0,0.1,0.1,0.1
			s0.2,0,0.3-0.1c0.1-0.1,0.3-0.1,0.3,0c0,0,0,0.1,0.1,0c0.1,0,0.2,0.1,0.2,0.2l0,0c0.1,0,0.2-0.1,0.2-0.1c0.1,0,0.1-0.2,0.2-0.3
			c0-0.1,0-0.1,0.1-0.2c0-0.1,0.1-0.1,0.2-0.2s0.3-0.1,0.3,0c0.1,0.1,0.2,0.2,0.2,0.4c0,0,0.1,0,0.1,0.1l0,0
			c0.1-0.1,0.1-0.2,0.2-0.3c0-0.1,0.1-0.1,0.1-0.2s0-0.2,0.1-0.3c0-0.1,0-0.2,0.1-0.2s0.2,0,0.3,0c0,0,0.1,0,0.1,0.1h0.1
			c0.1-0.1,0.3-0.1,0.5-0.1l0,0c0.1,0.2,0.2,0.3,0.2,0.5c0,0.1,0,0.2,0,0.3c0.1,0,0.3,0,0.3,0.2c0,0,0,0,0-0.1
			c0-0.4,0.1-0.5,0.4-0.3c0.1,0.1,0.1,0,0.1-0.2c0-0.1,0-0.3,0.1-0.4l0.1-0.1c0.1,0,0.3,0,0.4,0l0,0c0.2,0.2,0.3,0.3,0.5,0.5
			c0.1,0.2,0.1,0.5,0,0.7c0,0.1-0.1,0.1,0,0.2s0,0.2-0.1,0.3c0,0.1-0.1,0.3-0.2,0.4c0.1,0,0.2,0,0.3,0.1h0.1c0.1,0,0.2,0.1,0.3,0.2
			c0,0,0,0,0,0.1c0.1,0,0.1,0,0.2,0.1l0,0c0.1,0,0.1-0.1,0.2-0.1c0-0.1,0-0.1,0.1-0.2c0.1-0.3,0.2-0.3,0.3-0.2
			c0.1,0,0.1,0.1,0.1,0.2s0,0.3,0,0.4s-0.1,0.2,0,0.4c0,0.1,0,0.2,0,0.2c0,0.1-0.1,0.1-0.1,0.2v0.1c0,0,0,0,0.1,0
			c0.2-0.1,0.3,0,0.4,0.2c0,0,0,0,0,0.1c0-0.1,0.1-0.1,0.1-0.2c0.1-0.2,0.2-0.2,0.3-0.2h0.1c0.1,0,0.2,0,0.3,0.2l0,0
			c0.1,0,0.3,0,0.4,0s0.1-0.1,0.2,0c0,0,0.1,0.1,0.1,0.2s0.1,0.1,0.2,0.1c0.1-0.1,0.2,0.1,0.3,0.2c0,0.1,0,0.2,0,0.3
			c0,0.1-0.1,0.2-0.1,0.3c0.1,0.1,0.1,0.2,0.2,0.2h0.1c0.1-0.2,0.2-0.2,0.3-0.1c0.1,0.1,0.1,0.1,0.2,0.1s0.2,0,0.2,0
			s0.1-0.1,0.1-0.2c0.1-0.2,0.2-0.2,0.3-0.2c0.1,0,0.2,0.1,0.2,0.2c0.1,0.2,0,0.4-0.1,0.5c0,0,0,0-0.1,0.1s-0.1,0.2-0.1,0.4
			c0,0.2,0,0.4-0.1,0.6c0,0.1-0.1,0.1-0.1,0.2c-0.1,0.1-0.2,0.2-0.2,0.3c0,0,0,0,0,0.1c0.1,0,0.1,0,0.2,0s0.2,0.1,0.2,0.2
			c0,0.2,0.1,0.5-0.1,0.7c-0.1,0.1-0.2,0.1-0.4,0.1c-0.1,0-0.2,0-0.3,0.1c0,0-0.1,0.2-0.1,0.3c0,0.1,0,0.3,0,0.4s0,0.2,0,0.3
			c0,0.1,0.1,0.1,0.1,0.2c0.1,0.1,0.2,0.2,0.3,0.3c0.1,0.1,0.1,0.2,0.2,0.3c0,0.1,0,0.1,0,0.2h0.1c0.1,0,0.2-0.1,0.3,0.1l0,0
			c0.1,0,0.2,0.1,0.2,0.3c0,0.1-0.1,0.2-0.1,0.4c0,0.1,0,0.1,0,0.2c0,0.2-0.1,0.2-0.2,0.3c-0.1,0-0.1,0-0.2,0.2
			c0.1,0,0.1-0.1,0.2-0.1h0.1c0.1,0,0.3,0.1,0.4,0.1s0.2,0,0.3,0c0,0,0-0.1,0.1-0.1s0.1,0,0.2,0c0,0,0.1,0,0.1,0.1
			c0.1,0.1,0.2,0.1,0.3,0.1h0.1c0.1,0.2,0.2,0.2,0.3,0.2c0.1,0,0.1,0.1,0.2,0.1s0.1,0.1,0.2,0.1c0.2,0,0.3,0.1,0.4,0.2
			c0,0.1,0.1,0.2,0.1,0.4c0.1,0,0.2,0,0.2,0.1s0.1,0.2,0,0.3c0,0.2-0.1,0.3-0.2,0.4s-0.1,0.2-0.2,0.4c0.2,0.2,0.2,0.5,0.1,0.7
			c0.1,0.2,0.1,0.2,0.2,0c0.1-0.1,0.1-0.1,0.2-0.1s0.1,0.1,0.2,0.1c0,0,0.1,0,0.1,0.1c0.1,0,0.2,0,0.3,0c0.1,0.1,0.2,0.1,0.3-0.1
			c0.1-0.1,0.2,0.1,0.2,0.2c0,0.3-0.1,0.6-0.2,0.8c-0.1,0.1-0.1,0.2-0.2,0.3c-0.1,0.1-0.2,0.3-0.3,0.4l0,0c0.1,0.1,0.1,0.2,0.2,0.3
			c0,0.1,0,0.2,0,0.3c0,0.1,0,0.3,0,0.4c0,0,0,0,0.1,0.1c0.1,0,0.2,0.1,0.2,0.3c0,0.1,0,0.2,0,0.3c0,0.1,0,0.1,0,0.2
			c-0.1,0.1-0.1,0.2-0.2,0.3c0,0.1,0,0.1,0,0.2c0.1,0.1,0.1,0.5,0,0.6l-0.1,0.1c-0.1,0-0.3,0.1-0.4,0.1s-0.3,0.1-0.4,0.1l-0.1,0.1
			v0.1c0.1,0.1,0.1,0.3,0.1,0.4c0.2,0.1,0.2,0.2,0.2,0.5c0,0.1-0.1,0.2-0.1,0.2c-0.1,0.1-0.1,0.1,0,0.2s0.1,0.2,0.1,0.3
			c0,0.1,0,0.2,0,0.3c0,0.1,0,0.2,0,0.3c0.1,0.1,0.2,0.1,0.3,0c0-0.1,0.3,0,0.4,0l0.1,0.1c0,0,0,0,0.1,0c0.1,0.1,0.1,0.1,0.2,0
			s0.3-0.1,0.4-0.1c0,0,0.1,0.1,0.1,0.2c0,0.3,0,0.3-0.2,0.5c-0.1,0.1-0.2,0.1-0.3,0.2c-0.1,0.1-0.3,0.1-0.4,0.3c0,0,0,0-0.1,0
			c-0.2,0-0.3,0-0.5,0c-0.1,0-0.2,0-0.2-0.1s-0.2,0-0.2,0c0.1,0.1,0.1,0.2,0.2,0.3c0,0.1,0.1,0.1,0.2,0.2c0.1,0,0.1,0.2,0.2,0.2
			c0,0,0,0,0,0.1c0.1,0,0.1-0.1,0.2-0.1c0,0,0,0,0.1,0s0.1,0,0.2,0s0.2,0.1,0.3,0.3c0,0,0,0.1,0,0.2h0.1c0.1,0,0.1,0,0.2,0.1
			c0,0,0.1,0,0.1,0.1c0.1,0.1,0.1,0.1,0.1,0.2s-0.1,0.2-0.1,0.3c-0.1,0.1-0.1,0.1-0.2,0.1h-0.1c0,0.2-0.1,0.3-0.2,0.3
			c-0.2,0-0.3,0-0.5-0.1c-0.1,0-0.1,0-0.2,0.1v0.1c0.1,0.2,0.1,0.3,0,0.4c0,0,0,0,0,0.1c0,0.2-0.1,0.3-0.1,0.4
			c-0.1,0.2-0.2,0.1-0.3,0c-0.1-0.1-0.2-0.1-0.3-0.1c-0.1,0-0.1,0.1,0,0.2s0.1,0.2,0.1,0.3c0,0.1,0,0.2-0.1,0.2
			c-0.1,0.1-0.1,0.2-0.1,0.3c0,0.1-0.1,0.2-0.2,0.2s-0.2,0-0.3-0.1h-0.1c-0.1,0-0.2,0-0.3,0.1c-0.1,0.2-0.2,0.3-0.4,0.4
			c-0.1,0-0.2,0-0.3,0c-0.1,0-0.1,0.1-0.1,0.2c0,0.2,0,0.2-0.2,0.3c-0.1,0.1-0.2,0.1-0.4,0c0,0-0.1,0-0.1-0.1c-0.1,0-0.2,0-0.3-0.1
			c0,0.3-0.2,0.4-0.3,0.2l-0.1-0.1h-0.1c-0.1-0.2-0.3-0.2-0.4-0.3c-0.1-0.1-0.2-0.2-0.2-0.4l-0.1-0.1c-0.2,0-0.3,0-0.4-0.2
			c-0.1-0.1-0.1-0.1-0.2-0.1s-0.2,0.1-0.3-0.1h-0.1c-0.1,0.1-0.1,0.2-0.2,0.3c-0.2,0.1-0.3-0.2-0.3-0.5c-0.1,0-0.1-0.1-0.2-0.1
			s-0.1,0-0.2,0.1c0,0-0.1,0-0.2,0s-0.2,0-0.3-0.1c0,0-0.1,0-0.2,0v0.1c0.2,0.2,0.1,0.6-0.1,0.7c0,0.3,0,0.4-0.3,0.4
			c-0.1,0.2-0.1,0.3-0.3,0.2c-0.1,0-0.2-0.2-0.2-0.3c0-0.1-0.1-0.2-0.1-0.2c-0.1,0.2-0.2,0.2-0.3,0.1c-0.1,0-0.2,0-0.2-0.1
			s-0.1-0.2-0.2-0.3h-0.1c-0.2,0.1-0.4,0-0.5-0.3c0-0.1,0-0.3,0.1-0.4c0,0,0-0.1,0.1-0.1c0,0-0.1,0-0.1-0.1c-0.1,0-0.2-0.1-0.2-0.1
			l-0.1-0.1c0-0.2-0.1-0.3-0.3-0.4c0,0-0.1,0.1-0.1,0.2s0.1,0.1,0.1,0.2c0.1,0.1,0.2,0.3,0.2,0.4c0,0.2,0,0.4,0.1,0.7
			c0,0.1,0,0.2,0,0.3c0,0.2,0,0.4-0.2,0.4c-0.1,0-0.2,0-0.3-0.2c-0.1-0.2-0.1-0.5-0.2-0.7c0,0,0-0.1-0.1-0.1s-0.1-0.1-0.2-0.1
			c0,0-0.1,0-0.1,0.1v0.1c0.1,0.1,0.1,0.2,0,0.3c0,0.1-0.1,0.2-0.2,0.1c-0.1,0-0.2,0-0.2,0.2c-0.1,0.3-0.2,0.6-0.3,0.9
			c-0.1,0.3-0.1,0.5-0.2,0.8s-0.1,0.6-0.1,0.8c0,0.2,0,0.5,0,0.7c0,0.3,0,0.5-0.1,0.8c0,0.2,0,0.4,0.1,0.6c0,0.2,0,0.5,0,0.7
			c0,0.3,0,0.5,0.1,0.7l0.1,0.1c0.2,0,0.3,0.1,0.4,0.3c0.1,0.1,0.2,0.2,0.3,0.3l0.1,0.1c0.1,0.1,0.1,0.3,0.1,0.4s0,0.2-0.1,0.2h-0.1
			c-1.1,0-2.1,0-3.2,0C382.5,120.3,382.5,120.3,382.4,120.3z"/>
	</g>
	<path class="st4" d="M436.8,108.5c0.1,0,0.1,0.1,0.2,0.1c0,0.1,0,0.3,0,0.4c0,0.2-0.1,0.5-0.2,0.7v0.1c0.1,0.2,0,0.4-0.1,0.6
		c0,0.2-0.1,0.5-0.1,0.7c-0.1,1-0.1,2-0.1,2.9c0,0.1,0,0.3,0,0.4c0.1,0,0.2,0.1,0.3,0.1c0,0.2,0.1,0.4,0.1,0.6
		c0,0.5,0.1,0.9,0.2,1.3c0.1,0.5,0.2,0.9,0.4,1.4c0.1,0.3,0.1,0.5,0,0.8c-0.1,0.2-0.2,0.5-0.4,0.7c0,0-0.1,0.1-0.1,0.2h0.8v-0.1
		c0.1,0,0.1,0,0.2,0c0.1-0.1,0.1-0.3,0.2-0.4c0.1-0.2,0.1-0.3,0-0.5s-0.2-0.5-0.2-0.7c0-0.4,0-0.8,0-1.1c0-0.4,0-0.8-0.2-1.2
		c-0.1-0.2-0.1-0.4,0-0.7c0.2,0,0.3,0,0.5,0c0,0.1,0,0.2,0,0.2c0,0.2,0,0.4-0.1,0.5c0,0.3-0.1,0.5,0,0.8c0.1,0.4,0.1,0.8,0.2,1.3
		c0,0.3,0.1,0.7-0.1,1c-0.1,0.2-0.1,0.4,0,0.5s0.1,0.2,0.2,0.4c0.1,0,0.2,0,0.3,0c0,0.1,0,0.1,0,0.1h1.6v-0.1c0-0.1,0-0.2,0-0.3
		c0,0,0,0,0-0.1c0.1,0,0.1,0,0.2,0c0-0.2,0.1-0.4,0.1-0.5s0-0.3,0-0.4c0-0.6,0.1-1.2,0.1-1.7s0.1-1,0.1-1.4c0-0.2,0.1-0.4,0.1-0.5
		c0.1-0.6,0.1-1.2,0.1-1.8c0-0.1,0-0.1,0-0.2c0.1,0.1,0.1,0.1,0.1,0.2c0.1,0.3,0.2,0.7,0.2,1c0.2,0.9,0.3,1.8,0.5,2.7
		c0.1,0.7,0.2,1.4,0.3,2.1c0,0.3,0,0.5,0.1,0.8c0,0,0,0,0,0.1c0.1,0,0.1,0,0.2,0.1v0.1h1.7l0,0c0,0,0.1,0,0.1-0.1s0-0.2-0.1-0.3
		c0-0.1-0.1-0.2-0.2-0.2s-0.1,0-0.2,0c-0.2,0-0.3-0.1-0.4-0.1c-0.1-0.3-0.1-0.6-0.2-0.8v-0.1c0-0.2-0.1-0.4-0.1-0.6
		c-0.2-1.3-0.3-2.7-0.3-4c0-0.5,0-1-0.1-1.5c-0.1-0.4-0.1-0.8-0.1-1.2c0-0.2,0-0.4,0.2-0.5c0,0,0.1,0,0.2,0.1
		c0.1-0.2,0.2-0.4,0.3-0.6c0.1-0.2,0.3-0.5,0.4-0.7c0.2-0.3,0.4-0.6,0.4-1c0,0,0,0,0.1,0c0.2,0.3,0.3,0.9,0.1,1.2
		c-0.1,0.1-0.2,0.2-0.2,0.3c0,0.2-0.1,0.4-0.1,0.6c-0.1,0.3-0.1,0.6-0.1,0.8c0,0.2,0.1,0.4,0.2,0.6s0.2,0.3,0.3,0.4
		c0,0.7,0,1.4,0.1,2.1c0,0.2,0,0.4,0.1,0.6c0.1,0,0.2,0,0.4,0c0,0.2,0.1,0.4,0.1,0.6c0,0.9,0.1,1.8,0.2,2.7c0,0.1,0,0.3,0,0.4
		c-0.1,0.5-0.3,0.9-0.7,1.2h0.8c0,0,0,0,0.1-0.1v0.1h0.3c0-0.1,0.1-0.2,0.1-0.3c0.1-0.2,0.1-0.4,0-0.6c-0.1-0.1-0.1-0.3-0.1-0.4
		c0-0.2,0-0.3,0-0.5c0.1-0.5,0.2-0.9,0.2-1.4c0-0.2,0-0.5,0-0.7c-0.1-0.4-0.1-0.8,0-1.1c0-0.1,0-0.1,0.1-0.1
		c0.1,0.2,0.1,0.4,0.1,0.7c0,0.2,0,0.5,0,0.7c0,0.4,0.1,0.7,0.1,1.1c0,0.2,0,0.4,0,0.6s0,0.5,0,0.7s0,0.4,0,0.6c0,0.1,0,0.2,0,0.3
		c0,0.1,0.1,0.2,0.2,0.1c0.2,0,0.4-0.1,0.5-0.2c0-0.1,0-0.1,0-0.2c-0.1-0.3-0.2-0.7-0.2-1c-0.1-0.3-0.1-0.5,0-0.8
		c0.1-0.4,0.2-0.9,0.2-1.3c0.1-0.4,0.1-0.8,0-1.1c0-0.1,0-0.2-0.1-0.3c0.2-0.1,0.2-0.1,0.2-0.4s0-0.6,0.1-0.8c0-0.6,0.1-1.2,0.1-1.8
		c0-0.4,0-0.8-0.2-1.2c0-0.1,0-0.2-0.1-0.3c0.4,0,0.6-0.1,0.8-0.4c0,0.1,0,0.1,0,0.2c0,0.5-0.1,0.9-0.1,1.4c0,0.1,0,0.3,0,0.4
		c0,0.2,0.2,0.2,0.3,0.2v0.1c-0.2,0.8-0.3,1.7-0.5,2.5c-0.1,0.4,0,0.8,0.2,1.1c0.3,0.6,0.5,1.2,0.7,1.9c0.1,0.3,0.1,0.5,0.2,0.7
		c0,0.1,0,0.2-0.1,0.2l-0.1,0.1c-0.3,0.1-0.5,0.3-0.9,0.3c-0.2,0-0.2,0.1-0.3,0.3v0.1l0.1,0.1c0,0.1,0,0.1,0,0.2h2.7
		c0-0.1,0-0.2,0-0.2c0-0.1-0.1-0.2,0.1-0.3v-0.1c0-0.1,0-0.3,0-0.4c0-0.4,0-0.7,0-1.1c0-0.8,0-1.5-0.1-2.3c0-0.1,0-0.3,0-0.4
		c0-0.3,0.1-0.6,0.1-0.9c0-0.6,0.1-1.3,0.2-1.9v-0.1c0.1-0.1,0.1-0.3,0.1-0.4c0-0.4,0-0.9-0.1-1.3c0-0.5,0-1.1,0.1-1.6
		c0-0.6,0.1-1.3,0-1.9c0-0.2-0.1-0.4-0.2-0.5c-0.2-0.2-0.3-0.5-0.6-0.6c-0.1,0-0.1-0.1-0.1-0.1s0-0.1,0-0.2c0.1-0.2,0.2-0.4,0.3-0.6
		c0.1-0.2,0.1-0.4,0.1-0.5c0-0.5-0.4-0.8-0.8-0.8c-0.2,0-0.3,0.1-0.5,0.1c-0.1,0-0.2,0-0.3,0.1c-0.1,0.1-0.2,0.2-0.3,0.2
		c-0.1,0-0.1,0.1,0,0.2s0.1,0.1,0.2,0.2c0,0.3-0.1,0.5-0.2,0.7c0,0.1,0.2,0.1,0.1,0.2c0,0.1,0,0.2,0.1,0.2c0,0.3,0,0.3,0.3,0.2h0.1
		c0,0,0.1,0,0.1,0.1c0.1,0.1,0.1,0.3,0.2,0.4c0,0.1-0.1,0.2-0.1,0.3c-0.1,0.3-0.3,0.5-0.5,0.7c-0.1,0.1-0.2,0.3-0.2,0.5
		c0,0.4-0.1,0.8-0.1,1.2v0.1c-0.1-0.1-0.1-0.2-0.1-0.3c0-0.2,0-0.3-0.1-0.5c0-0.1-0.1-0.3-0.1-0.5s0-0.4-0.1-0.7
		c0-0.2-0.1-0.4-0.2-0.5s-0.2-0.2-0.4-0.3c-0.1-0.1-0.2-0.2-0.1-0.3c0-0.1,0.1-0.2,0.2-0.3c0-0.1,0-0.2,0-0.3l0,0c0,0.1,0,0.1,0,0.2
		c0-0.1,0.1-0.1,0.1-0.2c-0.1-0.4-0.1-0.8-0.4-1.2c-0.1-0.2-0.3-0.4-0.6-0.4c-0.2,0-0.3-0.1-0.5,0c-0.5,0.1-0.7,0.3-0.7,0.8
		c0,0.2,0,0.3,0,0.5c0,0.3,0,0.6,0.3,0.8c0,0,0.1,0.1,0.1,0.2c-0.1,0.1-0.3,0.1-0.4,0.2c-0.1,0-0.2,0.1-0.3,0.3
		c-0.1,0.2-0.1,0.3,0,0.5c0,0.1,0,0.2,0,0.3c-0.1,0.2-0.2,0.4-0.3,0.6c-0.2-0.2-0.4-0.4-0.6-0.6c-0.3-0.2-0.6-0.5-0.8-0.9
		c-0.2-0.4-0.6-0.7-1.1-0.7c-0.2,0-0.4,0-0.5-0.1c0.1-0.1,0.2-0.2,0.2-0.3c0.1-0.2,0.2-0.5,0.1-0.8c0-0.1,0-0.2,0-0.3
		c0-0.1,0-0.1,0.1-0.2s0.1-0.2,0-0.2c-0.1-0.2-0.2-0.4-0.5-0.4c-0.1,0-0.3-0.1-0.4-0.1c0,0-0.1,0.1-0.2,0.1
		c-0.4,0.1-0.6,0.4-0.7,0.7c0,0.1,0,0.3,0,0.4c0.1,0.2,0.1,0.5,0.2,0.7c0,0.1,0.1,0.2,0,0.3c-0.1,0.1-0.2,0.2-0.3,0.2
		c-0.2,0.2-0.5,0.2-0.7,0.3c0,0-0.1,0-0.2,0c0.2-0.2,0.1-0.4,0.1-0.6c0-0.1,0-0.2,0-0.3c0-0.1,0-0.3,0.1-0.4c0-0.2,0-0.4,0-0.5
		s0-0.2,0-0.2c-0.1-0.3-0.3-0.4-0.6-0.6c-0.4-0.2-0.7,0-0.8,0.3c-0.1,0.2-0.2,0.3-0.3,0.5c-0.1,0.4-0.3,0.8-0.4,1.2
		c0,0.1,0,0.2,0,0.4c0,0.1,0,0.1,0.1,0.2c-0.1,0-0.3,0-0.4,0c-0.3,0-0.5,0.1-0.5,0.4c0,0.1,0,0.2,0,0.3c0,0.3,0,0.5,0,0.8
		c0,0.2-0.1,0.3,0,0.5c0,0,0,0.1,0,0.2C436.3,108.1,436.4,108.4,436.8,108.5z M446.9,109c0.1-0.3,0.2-0.6,0.3-0.9l0,0
		c0,0.3,0.1,0.6,0.1,1c-0.1,0.1-0.2,0.1-0.4,0.2C446.9,109.2,446.8,109.1,446.9,109z M444.8,111.9c0-0.1-0.1-0.1-0.1-0.2
		C444.8,111.7,444.8,111.8,444.8,111.9z M444.8,111.6c-0.2-0.1-0.3-0.2-0.2-0.4C444.7,111.3,444.9,111.4,444.8,111.6z M444.8,110.4
		C444.8,110.4,444.9,110.4,444.8,110.4c0,0.2,0.1,0.4,0,0.7c-0.1-0.2-0.1-0.3-0.2-0.4C444.7,110.6,444.8,110.5,444.8,110.4z
		 M442.6,107.8c0.2,0.1,0.5,0.2,0.7,0.3c-0.2,0.4-0.3,0.8-0.5,1.2c0-0.1,0-0.1,0-0.2c-0.1-0.2-0.1-0.4-0.2-0.6
		C442.5,108.3,442.5,108,442.6,107.8z M439.5,109.2c0,0.1,0,0.1,0.1,0.2l0,0C439.5,109.3,439.4,109.3,439.5,109.2
		C439.4,109.2,439.4,109.2,439.5,109.2z M439,117.8c0.1-0.5,0.1-1,0.1-1.5c0-0.4,0-0.9,0-1.3c0-0.1,0-0.2,0-0.4
		c0.1,0,0.2-0.1,0.3-0.1c0,1.4,0,2.9-0.2,4.3C439.2,118.5,439,118.2,439,117.8z"/>
</g>
</svg>
