<?xml version="1.0" encoding="utf-8"?>
<!-- Generator: Adobe Illustrator 24.0.1, SVG Export Plug-In . SVG Version: 6.00 Build 0)  -->
<svg version="1.1" id="Ebene_1" xmlns="http://www.w3.org/2000/svg" xmlns:xlink="http://www.w3.org/1999/xlink" x="0px" y="0px"
	 viewBox="0 0 600 120" style="enable-background:new 0 0 600 120;" xml:space="preserve">
<style type="text/css">
	.st0{fill:#4260A4;}
	.st1{fill-rule:evenodd;clip-rule:evenodd;fill:#1B3F91;}
	.st2{fill:#5F79B2;}
	.st3{fill:#1B3F91;}
	.st4{fill:#889BC6;}
</style>
<g id="Ebene_2_1_">
	<path class="st0" d="M4.7,100.3c0,0.2,0,0.4,0.1,0.5c0.1,0.2,0.2,0.5,0.2,0.8c0,0.2,0,0.4,0.1,0.5c0.2,0.3,0.5,0.3,0.7,0.1
		c0,0,0.1-0.1,0.2,0c0,0.1,0.1,0.2,0.1,0.3c0,0.2,0,0.3-0.2,0.4c-0.1,0-0.1,0.1-0.1,0.2c-0.1,0.5,0,0.7,0.3,0.9l0.1,0.1
		c0,0.2,0.1,0.4,0.2,0.6c0.2,0.3,0.6,0.4,0.8,0.1v0.1c0,0.4,0,0.7,0.1,1.1c0,0,0,0.1,0.1,0.1c0.1,0.3,0.7,0.3,0.8-0.2
		c0.1-0.3,0.2-0.3,0.4-0.1c0.1,0.1,0.1,0.3,0.2,0.4c0.1,0.2,0,0.3-0.1,0.3c-0.3,0.1-0.5,0.3-0.4,0.7c0,0.1,0,0.1-0.1,0.2
		c-0.1,0.2,0,0.6,0.1,0.7c0.1,0,0.2,0,0.3,0c0,0.5,0.1,0.5,0.4,0.7c0,0,0.1,0,0.1,0.1c0.1,0.1,0.1,0.2,0.2,0.4
		c-0.1,0.3,0,0.5,0.1,0.8c0.1,0.4,0.3,0.5,0.5,0.6s0.4-0.1,0.7-0.1c0,0.1,0,0.2,0.1,0.3c0.1,0.2,0.2,0.3,0.3,0.4
		c0.1,0.2,0.5,0.3,0.6,0.2c0.3-0.2,0.6-0.2,0.8-0.3c0.3-0.1,0.6-0.3,0.6-0.8c0-0.1,0-0.2,0.1-0.2c0-0.1,0.1-0.2,0.1-0.2
		c0.2,0.1,0.4,0.1,0.6,0.3c0.3,0.2,0.5,0.3,0.8,0h0.1c0.2,0,0.4,0.1,0.3,0.4c0,0.1,0,0.2,0,0.3c0,0.4,0.2,0.7,0.5,0.6
		c0.2,0,0.3-0.2,0.5-0.3c0.1,0,0.2-0.1,0.3-0.1c0.2,0,0.4,0,0.6,0.1c0.1,0.2-0.1,0.5,0.1,0.8c0.2,0.2,0.2,0.5,0.5,0.5
		s0.6-0.2,0.8-0.4c0.3-0.3,0-0.7,0.1-1c0.1-0.1,0.3-0.1,0.4-0.2c0.1,0,0.1,0.1,0.2,0.1c0,0.7,0.1,0.8,0.4,0.9s0.7,0,0.8-0.7
		c0-0.2,0-0.4,0.1-0.6c0.1,0.3,0.3,0.6,0.3,0.9c0.1,0.3,0.1,0.6,0.1,0.8c0,0.3,0.2,0.5,0.4,0.5c0.2,0,0.3-0.1,0.4-0.1
		c0,0.2,0,0.5,0.1,0.8c0,0.1,0.1,0.2,0.2,0.2c0.2,0,0.4,0,0.6-0.1s0.4-0.4,0.6-0.1h0.1c0.3,0.1,0.4-0.2,0.6-0.4
		c0.1-0.1,0.1-0.2,0.1-0.4c0-0.2,0-0.4,0.2-0.6c0.1-0.1,0.2-0.3,0.2-0.5c0-0.3,0.1-0.4,0.2-0.5c0.2,0.3,0.3,0.6,0.5,0.8
		c0.2,0.2,0.5,0.2,0.8,0.2c0.1,0,0.3,0,0.3,0.3c0.1,0.4,0.1,0.8,0.2,1.2c0,0.3,0,0.7,0.1,1c0,0.3,0.1,0.7,0.1,1
		c0,0.6-0.1,1.1-0.1,1.7c-0.1,0.7-0.1,1.5-0.4,2.1c0,0,0,0,0,0.1c0,0.2-0.1,0.3,0,0.5H30c0-0.2-0.1-0.4-0.2-0.6
		c-0.1-0.3-0.2-0.5-0.2-0.7c-0.1-0.5-0.1-1-0.1-1.6c-0.1-1-0.1-1.9,0.1-2.9c0.1-0.3,0.2-0.7,0-1v-0.1c0-0.2,0.1-0.4,0.1-0.6
		c0.1,0.1,0.2,0.1,0.3,0.2c0.3,0.4,0.7,0.4,1,0s0.6-0.8,0.9-1.1c0-0.1,0.1-0.1,0.2-0.1c0.3-0.1,0.5-0.1,0.8-0.1c0.1,0,0.2,0,0.3-0.1
		c0.2,0.3,0.4,0.4,0.6,0.3c0.1,0,0.2-0.3,0.3-0.4c0.1,0,0.2,0.1,0.3,0.1s0.2,0,0.3,0c0.1,0.8,0.1,0.9,0.4,0.9c0.2,0,0.4-0.1,0.4-0.8
		c0.3,0.2,0.5,0.6,0.8,0.1c0.1,0.2,0.3,0.3,0.4,0.6c0.2,0.3,0.5,0.2,0.7,0.2c0,0.4,0,0.4,0.3,0.7c0,0.1,0,0.1,0.1,0.2
		s0.2,0.3,0.3,0.3c0.2,0,0.5-0.1,0.7-0.2c0.1-0.1,0.2-0.2,0.2-0.4c0-0.1,0-0.1,0.1-0.2c0.2-0.2,0.3-0.4,0.5-0.5
		c0.1,0.1,0.2,0.2,0.4,0.3c0.3,0.1,0.5,0.2,0.7,0.5c0.2,0.2,0.6,0.1,0.8-0.1c0.1-0.1,0.1-0.3,0.1-0.4c0.1,0.3,0.3,0.4,0.5,0.4h0.1
		c0.2,0,0.4,0.1,0.6,0.1c0,0.3,0.2,0.4,0.4,0.5s0.4,0,0.5-0.3c0.1-0.2,0.1-0.4,0.1-0.6c0-0.3,0-0.5,0.1-0.8c0.1-0.2,0.1-0.4,0.1-0.7
		c0-0.1,0-0.2,0-0.2c0.1-0.1,0.1-0.3,0.1-0.5s0.1-0.3,0.1-0.4c0.1-0.3,0.3-0.5,0.3-0.9c0-0.1-0.1-0.3-0.1-0.4c0-0.2,0-0.3,0.2-0.4
		c0.3,0,0.5-0.3,0.5-0.7c0-0.3,0-0.6,0-0.8c0-0.1,0-0.2,0.1-0.3c0.1-0.2,0.2-0.3,0.2-0.6c0-0.2,0-0.3,0.1-0.5
		c0.2-0.3,0.4-0.6,0.7-0.5c0.1,0,0.3-0.1,0.3-0.2c0.1-0.3,0-0.6,0-0.8c0-0.2,0-0.4,0.2-0.4c0.3,0,0.5-0.3,0.5-0.6c0-0.3,0-0.5,0-0.8
		c0-0.2,0-0.3,0.1-0.4s0.2-0.3,0.1-0.5c0-0.2,0.1-0.4,0.1-0.6c0-0.1,0.1-0.1,0.2-0.2c0.1-0.2,0.1-0.6,0-0.7
		c-0.2-0.2-0.4-0.3-0.6-0.5c-0.1-0.1-0.2-0.2-0.2-0.3c0-0.2-0.1-0.3-0.3-0.4c-0.4,0-0.4,0-0.4-0.6c0-0.1,0-0.1,0-0.2
		c-0.1-0.1-0.1-0.3-0.2-0.4c0-0.1-0.1-0.1-0.2-0.1c-0.2-0.2-0.4-0.4-0.7-0.4c0,0-0.1,0-0.1-0.1c0.2-0.1,0.3,0,0.5-0.1
		c0.2,0,0.5,0.1,0.7-0.2c0.1-0.3,0.2-0.7,0.1-1.1c0.2-0.1,0.3-0.3,0.3-0.6c0-0.2-0.1-0.3-0.1-0.5c0-0.4-0.1-0.5-0.4-0.6
		c0-0.1,0-0.3,0-0.4c-0.1-0.3-0.6-0.7-0.9-0.6c-0.1,0-0.2,0.1-0.3,0.1c-0.1-0.2-0.1-0.3-0.2-0.4c0-0.2-0.2-0.3,0-0.5s0.2-0.5,0-0.8
		c-0.1-0.1-0.1-0.2-0.2-0.3c0.3-0.3,0.5-0.7,0.3-1.3c-0.1-0.2-0.1-0.4-0.1-0.6c0-0.4,0.2-0.7,0.3-1s0.2-0.5,0.1-0.8
		c-0.2-0.7-0.5-1.2-1-1.5c-0.2-0.1-0.3-0.3-0.2-0.6c0-0.1,0-0.1,0-0.2c0-0.2,0-0.3,0.1-0.4s0.2-0.3,0.2-0.5s0-0.4,0.1-0.6
		c0-0.1,0.1-0.1,0.2-0.2c0.2-0.2,0.1-0.4,0.1-0.6c0-0.1-0.1-0.3-0.3-0.3c0,0-0.1,0-0.1-0.1c-0.2-0.2-0.5-0.2-0.4-0.7l0,0
		c-0.1-0.2-0.3-0.2-0.4-0.2c-0.2,0-0.2-0.1-0.2-0.3c0-0.2,0-0.3-0.1-0.5c-0.2-0.5-0.6-0.8-1.1-1c0.1-0.5,0-0.8-0.3-1.1
		c-0.2-0.3-0.5-0.6-0.7-1c-0.1-0.2-0.1-0.4,0-0.6c0.2-0.6,0.1-0.9-0.3-1.3c0,0,0-0.1-0.1-0.1c-0.2-0.2-0.3-0.4-0.5-0.6
		s-0.4-0.4-0.4-0.8c0-0.2,0-0.4-0.2-0.5c-0.1,0-0.2,0-0.3,0c-0.3,0-0.6,0.1-0.9,0.1c-0.9-0.1-1.8-0.3-2.6,0.1h-0.1
		c0-0.2,0-0.4,0-0.6s0-0.5-0.2-0.6c-0.1-0.1-0.2-0.4-0.2-0.6c-0.1-0.3-0.2-0.5-0.5-0.5s-0.6-0.1-1-0.1c-0.1,0-0.2,0.1-0.3,0.2
		c-0.2,0.3-0.4,0.6-0.7,0.8c-0.1,0.1-0.3,0.1-0.3-0.1s0-0.4-0.1-0.5c0-0.1,0-0.3-0.1-0.4s-0.3-0.2-0.4-0.3c0-0.6-0.4-0.9-0.8-0.6
		c0-0.1-0.1-0.2-0.1-0.3c-0.1-0.2-0.1-0.3-0.2-0.4c-0.1-0.2-0.1-0.3-0.3-0.3c-0.2,0-0.3,0.1-0.5,0.2c0-0.1,0-0.2,0-0.3
		c0-0.4-0.5-0.8-0.7-0.6c-0.2,0.2-0.4,0.3-0.5,0.5c-0.2,0.2-0.3,0.5-0.3,0.9c-0.2,0-0.3,0-0.5,0c0-0.2-0.1-0.4-0.4-0.4
		c-0.1,0-0.3,0-0.4,0c-0.2-0.2-0.3-0.2-0.5-0.2s-0.3,0.2-0.3,0.4c0,0.1,0,0.2,0,0.3c-0.2,0.2-0.2,0.5-0.2,0.7
		c-0.2,0.1-0.3,0.2-0.4,0.3c-0.1,0.2,0,0.4,0,0.5c-0.2,0.1-0.3,0.2-0.5,0.3c-0.1-0.3-0.3-0.5-0.5-0.5s-0.5-0.1-0.7,0.2
		c-0.2-0.4-0.5-0.6-0.7-0.4c-0.2,0.1-0.4,0.2-0.6,0.3c-0.2,0-0.3,0.1-0.4,0.3c-0.1,0.3-0.4,0.4-0.6,0.2c-0.2-0.1-0.5,0-0.6,0.2
		c0,0.1-0.1,0.2-0.1,0.3c-0.1-0.1-0.2-0.2-0.3-0.2c-0.1,0-0.3,0-0.4,0c-0.2,0.3-0.4,0.2-0.6,0.3c-0.5,0.1-0.9,0.4-0.7,1.2
		c0,0.2,0,0.3-0.2,0.3c-0.4,0-0.7,0.4-0.8,0.9c0,0.2-0.3,0.7-0.4,0.6c-0.2,0-0.4-0.1-0.6-0.1c-0.1,0-0.1-0.2-0.1-0.3
		c0-0.3-0.2-0.5-0.4-0.5c-0.3,0-0.5,0.2-0.4,0.6c0,0.4-0.1,0.5-0.3,0.7s-0.5,0.4-0.7,0.6c-0.2-0.3-0.5-0.2-0.7-0.3
		c-0.2,0-0.4,0-0.5,0.3c-0.2-0.3-0.4-0.3-0.6-0.3c-0.1,0-0.2,0.1-0.3,0.1s-0.2,0.2-0.3,0.1c-0.4-0.2-0.6,0.1-0.8,0.3
		c-0.2,0.2-0.2,0.8,0,1.1c-0.2,0.1-0.3,0.2-0.4,0.5c0,0.1,0,0.1,0,0.2c-0.1,0.2-0.2,0.4-0.4,0.7c0,0,0,0-0.1,0
		c-0.2,0-0.3,0.1-0.3,0.4s0,0.5,0,0.8c0,0.1,0,0.1,0,0.2c0,0.2-0.1,0.3-0.1,0.5s0,0.4,0,0.6s0.1,0.4,0.1,0.6c0,0-0.1,0.1-0.1,0.2
		c0,0.3-0.1,0.5-0.2,0.7c-0.1,0.1-0.1,0.2-0.2,0.3c-0.1,0.1-0.2,0.2-0.2,0.3c-0.2,0.3-0.3,0.7-0.3,1c-0.1,0.1-0.2,0.2-0.3,0.3
		c0,0-0.1,0-0.1,0.1c-0.2,0-0.3,0.2-0.3,0.5c0,0.2,0,0.4,0.1,0.7c0,0.1,0,0.2,0.1,0.3c0.1,0.1,0.1,0.2,0,0.4
		c-0.1,0.1-0.2,0.3-0.1,0.5c0,0.2,0,0.5,0,0.7c-0.2,0-0.4,0-0.5,0.2c-0.2,0.3-0.4,0.5-0.6,0.8c-0.2-0.3-0.6-0.2-0.8,0.1
		c-0.1,0.2-0.1,0.2-0.2,0.2c-0.3,0-0.5,0.2-0.5,0.6c0,0.1,0,0.2,0,0.3c-0.2,0.3-0.1,0.6,0,0.9c0.1,0.5,0.1,0.9,0.1,1.4
		c0,0.2,0,0.3,0,0.5c0,0.1,0.1,0.3,0.1,0.4c0,0.3,0.1,0.5,0.2,0.8C7,94.8,7,94.9,7,95.1C6.1,95,5.9,95,5.8,95s-0.3,0-0.4,0
		c-0.3,0.2-0.3,0.6-0.3,1c0,0.3,0.1,0.4,0.3,0.5c-0.1,0.4-0.1,0.7,0,1s0.2,0.6,0.4,1c0,0-0.1,0.2-0.2,0.2c-0.2,0-0.3,0-0.5,0
		c-0.2-0.1-0.5,0-0.6,0.3c-0.1,0.2,0,0.7,0.1,0.9C4.6,100,4.7,100.1,4.7,100.3z M19.6,109.6c0-0.1,0.2-0.2,0.3-0.3l0.1,0.1
		c-0.1,0.3-0.1,0.6-0.2,0.9C19.5,110.2,19.6,109.9,19.6,109.6z"/>
	<path class="st1" d="M67.9,120c0-0.5,0-0.9,0-1.3c0.5-0.2,1-0.5,1.6-0.4c0.1-0.3,0-0.6,0.1-0.9c0.3-0.2,0.7-0.3,1-0.6
		c0-0.3,0-0.7,0-1c0.2,0,0.3-0.1,0.5-0.1c0.1-0.4,0-0.8,0.1-1.2c0.3-0.1,0.5-0.3,0.7-0.6c0.1-0.1,0.3-0.2,0.4-0.3v-0.1
		c-0.3-0.1-0.3-0.1-0.2-0.4c0.1-0.3,0.1-0.6,0.3-0.9c0.3-0.1,0.7-0.2,1-0.2c0.1-0.2,0-0.5,0-0.7c0.1-0.1,0.3-0.2,0.4-0.3
		c0.2-0.1,0.3-0.2,0.3-0.5c0-0.2,0-0.3,0-0.5c0-0.3,0-0.3,0.3-0.4c-0.1-0.1-0.2-0.2-0.2-0.3c0-0.2,0-0.4,0-0.6c0-1.2,0-2.3,0-3.5
		c0-0.1,0-0.3,0-0.4c0.1-0.1,0.2-0.1,0.3-0.2c0-0.1,0-0.3,0-0.4c0.1-0.1,0.3-0.2,0.5-0.4c0,0,0-0.1,0-0.2v-0.1
		c0.2-0.1,0.1-0.3,0.3-0.5c0.1-0.1,0.2-0.3,0.2-0.5c0-1.9,0-3.8,0-5.7c0-0.3,0-0.3-0.2-0.5c0-0.2,0-0.3,0.1-0.5
		c-0.1,0-0.2-0.1-0.2-0.1c-0.2,0-0.3-0.1-0.3-0.3v-0.1c-0.1,0-0.1,0-0.2-0.1c-0.1,0-0.1-0.1-0.1-0.2c0.1-0.1,0.1-0.2,0.3-0.2
		c0.1,0,0.2-0.1,0.3-0.1c0.1,0,0.2,0,0.3-0.1c0.1-0.2,0-0.5,0-0.7s-0.1-0.4-0.1-0.6c0.1-0.1,0.3-0.3,0.4-0.4c0-0.1,0-0.2-0.1-0.2
		s-0.1-0.1-0.2-0.1c0.1-0.2,0.2-0.3,0.2-0.5c0.2-0.1,0.2,0.2,0.4,0.2c0.3-0.2,0.4-0.5,0.3-0.8c0-0.1,0-0.2,0-0.3
		c0-0.4,0-0.9,0.1-1.3c0-0.5,0-0.9,0.1-1.4c0-0.2,0-0.4,0-0.7c0-0.2,0-0.4,0-0.6s0-0.4,0-0.7c0-0.2,0-0.3-0.2-0.4
		c-0.1-0.1-0.1-0.2-0.1-0.3c-0.1,0-0.1,0-0.2-0.1c-0.2-0.1-0.4-0.3-0.4-0.6c0-0.2-0.1-0.3-0.1-0.5c-0.1-0.3-0.1-0.6-0.1-0.9
		c0-0.1,0-0.3,0-0.4s0-0.2-0.2-0.3c-0.1-0.1-0.2-0.2-0.2-0.3c0-0.1,0-0.2,0-0.4c-0.1-0.4,0-0.6,0.4-0.8c0.1,0,0.1-0.1,0.1-0.1
		c0-0.3,0-0.5,0-0.8c0.2-0.1,0.4-0.3,0.5-0.5c0.1-0.1,0.2-0.3,0.3-0.4c0.1-0.1,0.2-0.2,0.3-0.3c0-0.1,0-0.2,0-0.3
		c-0.1-1-0.2-2-0.3-2.9c-0.1-0.9-0.2-1.8-0.3-2.7c0-0.2,0-0.4,0-0.5c0-0.2,0-0.3,0.2-0.5c0.2,0,0.3,0.2,0.4,0.4
		c0,0.2,0.1,0.3,0.1,0.5c0.2,1.7,0.4,3.4,0.7,5.1c0,0.1,0.1,0.3,0.1,0.4c0.4,0,0.6-0.2,0.9-0.4c0.1-0.1,0.1-0.3-0.1-0.3
		c-0.1-0.1-0.2-0.2-0.1-0.3c0-0.1,0.1-0.3,0.1-0.4c-0.1-0.2-0.1-0.3-0.2-0.5s-0.1-0.4,0.2-0.6c0.2-0.2,0.4-0.3,0.6-0.3h0.1
		c0.4-0.2,0.7,0,1.1,0c0.1,0,0.2,0.1,0.3,0.2c0,0.1,0,0.1,0.1,0.2c0.2,0.2,0.1,0.4,0,0.6c0,0,0,0.1-0.1,0.1c0.1,0.2,0.2,0.3,0,0.5
		c-0.1,0.4,0.1,0.9,0.5,1c0.3,0.1,0.5,0.3,0.8,0.5c0.4,0.4,0.7,0.8,0.9,1.3c0.1,0.2,0.2,0.4,0.1,0.7c0,0.1,0,0.2,0.1,0.2
		c0.2,0.2,0.3,0.5,0.5,0.8c0.1,0.2,0.1,0.3,0.1,0.5c0,0.3,0,0.6,0.1,0.9c0.1,0.5,0,1.1-0.2,1.6c-0.1,0.2-0.2,0.4-0.5,0.4
		c-0.1,0.2-0.2,0.4-0.1,0.7c0,0.1,0,0.2-0.1,0.3c-0.1,0.1-0.2,0.2-0.4,0.3c0,0.1,0,0.3,0,0.3c0.2,0.2,0.1,0.5,0.2,0.8l0,0
		c0.4,0.1,0.7-0.1,1.1-0.2c0,0.1,0.1,0.1,0.1,0.2c0.1,0.3,0.2,0.7,0.3,1c0,0.1,0,0.2,0,0.3c-0.1,0.1-0.1,0.3-0.1,0.4
		c-0.1,0-0.2,0.1-0.3,0.1c-0.1,0.2,0,0.3,0.1,0.5c0.4,0.3,0.7,0.8,0.9,1.3c0.1,0.2,0.2,0.3,0.3,0.5c0,0.1,0.1,0.1,0.1,0.2
		c0,0.2,0.1,0.3,0.2,0.5c0.1,0.1,0.2,0.2,0.4,0.2c0.1,0,0.3,0.1,0.4,0.1c0.1-0.1,0.1-0.2,0.1-0.3c0-0.2,0.1-0.4,0.2-0.6
		c0-0.1,0.1-0.2,0.1-0.2c0.1-0.3,0.1-0.5,0.2-0.8c0-0.2,0.1-0.3,0-0.5c-0.2-0.1-0.3-0.3-0.5-0.4s-0.3-0.3-0.2-0.6
		c0.1-0.5,0.1-1.1,0.1-1.6c0-0.1,0-0.3,0.1-0.4c0.1-0.4,0.2-0.8,0.4-1.1c0.1-0.4,0.4-0.6,0.6-0.9c0.1,0,0.2,0.1,0.3,0.1
		c0.1,0,0.2,0,0.2-0.1c0-0.2,0-0.3,0.1-0.5c0.2-0.1,0.3-0.1,0.5-0.1c0,0,0,0,0.1,0c0-0.1,0-0.2-0.1-0.2C88,84.6,88,84.3,88,84
		c0-0.1,0-0.2,0-0.2c0.1-0.2,0.3-0.2,0.5-0.3c0.1-0.1,0.2-0.1,0.3,0c0.3,0.1,0.6,0.3,0.9,0.5c0.1,0.1,0.1,0.2,0,0.3
		c-0.1,0.1-0.2,0.2-0.2,0.3c0,0.1-0.1,0.3-0.1,0.4s0.1,0.2,0.2,0.2c0.2,0.1,0.3,0.2,0.3,0.4c0,0.2,0,0.2,0.2,0.2
		c0.3,0,0.4,0.2,0.5,0.5s0.2,0.6,0.4,0.8c0.2,0.3,0.3,0.7,0.3,1.1c0,0.5,0,0.9-0.1,1.4c0,0.1,0,0.2,0,0.3c0,0.2,0,0.5-0.1,0.7
		S91,90.9,91,91.1c0,0.4,0.1,0.9,0.1,1.3c0,0.2,0,0.4-0.1,0.6c-0.1,0.3-0.1,0.5-0.1,0.8c0,0.2,0,0.4,0,0.5c0,0.2-0.1,0.3-0.3,0.3
		h-0.1c-0.2,0.6-0.2,1.2-0.2,1.8c0,0.1,0,0.3,0,0.4c0,0.2-0.1,0.2-0.2,0.2l0,0c-0.1,0-0.2-0.1-0.3,0c-0.1,0.1-0.1,0.3-0.1,0.4
		c0.1,0,0.2,0,0.3,0c0.4,0,0.6,0.1,0.8,0.4c0.1,0.2,0.2,0.3,0.4,0.4c0,0,0,0,0,0.1v0.1c-0.4,0.3-0.4,0.7-0.4,1.2c0,0.6,0,1.2,0,1.9
		c0,0.8,0,1.5,0,2.3c0,0.5-0.1,0.3,0.3,0.8c0,0.1,0,0.1,0,0.2s0.3,0.1,0.3,0.3c0,0.1,0,0.2,0.1,0.4c0.1,0,0.1,0,0.2,0
		c0.6,0,1.3,0,1.9,0c0.1,0,0.2,0,0.3,0c0-0.1,0-0.1,0-0.1c0-0.5,0-1,0-1.4c0,0,0-0.1-0.1-0.1c-0.3-0.2-0.3-0.4,0.1-0.5
		c0.3-0.1,0.5-0.2,0.8-0.2c0.1,0,0.2,0,0.3,0c0.3,0.1,0.7,0.2,1,0.3c0.1,0,0.2,0.2,0.1,0.4c-0.1,0.1-0.1,0.2-0.1,0.3
		c0,0.4,0,0.9,0,1.3v0.1c0.2,0.1,0.4,0,0.6,0s0.4,0,0.7,0c0.2,0,0.4,0,0.7,0c0.2,0,0.4,0,0.6,0c0-0.1,0-0.1,0-0.1c0-0.5,0-1,0-1.4
		c-0.4-0.4-0.3-0.5,0.1-0.6h0.1c0.7-0.3,1.3-0.1,1.9,0.2c0,0.1,0.1,0.2,0,0.3c-0.2,0.2-0.1,0.4-0.1,0.5c0,0.4,0,0.8,0,1.2
		c0.1,0,0.1,0.1,0.2,0.1c0.8,0,1.6,0,2.3,0h0.1c0-0.5,0-1.1,0-1.6l-0.1-0.1c-0.2-0.2-0.1-0.3,0.1-0.4c0.3-0.1,0.5-0.2,0.8-0.2
		c0.1,0,0.2,0,0.3,0c0.3,0.1,0.7,0.2,1,0.3c0.1,0,0.2,0.3,0.1,0.4s-0.1,0.2-0.1,0.3c0,0.4,0,0.8,0,1.2c0,0.1,0,0.1,0.1,0.2h0.1
		c0-0.2,0.1-0.4,0.3-0.6c0.1-0.1,0.1-0.1,0.2-0.2s0.1-0.2,0.1-0.3c-0.1-0.1,0-0.2,0-0.3c0.1-0.1,0.1-0.2,0.2-0.3
		c0.1-0.1,0.1-0.2,0.1-0.3c0-1.1,0-2.2,0-3.3c0-0.1,0-0.2,0-0.2c-0.3-0.2-0.1-0.6-0.3-0.9c-0.1-0.1,0-0.2,0.1-0.3
		c0.1,0,0.1-0.1,0.2-0.1c0-0.1-0.1-0.1-0.2-0.1s-0.2-0.1-0.2-0.2c0-0.2-0.1-0.4-0.2-0.6c0-0.2-0.1-0.3-0.3-0.4
		c-0.1-0.1-0.1-0.2-0.2-0.2c-0.1-0.4-0.3-0.7-0.3-1.1c0-0.1,0-0.2-0.1-0.3c-0.1-0.4-0.1-0.8,0-1.2c0-0.2,0.2-0.3,0.3-0.4
		c0.4-0.2,0.7-0.3,1.1-0.4c0.1,0,0.3-0.1,0.4-0.1c0-0.1,0.1-0.2,0.1-0.4c0-0.3,0.1-0.7,0.2-1s0.1-0.7-0.1-1.1
		c-0.2,0-0.4-0.2-0.7-0.2c-0.1,0-0.1,0-0.2-0.1c-0.1,0-0.1-0.1-0.2-0.1c-0.4,0-0.5-0.3-0.7-0.6c-0.1-0.2-0.2-0.2-0.4-0.2
		c-0.3,0-0.3-0.1-0.3-0.3c0-0.1,0.1-0.2,0.1-0.3c0.1-0.1,0.1-0.3,0.2-0.4c-0.2-0.3-0.1-0.7-0.2-1c0-0.1,0-0.2,0.1-0.2
		c0.1-0.1,0.2-0.1,0.3-0.2c0-0.2-0.2-0.1-0.3-0.2c0.1-0.2,0.2-0.2,0.3-0.2c0.2,0.1,0.3,0.1,0.3,0.3c0,0.2,0.2,0.5,0,0.7
		c0,0.1,0,0.2,0,0.3c0.2,0.2,0.5,0.5,0.7,0.7c0.3,0.3,0.6,0.5,1,0.4c0.1,0,0.2,0,0.3-0.1c0.1-0.1,0.2-0.1,0.2-0.1c0.1,0,0.2,0,0.2,0
		c0-0.3-0.1-0.6-0.1-1c0-0.3,0.1-0.4,0.3-0.5c0.1-0.1,1-0.2,1.1-0.2c0.3,0,0.4,0.1,0.4,0.4c0,0.4,0,0.8,0,1.2c0.1,0,0.2,0.1,0.3,0.1
		c0.1,0.1,0.2,0.1,0.3,0.2c0.1,0.1,0.2,0.2,0.3,0.2c0.2,0.1,0.4,0.3,0.5,0.6c0,0.1,0.1,0.2,0.1,0.3c0.1-0.1,0.2-0.1,0.1-0.2
		c-0.1-0.2-0.2-0.3-0.1-0.5v-0.1c-0.2-0.3-0.1-0.6,0-1c0-0.1,0-0.1,0-0.2c-0.1-0.3,0-0.5-0.1-0.8v-0.1c-0.2-0.3,0-0.5,0.2-0.6
		c0.1-0.5,0-3.5,0-4.4c-0.3-0.1-0.4-0.3-0.4-0.7c0-0.2-0.1-0.3-0.1-0.5c0-0.1,0-0.2,0.2-0.3c0.2,0,0.3-0.1,0.5-0.2
		c0.1-0.1,0.2-0.1,0.4-0.1c0-0.1,0-0.2,0-0.3c0-0.1,0-0.1-0.1-0.2c-0.1-0.3,0-0.4,0.3-0.7c0-0.1,0-0.3,0-0.5c0-0.1,0-0.3,0.2-0.3
		c0.1-0.1,0.2-0.1,0.3-0.2c0,0,0-0.1,0.1-0.2c-0.2,0-0.3,0-0.4,0c-0.2,0-0.2-0.1-0.2-0.3c0-0.2,0-0.5,0-0.7c0.1-1,0.3-1.9,0.4-2.9
		c0.1-0.4,0.1-0.7,0.1-1.1c0-0.5,0.1-1.1,0.1-1.6c0-0.4,0-0.8,0.1-1.2l0,0c0-0.7,0.1-1.4,0.1-2.1c0-0.4,0-0.9,0.1-1.3
		c0-0.2,0-0.4-0.1-0.5c-0.2-0.5-0.2-1.1-0.2-1.7c0-0.5,0.1-0.9,0.2-1.4c0-0.2,0-0.3,0.2-0.4c0.2-0.1,0.3-0.3,0.6-0.4
		c0.1,0,0.2,0,0.3,0c0.3,0,0.5-0.2,0.6-0.4s0.2-0.2,0.4-0.3c0.1-0.1,0.1-0.2,0-0.3c-0.2-0.2-0.1-0.5-0.1-0.7c0,0,0-0.1,0.1-0.2
		c0.1-0.1,0.1-0.2,0.2-0.4c0-0.2,0.1-0.3,0.3-0.3c0.1,0,0.1-0.1,0.2-0.1c0.1-0.1,0.2-0.2,0.4-0.2c0.2,0,0.4-0.1,0.6,0.1
		c0.2,0.1,0.3,0.3,0.5,0.5l0.1,0.1c0.1,0.3,0.2,0.7,0.2,1s-0.1,0.6-0.3,0.8c0.2,0.2,0.4,0.3,0.7,0.5c0.2,0.1,0.3,0.3,0.2,0.6v0.1
		c0.2,0.2,0.4,0.4,0.7,0.5c0.1,0,0.2,0.1,0.2,0.2c0.1,0.1,0.2,0.3,0.2,0.4c0.1,0.4,0.4,0.8,0.6,1.2c0.1,0,0.3,0,0.4,0.1
		c0.1,0,0.2,0.1,0.3,0.2l0,0c0.1,0.4,0.2,0.4-0.2,0.7c0,0,0,0-0.1,0.1c0,0.2,0,0.3,0.1,0.5c0.1,0.4,0.1,0.8,0,1.2
		c0,0.1-0.1,0.3-0.1,0.4c-0.1,0.4-0.1,0.8-0.3,1.1c0,0.1-0.1,0.2-0.1,0.2c0,0.3,0,0.6,0,0.9c0,0.1,0,0.1,0,0.2
		c0,0.2-0.1,0.3-0.3,0.4c-0.1,0-0.2,0.1-0.4,0.2c0.1,0.4,0,0.8,0.1,1.1c0.1,0.4,0.1,0.7,0.2,1.1c0.1,0.2,0.1,0.4,0.1,0.6
		c0,0.1-0.1,0.2-0.2,0.3c-0.1,0.1-0.2,0.1-0.4,0.2c-0.1,0.1-0.2,0.1-0.2,0.3c0,0.6,0,1.3,0,1.9c0,0.4,0,0.8,0,1.1
		c0,0.2-0.1,0.4-0.3,0.5c-0.1,0-0.2,0.1-0.2,0.1c0.2,0,0.3,0,0.5,0c0.1,0,0.2,0,0.3,0c0.1,0,0.2,0.1,0.2,0.2v0.1
		c0,0.2,0.1,0.4,0.2,0.6c0,0.1-0.1,0.1-0.1,0.2c-0.2,0.2-0.1,0.5,0.2,0.6c0.2,0.1,0.4,0.1,0.6,0.2s0.2,0.1,0.2,0.3
		c-0.1,0.4-0.2,0.8-0.5,1.2c-0.1,0.1-0.2,0.2-0.2,0.4c0,1.4,0,2.7,0,4.1c0.1,0.1,0.1,0.1,0.2,0.1c0.2,0.1,0.2,0.3,0.2,0.6
		c-0.1,0.2,0,0.4,0,0.6s0,0.4-0.2,0.6c0,0.1,0.1,0.2,0.1,0.2c0.1,0.1,0.1,0.3,0,0.4c0,0.1-0.1,0.2-0.1,0.3c0,0.1,0,0.2,0.1,0.3
		c0.1-0.1,0.2-0.1,0.2-0.1c0.2-0.2,0.5-0.4,0.7-0.7c0.1-0.2,0.3-0.3,0.5-0.4c0-0.3,0.2-0.5,0.3-0.7c-0.1-0.1-0.1-0.1-0.1-0.2
		c-0.1-0.1-0.1-0.2,0-0.3c0.1-0.2,0.3-0.4,0.5-0.5c0.3,0.1,0.7,0.1,1,0.2c0.1,0,0.1,0,0.2,0.1c0.2,0.1,0.2,0.3,0.1,0.5
		c-0.2,0.2-0.2,0.3-0.3,0.6c-0.1,0.2-0.1,0.4-0.1,0.6c0,0.1,0,0.1,0,0.2c0.1,0.2,0.1,0.4,0.1,0.6c0.2,0.4,0.7,0.5,0.8,1
		c0.1-0.1,0.2-0.1,0.2-0.1c0.1-0.1,0.1-0.3,0.1-0.4l0.1-0.1l0.1,0.1c0,0.1,0,0.3,0,0.4c0.1,0.1,0.3,0,0.4,0.1c0.1,0,0.1,0,0.2,0
		l0.1,0.1c0,0,0,0.1-0.1,0.1s-0.1,0-0.2,0s-0.3,0-0.4,0.1c-0.1,0.3-0.1,0.5-0.1,0.8c0.1,0.2,0.1,0.4,0.2,0.6c0.2,0.2,0.2,0.3,0,0.6
		v0.1c0.1,0.1,0.1,0.1,0.2,0.1c0.5-0.1,0.8,0.1,1.2,0.4c0.3,0.2,0.5,0.5,0.7,0.8c0.2,0.2,0.2,0.6,0,0.8l0,0
		c-0.5,0.4-0.6,0.9-0.8,1.4c-0.1,0.4-0.3,0.8-0.6,1c0,0.2,0,0.4,0.1,0.5s0.1,0.2,0,0.3c0,0.1-0.1,0.1-0.1,0.2c0.1,0.2,0,0.3-0.1,0.4
		l0,0v0.1c0.1,0.3-0.2,0.5-0.2,0.8c0,1.1,0,2.2,0,3.3c0,0.2,0.1,0.4,0.2,0.6c0.2,0.1,0.2,0.3,0.1,0.6c0.1,0,0.1,0.1,0.2,0.1
		s0.2,0.1,0.2,0.2c0.1,0.2,0.1,0.3,0.2,0.5c0.1,0,0.1-0.1,0.1-0.2c0-0.3,0-0.6,0-1c0-0.2,0-0.3-0.2-0.5c-0.1-0.1-0.1-0.3,0.1-0.3
		c0.3-0.1,0.6-0.2,1-0.3c0.1,0,0.2,0,0.3,0c0.3,0.1,0.6,0.2,0.8,0.3c0.2,0.1,0.3,0.2,0.1,0.4c0,0.1-0.1,0.1-0.1,0.2c0,0.5,0,1,0,1.5
		c0.3,0.1,0.6,0,0.9,0c0.3,0,0.6,0,0.8,0c0.3,0,0.6,0,0.9,0c0-0.1,0-0.1,0-0.2c0-0.5,0-0.9,0-1.4c-0.1,0-0.1-0.1-0.1-0.1
		c-0.2-0.2-0.1-0.3,0.1-0.4c0.3-0.1,0.6-0.2,0.9-0.3c0.1,0,0.2,0,0.3,0c0.3,0.1,0.6,0.2,0.8,0.2c0.2,0.1,0.3,0.2,0.1,0.4
		c0,0.1-0.1,0.1-0.1,0.2c0,0.5,0,1,0,1.5c0.3,0.1,0.6,0,0.8,0.1c0.3,0,0.6,0,0.9,0c0.3,0,0.6,0,0.9,0c0-0.1,0-0.2,0-0.4
		c0-0.3,0-0.6,0-1c0-0.2,0-0.3-0.2-0.4c-0.1-0.1-0.1-0.3,0.1-0.4c0.3-0.1,0.6-0.2,0.9-0.3c0.1,0,0.2,0,0.3,0
		c0.3,0.1,0.6,0.2,0.8,0.2c0.2,0.1,0.3,0.2,0.1,0.4c-0.1,0.1-0.1,0.2-0.1,0.3c0,0.4,0,0.9,0,1.3v0.1c0.3,0.1,1.7,0.1,2.3,0
		c0.1-0.1,0.1-0.2,0.2-0.3c0.1-0.1,0.2-0.1,0.3-0.2c0-0.1,0-0.2-0.1-0.2v-0.1c0.2-0.3,0.3-0.6,0.3-1c0-1.1,0-2.3,0-3.5
		c0-0.4,0-0.8-0.1-1.2c-0.1,0-0.2-0.1-0.3-0.1c-0.1-0.2-0.2-0.3-0.3-0.5c0.2-0.1,0.4-0.2,0.6-0.2c0-0.1,0.1-0.2,0.1-0.3
		c0.1,0,0.3-0.1,0.5-0.1c0-0.2-0.2-0.3-0.2-0.5s0.1-0.4,0-0.6s-0.1-0.4,0-0.6c0-0.1,0-0.3,0-0.4c0-0.9,0.1-1.7,0.1-2.6
		c0-0.1,0-0.1,0-0.2c0.2-0.7,0.2-1.5,0.2-2.3c0-0.2,0-0.5,0-0.7c-0.1-0.1-0.2-0.1-0.3-0.2c-0.2-0.1-0.3-0.3-0.3-0.5
		c0-0.1-0.1-0.3-0.2-0.4c-0.1-0.1-0.1-0.2-0.1-0.3c0-0.4,0-0.8,0.2-1.1c0.1-0.2,0.2-0.3,0.2-0.5c0-0.1,0.1-0.2,0.1-0.2
		c0.1-0.1,0.1-0.3,0.1-0.5c0-0.1,0-0.2,0-0.3c0-0.1,0.1-0.3,0.3-0.3c0.1,0,0.2-0.1,0.3-0.2V86c0.1-0.3,0.1-0.3,0.4-0.4
		c0.2,0,0.3-0.1,0.5-0.1c0-0.2,0-0.3,0-0.4s-0.1-0.1-0.1-0.2l-0.1-0.1c-0.2-0.4-0.2-0.5,0.2-0.7c0.2-0.1,0.5-0.2,0.7-0.3
		c0.1,0,0.2,0,0.3,0c0.3,0,0.5,0.2,0.7,0.4c0.1,0.1,0.1,0.2,0.1,0.3v0.1c0.1,0.3,0,0.5-0.2,0.6c-0.1,0-0.1,0.1-0.2,0.2
		c0.1,0.1,0.2,0.1,0.2,0.2h0.1c0.5,0.1,0.5,0.1,0.5,0.6c0,0,0,0,0,0.1c0.1,0.1,0.2,0.1,0.3,0.2s0.1,0.2,0.2,0.3
		c0.1,0.1,0.1,0.2,0.2,0.3c0.1,0.1,0.2,0.3,0.3,0.5c0.1,0.3,0.1,0.6,0.4,0.8c0,0,0,0.1,0.1,0.1c0,0.3,0,0.5-0.1,0.7
		c-0.1,0.1-0.1,0.2-0.2,0.3c-0.1,0.3-0.3,0.6-0.5,0.7s-0.3,0.2-0.4,0.3c0.1,0.8,0.1,1.6,0.1,2.4c0,0.5,0,1.1,0.1,1.6
		c0,0.1,0,0.1,0,0.2c0.3,0.1,0.5-0.1,0.8,0c0.2-0.2,0.4-0.4,0.4-0.7c0-0.1,0-0.1,0.1-0.2c0.2-0.4,0.3-0.8,0.2-1.2c0-0.1,0-0.1,0-0.2
		c0.1-0.3,0-0.6-0.2-0.9c0-0.1,0-0.2,0-0.2c0.1-0.2,0.1-0.5,0.1-0.7s0.1-0.3,0.3-0.3s0.3,0,0.4-0.1c0.1-0.1,0.2,0,0.4,0
		c0,0.1,0.1,0.2,0.1,0.2c0,0.3,0.1,0.5,0.3,0.7c0,0,0.1,0.1,0.1,0.2c0.1,0.2,0.2,0.3,0.4,0.4s0.3,0.2,0.4,0.4c0,0.1,0.1,0.1,0.1,0.1
		c0.5,0.3,0.6,0.8,0.7,1.3c0.1,0.4,0.1,0.8,0.1,1.1c0,0.1,0,0.2,0.1,0.3c0.2,0,0.3-0.1,0.4-0.3c0.1-0.2,0.1-0.5,0.1-0.7
		c-0.1-0.6-0.1-1.3-0.2-1.9c0-0.3,0-0.6,0.1-0.9c0.1-0.2,0.2-0.4,0.1-0.7c0-0.1,0-0.2,0.1-0.4c0,0,0-0.1-0.1-0.1
		c-0.3,0-0.6-0.2-0.9-0.2c-0.1,0-0.1,0-0.2,0c-0.1,0-0.2-0.1-0.2-0.3c0-0.4,0-0.8,0-1.2c0-0.2,0-0.4,0-0.7c0-0.6,0-1.1,0-1.7
		c0-0.4,0-0.7,0.1-1.1c0.1-0.6,0.2-1.2,0.3-1.8c0-0.1,0-0.1,0.1-0.2c0-0.2,0.1-0.3,0.1-0.5c-0.1-0.1-0.2-0.1-0.3-0.2
		c-0.2-0.2-0.2-0.5,0-0.7c0.1-0.1,0.2-0.2,0.2-0.4c0-0.1,0.1-0.2,0.1-0.2c0.1-0.1,0.1-0.2,0.1-0.3c0-0.3,0.2-0.5,0.4-0.7
		s0.4-0.3,0.7-0.4c0.1,0,0.2-0.1,0.2-0.1c0.2-0.2,0.4-0.3,0.6-0.5c-0.1-0.1-0.1-0.1-0.2-0.2c-0.2-0.1-0.2-0.3-0.3-0.5
		c0-0.1,0-0.1,0-0.2c0.1-0.2,0.1-0.4,0.2-0.7c0.1-0.3,0.2-0.5,0.6-0.5l0.1-0.1c0.2-0.1,0.4-0.2,0.6-0.2c0.2,0,0.4-0.1,0.6-0.1
		c0.1,0,0.3,0,0.4,0.1h0.1c0.4-0.1,0.6,0.2,0.8,0.5c0,0.3,0.1,0.6,0,0.9c0,0.3-0.2,0.4-0.3,0.6c0,0-0.1,0-0.2,0c-0.1,0-0.2,0-0.2,0
		c-0.1,0.1-0.2,0.3-0.4,0.4c-0.1,0.1-0.1,0.3,0.1,0.4h0.1c0.3,0,0.4,0.2,0.5,0.4c0.1,0.1,0.2,0.3,0.3,0.3s0.2,0.1,0.2,0.2
		c0.3,0.3,0.5,0.6,0.8,0.9c0.1,0.1,0.2,0.2,0.2,0.4c0,0.1,0,0.2,0.1,0.2c0.1,0.1,0.3,0.2,0.5,0.4c0,0.2,0.1,0.4,0.1,0.6
		c0,0.1,0,0.2,0,0.3c0.1,0.3,0,0.5,0,0.8c0,0.1-0.1,0.1-0.1,0.2c-0.1,0.1-0.2,0.1-0.3,0.2c0,0.3,0,0.5,0,0.8s-0.1,0.6-0.2,0.8
		c-0.1,0.1-0.1,0.3-0.2,0.4c0,0.2,0.1,0.3,0.1,0.5s0,0.3,0,0.5c0,0.6-0.1,1.2-0.1,1.8c0,0.2,0,0.4,0,0.6c0,0.3-0.1,0.5-0.4,0.5
		c-0.2,0-0.4,0.1-0.6,0.1c-0.1,0.4-0.3,4.5-0.2,5.1c0.3,0.1,0.7,0,1,0.1c0,0.1,0,0.2,0.1,0.3c0.3,0.1,0.5,0.2,0.8,0.2
		c0.1,0,0.1,0.1,0.1,0.2c-0.2,0.1-0.3,0.3-0.2,0.5c-0.1,0-0.1,0.1-0.2,0.1c-0.2,0.1-0.3,0.1-0.3,0.3c0,0.2,0,0.3-0.1,0.4
		s0,0.2,0,0.3c0,0.4,0,0.8,0,1.2c0,1.5,0,3,0,4.5c0,0.2,0,0.5,0.2,0.6c0,0.2,0.3,0.3,0.4,0.4c0,0.1-0.1,0.1-0.1,0.2s0,0.2,0.1,0.2
		c0.4,0.1,0.4,0.3,0.4,0.6c0,0.1,0,0.2,0.1,0.2c0.1,0.1,0.1,0.2,0.1,0.4c0,1.5,0,3,0,4.6c0.1,0,0.1,0.1,0.2,0.1c0.1,0.2,0,0.5,0,0.7
		c0,0.5,0.1,0.6,0.6,0.8h0.1c0.1,0.4,0.1,0.5,0,0.9c0.1,0,0.2,0,0.2,0c0.2,0,0.4,0,0.6,0c0.1,0,0.3,0.1,0.3,0.2
		c0.1,0.3,0.2,0.7,0.3,1c-0.1,0-0.1,0.1-0.1,0.1s-0.1,0.1-0.2,0.1c0.1,0,0.2,0,0.2,0c0.1,0,0.2,0.1,0.3,0.2c0.1,0.3,0.3,0.5,0.7,0.6
		c0,0.4,0,0.8,0.1,1.1c0.2,0.2,0.2,0.2,0.3,0.4c0,0.2,0.1,0.4,0.1,0.7c0.4,0.2,0.8,0.4,1.3,0.6c0,0.3,0,0.7,0.1,1
		c0.5,0.1,0.9,0.3,1.4,0.4c0,0.4,0,0.8,0,1.2c-0.1,0-0.2,0-0.3,0s-0.2,0-0.4,0c-31.1,0-62.2,0-93.3,0C68.3,120,68.1,120,67.9,120z
		 M153.4,93.8c0.1-1.6,0-3.1,0.1-4.6v-0.1c-0.1,0-0.2,0-0.2,0.1s0,0.3,0,0.4c0,0.4,0,0.7,0,1.1s-0.1,0.8-0.3,1.2
		c-0.2,0.6-0.1,1.2,0.2,1.8C153.2,93.8,153.2,93.8,153.4,93.8z M150.9,91.7c-0.2,0.5-0.3,1.1-0.4,1.6c0,0.1,0,0.3,0,0.5
		C150.9,93.1,150.9,92.4,150.9,91.7z M76,92.8c0.1,0.1,0.1,0.2,0.1,0.3c0,0,0.1,0,0.2,0c0.1-0.2,0-0.3-0.1-0.4
		C76.2,92.7,76.1,92.7,76,92.8z M150.9,89.7L150.9,89.7L150.9,89.7L150.9,89.7z"/>
	<path class="st2" d="M486.9,106.1c-0.4,0.2-0.8,0.4-1.3,0.6c0.6,0.7,0.3,1.6,0.3,2.4c0,3.6,0,7.3,0,10.9h41.5c0-0.1,0-0.1,0-0.2
		c0-3.8,0-7.6,0-11.4c0-0.6-0.1-1.2,0.5-1.7c-0.3-0.2-0.6-0.3-0.8-0.4c-2.8-1.3-5.6-2.6-8.4-3.9c-0.3-0.2-0.5-0.3-0.5-0.7
		c0-1.6,0-3.2,0-4.8c0-0.6,0.1-0.9,0.7-1c0,0,0-0.1,0.1-0.1c-4.1-4.9-8.1-9.8-12.3-14.8c-2.9,3.4-5.7,6.8-8.6,10.3
		c0-7.6,0-15,0-22.5c0.2,0,0.4,0,0.6,0c0-0.4,0-0.8,0-1.3c-1,0-1.9,0-2.9,0c0-3.6,0-7.2,0-10.8c0.2,0,0.3,0,0.4-0.1
		c0-0.2,0-0.4,0-0.5c-0.2-0.5-0.4-1.1-0.5-1.6c-0.2-2-0.3-3.9-0.5-5.9c-0.3-4.2-0.7-8.4-1-12.5s-0.7-8.3-1-12.4
		c0-0.3-0.1-0.5-0.2-0.7c-0.1,0-0.1,0-0.2,0c-0.1,0.2-0.2,0.4-0.2,0.7c-0.1,1-0.2,2.1-0.3,3.1c-0.4,4-0.7,8.1-1.1,12.1
		c-0.4,4.5-0.8,9.1-1.3,13.6c-0.1,1.3,0,2.6-0.7,3.8c-0.1,0.1,0,0.3,0.1,0.4c0.1,0.2,0.2,0.4,0.2,0.5c0,3.3,0,6.5,0,9.8
		c0,0.2,0,0.3,0,0.5c-1,0-1.9,0-2.9,0c0,0.5,0,0.8,0,1.3c0.2,0,0.3,0,0.5,0c0,0.2,0,0.4,0,0.5c0,5.2,0,10.5,0,15.7
		c0,6.4,0,12.8,0,19.2c0,0.4,0,0.8,0,1.2C487.2,105.8,487.1,106,486.9,106.1z M494.6,58.9c0.1,0.2,0.2,0.4,0.2,0.6
		c0,2.6,0,5.1,0,7.7c0,0.3,0,0.5-0.4,0.3C494.2,65,494.3,59.3,494.6,58.9z M492.2,59.6c0.2-0.2,0.4-0.4,0.5-0.6
		c0.2,0.2,0.5,0.4,0.5,0.6c0,2.6,0,5.2,0,7.8c0,0,0,0.1-0.1,0.1c-0.3,0-0.6,0-1,0c0-0.1,0-0.3,0-0.4c0-2.4,0-4.9,0-7.3
		C492.2,59.7,492.2,59.6,492.2,59.6z M490.7,59.4c0-0.1,0.1-0.3,0.2-0.5c0.3,0.5,0.4,6.3,0.2,8.6c-0.3,0.1-0.4,0.1-0.4-0.3
		C490.7,64.6,490.7,62,490.7,59.4z"/>
	<g>
		<path class="st3" d="M414.1,120.1c0-8.9,0-17.8,0-26.7c-1.1,0-2.1,0-3.1,0c0,0,0,0,0-0.1c0.1-0.1,0.1-0.1,0.2-0.2
			c1.5-1.1,3.1-2.1,4.6-3.2c3.1-2.1,6.2-4.2,9.3-6.4c3.1-2.1,6.1-4.2,9.2-6.3c0.1,0,0.1-0.1,0.2-0.2c0-0.2,0-0.4,0-0.7
			c0-0.1,0-0.2-0.1-0.2c-0.3-0.5-0.5-0.9-0.8-1.4c-0.8,0-1.6,0-2.5,0c0.4-0.8,0.8-1.5,1.3-2.2c-0.4-0.7-0.8-1.4-1.2-2.2
			c0.8,0,1.7,0,2.5,0c0.4-0.7,0.8-1.4,1.2-2.2c0.4,0.7,0.8,1.4,1.2,2.1c0.8,0,1.6,0,2.4,0v0.1l0,0c0,0,0,0.1-0.1,0.1
			c-0.4,0.6-0.7,1.3-1.1,1.9c0.2,0.3,0.4,0.7,0.6,1.1s0.4,0.7,0.6,1.1c-0.8,0-1.6,0-2.5,0c-0.3,0.5-0.6,1-0.8,1.5c0,0.1,0,0.2,0,0.3
			c0,0.2,0,0.3,0,0.5c1.1,0.8,2.3,1.5,3.4,2.3s2.3,1.5,3.4,2.3s2.3,1.5,3.4,2.3s2.3,1.5,3.4,2.3s2.3,1.5,3.4,2.3s2.3,1.5,3.4,2.3
			s2.3,1.5,3.4,2.3c-0.2,0.1-0.4,0-0.7,0.1c-0.2,0-0.4,0-0.7,0c-0.2,0-0.5,0-0.7,0s-0.4,0-0.7,0c0,1.1,0,2.2,0,3.3
			c0,1.1,0,2.2,0,3.4c0,1.1,0,2.2,0,3.3c0,1.1,0,2.2,0,3.4c0,1.1,0,2.2,0,3.3c0,1.1,0,2.2,0,3.3c0,1.1,0,2.2,0,3.4
			c0,1.1,0,2.2,0,3.3C442.2,120.1,428.2,120.1,414.1,120.1z M442.9,116.8c0.1,0,0.1,0,0.2,0c1.5,0,3.1,0,4.6,0c0.2,0,0.4,0,0.7,0
			c0.2,0,0.3-0.1,0.3-0.3c0-0.1,0-0.1,0-0.2c0-2.2,0-4.4,0-6.6c0-1.8,0-3.6,0-5.4c0-0.9-0.1-1.7-0.4-2.5c-0.4-1.2-1.2-2.1-2.2-2.8
			c-0.2-0.1-0.3-0.1-0.5,0c-0.9,0.6-1.5,1.3-2,2.2c-0.5,1-0.7,2-0.7,3.1c0,2,0,4.1,0,6.1c0,1.9,0,3.8,0,5.7
			C442.8,116.5,442.8,116.7,442.9,116.8z M420.7,116.8c0.1,0,0.2,0,0.3,0c1.7,0,3.4,0,5.1,0c0.3,0,0.4,0,0.4-0.4c0-0.2,0-0.5,0-0.7
			c0-3.7,0-7.4,0-11.1c0-0.5,0-1-0.1-1.5c-0.1-0.7-0.4-1.4-0.7-2.1c-0.5-0.8-1.1-1.4-1.9-2c-0.1-0.1-0.3-0.1-0.4,0
			c-0.5,0.3-0.9,0.7-1.3,1.1c-0.9,1.1-1.4,2.4-1.5,3.8c0,1,0,2,0,3c0,3.1,0,6.2,0,9.4C420.7,116.5,420.7,116.6,420.7,116.8z
			 M434,71.3c-0.3,0.5-0.6,1-0.9,1.5c0.3,0.5,0.6,1,0.9,1.5c0.6,0,1.1,0,1.7,0c0.3-0.5,0.6-1,0.9-1.5c-0.3-0.5-0.6-1-0.9-1.5
			c-0.1,0-0.2,0-0.2,0C434.9,71.3,434.5,71.3,434,71.3z M445.7,97.2c0.7,0,1.4-0.6,1.4-1.3c0-0.7-0.6-1.3-1.3-1.4
			c-0.8,0-1.4,0.6-1.4,1.4C444.4,96.6,445,97.2,445.7,97.2z M422.3,95.8c-0.1,0.7,0.6,1.4,1.3,1.4c0.8,0,1.4-0.7,1.4-1.3
			c0-0.8-0.6-1.4-1.3-1.4C422.8,94.5,422.2,95.2,422.3,95.8z M432.7,72.1c0.2-0.3,0.3-0.5,0.5-0.8c-0.5-0.1-0.7-0.1-0.9,0
			C432.4,71.6,432.5,71.9,432.7,72.1z M437.4,71.3c-0.3,0-0.6,0-0.9,0c0.2,0.3,0.3,0.5,0.5,0.8C437.1,71.9,437.2,71.6,437.4,71.3z
			 M433.2,74.3c-0.2-0.3-0.3-0.5-0.5-0.8c-0.2,0.3-0.3,0.5-0.5,0.8C432.6,74.3,432.8,74.3,433.2,74.3z M436.9,73.5
			c-0.2,0.3-0.3,0.5-0.5,0.8c0.3,0,0.6,0,0.9,0C437.2,74.1,437.1,73.8,436.9,73.5z M435.3,75c-0.3,0-0.6,0-0.9,0
			c0.2,0.3,0.3,0.5,0.5,0.8C435,75.5,435.1,75.3,435.3,75z M434.8,69.9c-0.2,0.3-0.3,0.5-0.4,0.8c0.3,0,0.6,0,0.9,0
			C435.1,70.4,435,70.1,434.8,69.9z"/>
	</g>
	<g>
		<path class="st0" d="M271.4,105.4c0-0.6,0-1.2,0-1.8c-0.4,0-0.8,0-1.3,0c0,0.6,0,1.2,0,1.8C270.5,105.4,270.9,105.4,271.4,105.4z"
			/>
		<path class="st0" d="M213.8,120h44.8c0-1.2,0-2.3,0-3.5c0-1.1,0.8-1.9,1.9-1.9c0.9,0,1.8,0.8,1.8,1.9c0,1.2,0,2.3,0,3.5H380
			c0-0.9,0-1.8,0-2.7c0-0.9,0-1.9,0-2.8c0-1.6,1.3-2.6,2.6-2.5c1.3,0.1,2.3,1.1,2.3,2.4c0,1.9,0,3.8,0,5.7h4.6c0-2.2,0-4.4,0-6.6
			c0-1.6,0.6-2.8,1.8-3.8c1-0.9,2.2-1.3,3.5-1.4c1.7-0.1,3.3,0.3,4.6,1.4c1.2,1,1.9,2.3,1.9,3.9c0,2.2,0,4.4,0,6.6h2.4
			c0-2.2,0-4.4,0-6.6c0-1.6,0.6-2.8,1.8-3.9c2-1.7,5.2-2,7.5-0.6c1.7,1,2.6,2.5,2.5,4.5c0,2.2,0,4.4,0,6.5h7.2
			c-0.2-0.8-0.4-1.5-0.7-2.3c-0.3-0.9-0.6-1.9-0.8-2.8c-0.3-0.9-0.5-1.9-0.8-2.8s-0.6-1.9-0.8-2.8c-0.3-0.9-0.5-1.9-0.8-2.8
			s-0.6-1.9-0.8-2.9c0.4,0,0.8,0,1.2,0c-0.1-0.2-0.2-0.3-0.3-0.4c-0.9-1.1-1.8-2.1-2.7-3.2c-0.2-0.2-0.4-0.3-0.7-0.3
			c-7.9,0-15.9,0-23.8,0c-19.1,0-38.2,0-57.3,0c-0.2,0-0.3,0-0.5,0c0-7.9,0-15.8,0-23.7c0.1,0,0.3,0,0.4,0c0.4,0,0.9,0,1.3,0
			c0.1,0,0.3,0,0.3-0.2c-0.1-0.1-0.2-0.1-0.2-0.2c-0.6-0.5-1.1-0.9-1.7-1.4c-0.2-0.1-0.3-0.3-0.4-0.5c-1-1.7-1.9-3.4-2.8-5.1
			s-1.9-3.4-2.8-5.1c-0.2-0.3-0.4-0.5-0.8-0.5c-2.1,0-4.2,0-6.3,0c-0.1,0-0.3,0-0.4,0c-0.1,0.2-0.2,0.4-0.3,0.6
			c-1.9,3.4-3.7,6.7-5.6,10.1c-0.1,0.2-0.3,0.4-0.5,0.6c-0.6,0.5-1.1,1-1.7,1.4c-0.1,0.1-0.1,0.1-0.1,0.2c0.1,0,0.2,0.1,0.2,0.1
			c0.5,0,0.9,0,1.4,0c0.1,0,0.2,0,0.4,0c0,7.9,0,15.8,0,23.7c-0.1,0-0.3,0-0.4,0c-2.4,0-4.8,0-7.2,0c-0.3,0-0.4-0.1-0.6-0.3
			c-0.8-1.1-1.7-2.1-2.5-3.2c-0.1-0.2-0.3-0.3-0.5-0.3c-0.4,0-0.8,0-1.2,0c-0.2,0-0.4,0.1-0.5,0.3c-0.8,1-1.7,2-2.5,3.1
			c-0.2,0.3-0.4,0.4-0.8,0.4c-10.7,0-21.4,0-32.1,0c-0.4,0-0.6,0-0.8,0c-0.3,0-0.4,0-0.4,0l0,0c0-0.5,0-0.9,0-1.4
			c0.2,0,0.4,0,0.7-0.1c-0.1-0.2-0.2-0.3-0.3-0.4c-0.3-0.3-0.6-0.6-0.9-0.9c-0.6-0.6-1.2-1.3-1.7-2c-0.4-0.6-0.9-1.1-1.3-1.7
			c-0.1-0.2-0.3-0.3-0.5-0.3c-0.3,0-0.6,0.1-0.7,0.4c-0.1,0.1-0.1,0.2-0.2,0.3c-1.1,1.5-2.2,2.9-3.6,4.2c-0.1,0.1-0.1,0.1-0.2,0.2
			c0,0.1-0.1,0.1-0.1,0.3c0.2,0,0.5,0,0.7,0.1c0,0.3,0,0.5,0,0.7s0,0.4,0,0.7c-12.7,0-25.4,0-38,0l-1.5,3.4h1.5L213.8,120z
			 M409,103.6c0.7,0,1.4,0,2,0c0.1,0.3,0.1,1.3,0,1.8c-0.7,0-1.3,0-2,0C409,104.8,409,104.2,409,103.6z M397.3,103.6
			c0.3,0,0.7,0,1,0s0.6,0,0.9,0c0.1,0.3,0.1,1.3,0,1.8c-0.6,0-1.3,0-1.9,0C397.3,104.8,397.3,104.2,397.3,103.6z M385.5,103.6
			c0.7,0,1.3,0,2,0c0,0.6,0,1.2,0,1.8c-0.7,0-1.3,0-2,0C385.5,104.8,385.5,104.2,385.5,103.6z M373.8,103.6c0.7,0,1.3,0,2,0
			c0,0.6,0,1.2,0,1.8c-0.7,0-1.3,0-2,0C373.8,104.8,373.8,104.2,373.8,103.6z M362.1,103.6c0.7,0,1.3,0,2,0c0,0.6,0,1.2,0,1.8
			c-0.7,0-1.3,0-2,0C362,105.1,362,104.1,362.1,103.6z M350.3,103.6c0.7,0,1.3,0,2,0c0,0.6,0,1.2,0,1.7c-0.2,0.1-1.4,0.1-2,0
			C350.3,104.8,350.3,104.2,350.3,103.6z M338.6,103.6c0.3,0,0.6,0,1,0c0.3,0,0.6,0,1,0c0,0.6,0,1.2,0,1.8c-0.7,0-1.3,0-2,0
			C338.6,104.8,338.6,104.2,338.6,103.6z M328.6,76.8c0.5,0,1,0,1.6,0c0,1.2,0,2.3,0,3.5c-0.6,0-1,0-1.6,0
			C328.6,79.1,328.6,78,328.6,76.8z M324.7,103.8c-0.5,0-0.9,0-1.4,0c0-0.1,0-0.1,0-0.2c0-0.5,0-1,0-1.5s0.4-0.8,0.8-0.7
			c0.3,0,0.6,0.3,0.6,0.7C324.7,102.6,324.7,103.2,324.7,103.8z M323.6,91.2c0-0.5,0-0.9,0-1.3c0-0.2,0.2-0.4,0.3-0.4
			c0.2,0,0.3,0.1,0.3,0.4c0,0.2,0,0.4,0,0.6s0,0.4,0,0.7C324,91.2,323.8,91.2,323.6,91.2z M323.2,76.8c0.5,0,1,0,1.5,0
			c0.1,0.3,0.1,2.8,0,3.4c-0.5,0-1,0-1.5,0C323.2,79.1,323.2,78,323.2,76.8z M317.8,76.8c0.5,0,1,0,1.5,0c0,1.1,0,2.3,0,3.5
			c-0.5,0-1,0-1.5,0C317.8,79.1,317.8,78,317.8,76.8z M305.4,103.6c0.7,0,1.3,0,2,0c0,0.6,0,1.2,0,1.8c-0.7,0-1.3,0-2,0
			C305.4,104.8,305.4,104.2,305.4,103.6z M293.7,103.6c0.6,0,1.3,0,1.9,0c0,0.6,0,1.2,0,1.8c-0.3,0-0.7,0-1,0s-0.6,0-0.9,0
			C293.6,105.1,293.6,104.1,293.7,103.6z M281.8,103.6c0.7,0,1.3,0,2.1,0c0,0.6,0,1.2,0,1.8c-0.7,0-1.4,0-2.1,0
			C281.8,104.8,281.8,104.2,281.8,103.6z M269.4,103.6c0.2,0,0.5,0,0.7,0l0,0c0.7,0,1.3,0,1.9,0c0,0.6,0,1.2,0,1.8
			c-0.6,0-1.3,0-1.9,0l0,0c-0.2,0-0.5,0-0.7,0C269.4,104.8,269.4,104.2,269.4,103.6z M262,98.4c0.4,0,0.8,0,1.3,0c0,0.5,0,0.9,0,1.3
			c-0.1,0-0.2,0-0.3,0c-0.3,0-0.6,0-1,0C262,99.3,262,98.9,262,98.4z M260.8,104.5C260.8,104.5,260.7,104.5,260.8,104.5
			c-0.2,0.1-0.4,0.1-0.6,0.1c0-0.1,0-0.2,0-0.3c0-0.7,0-1.4,0-2.1c0-0.1,0-0.3,0.1-0.4c0-0.1,0.1-0.2,0.3-0.2c0.2,0,0.2,0.1,0.3,0.3
			c0,0.1,0,0.1,0,0.2C260.8,102.8,260.8,103.6,260.8,104.5z M259.8,98.4c0.4,0,0.8,0,1.3,0c0,0.4,0,0.8,0,1.3c-0.4,0-0.8,0-1.3,0
			C259.8,99.2,259.8,98.8,259.8,98.4z M258.9,98.4c0,0.4,0,0.8,0,1.3c-0.4,0-0.8,0-1.2,0c0-0.4,0-0.9-0.1-1.3
			C258,98.4,258.4,98.4,258.9,98.4z M249.5,103.6c0.7,0,1.3,0,2,0c0,0.6,0,1.2,0,1.8c-0.7,0-1.3,0-2,0
			C249.5,104.8,249.5,104.2,249.5,103.6z M237.8,103.6c0.7,0,1.3,0,2,0c0,0.6,0,1.2,0,1.8c-0.6,0-1.3,0-2,0
			C237.8,104.8,237.8,104.2,237.8,103.6z M225.9,103.6c0.7,0,1.4,0,2.1,0c0,0.6,0,1.2,0,1.8c-0.7,0-1.4,0-2.1,0
			C225.9,104.8,225.9,104.2,225.9,103.6z"/>
	</g>
	<g>
		<path class="st0" d="M557.2,120.1c-0.1-0.3-0.2-0.5-0.3-0.8c0-0.1-0.1-0.2-0.1-0.3c0-0.3,0-0.6,0-0.8c0-0.1,0-0.3,0-0.4
			c0-0.4,0-0.8,0-1.2c0-0.9,0-1.7,0.1-2.6c0-0.6,0.1-1.1,0.2-1.6c0-0.4,0-0.7,0.1-1.1c0-0.2,0-0.4,0.1-0.7c0.1,0.3,0.3,0.3,0.4,0.3
			c0,0,0.1,0,0.1-0.1c0.1-0.1,0.2-0.1,0.3-0.1s0.2,0.1,0.3,0.1c0,0,0,0.1-0.1,0.1c-0.1,0.2-0.1,0.6,0.1,0.7c0.1,0.1,0.2,0.1,0.3,0.1
			l0,0c0.1-0.2,0.2,0,0.3,0.2c0.1,0.1,0.1,0.3,0.3,0.2l0.1,0.1c0.1,0,0.2,0,0.3-0.2c0,0.2,0.1,0.3,0.1,0.4c0.1,0.3,0.4,0.4,0.5,0.1
			c0-0.1,0.1-0.1,0.1-0.1c0.1,0,0.1-0.1,0.2-0.2c0-0.1,0-0.2,0.1-0.3c0.1-0.1,0.1-0.5,0-0.6c0,0,0-0.1-0.1-0.1c0.1,0,0.1,0,0.2,0
			c0.2,0.1,0.4,0.1,0.6,0c0.1,0,0.2,0,0.3,0.1v0.1c0,0.3,0.2,0.6,0.4,0.5c0.1,0,0.2-0.2,0.2-0.3c0.1-0.1,0.1-0.1,0.1,0
			c0.1,0,0.2,0,0.3,0.1h0.1c0.1,0.3,0.3,0.3,0.5,0.3c0.1,0.4,0.3,0.5,0.5,0.5h0.1c0.1,0.2,0.2,0.2,0.3,0.3c0.1,0.1,0.2,0.1,0.3-0.1
			c0.1-0.1,0.1-0.4,0-0.5s-0.1-0.3-0.2-0.4l0,0c0-0.2,0-0.3,0-0.5c0.1,0,0.1-0.1,0.1-0.1c0.1-0.1,0.2-0.1,0.2-0.1
			c0.1-0.1,0.2-0.2,0.3-0.4c0.1-0.1,0.2-0.1,0.2,0c0.1,0.1,0.1,0.3,0.1,0.5c0,0.1,0,0.2,0.1,0.2s0.1,0.1,0.2,0.2
			c0,0,0.1,0.1,0.1,0.2c0,0.2,0.1,0.3,0.2,0.3c0.2,0.1,0.3-0.1,0.4-0.3c0.1-0.1,0.1-0.1,0.2-0.1c0.2-0.1,0.3,0,0.5,0
			c0.1,0,0.2-0.2,0.3-0.4c0-0.1,0-0.1,0.1-0.1c0.2-0.3,0.2-0.4,0-0.8l0.1-0.1c0.1,0,0.2,0,0.3,0c0.2,0,0.2-0.1,0.3-0.3
			c0-0.1,0-0.1,0.1-0.2c0.1-0.2,0.1-0.3,0-0.5c0.1-0.3,0.3-0.5,0.5-0.4c0-0.3,0-0.6,0-0.9c0-0.1-0.1-0.3-0.2-0.3
			c-0.1,0-0.2-0.1-0.3-0.3c0-0.1-0.1-0.1-0.1-0.1s0,0-0.1,0c-0.1-0.1-0.1-0.3-0.2-0.4c0.1,0,0.1,0,0.1,0c0.1,0,0.1-0.1,0.1-0.2
			c-0.1-0.3-0.1-0.6,0-0.9c0-0.1,0.1-0.2,0.1-0.3c0.1-0.2,0.1-0.7,0-0.9v-0.1c0.2-0.2,0.2-0.3,0.2-0.5c0-0.1,0-0.2-0.1-0.3
			c0-0.1-0.1-0.2-0.1-0.3c0-0.1-0.1-0.3-0.1-0.5l0.1-0.1c0.2,0,0.3-0.1,0.5-0.1c0.1,0,0.3-0.1,0.4-0.2c0.1-0.1,0.2-0.5,0.1-0.8
			c0-0.1,0-0.2,0-0.3c0.1-0.1,0.2-0.2,0.2-0.4c0.1-0.2,0-0.8-0.2-0.9c0-0.2,0-0.4,0.1-0.6c0.1-0.1,0-0.3,0-0.5
			c0-0.1-0.1-0.1-0.1-0.2c0.1-0.1,0.1-0.2,0.2-0.3c0.1-0.1,0.1-0.2,0.2-0.4c0.1-0.1,0.1-0.2,0.2-0.3c0.1-0.1,0.1-0.2,0.1-0.4
			c0-0.3,0-0.6,0-0.8c-0.1-0.1-0.2,0-0.2,0.1c0,0.2-0.1,0.1-0.2,0.1l-0.1-0.1c-0.1,0-0.2,0-0.3,0c0,0-0.1,0-0.1-0.1
			c-0.1-0.1-0.2-0.2-0.3-0.2s-0.2,0.1-0.2,0.2h-0.1c0-0.2,0.1-0.4,0.1-0.5c0-0.2-0.1-0.3-0.2-0.4c0.1-0.2,0.2-0.3,0.3-0.5
			c0.1-0.1,0.1-0.3,0.2-0.4c0-0.1,0-0.3,0-0.4s-0.1-0.2-0.2-0.2c0,0,0,0-0.1,0c0-0.2,0-0.3-0.1-0.5c0-0.1,0-0.1-0.1-0.2
			s-0.2-0.3-0.3-0.2c-0.1,0-0.2,0-0.3-0.1s-0.2-0.1-0.3-0.2c0-0.2-0.1-0.3,0-0.5c0-0.2,0-0.3-0.1-0.4c-0.1,0-0.1-0.2-0.2-0.1
			c-0.1,0.1-0.2,0.1-0.3,0.2c0,0,0,0,0-0.1c-0.1-0.3-0.2-0.2-0.4-0.3c0,0-0.1,0-0.1-0.1c-0.1-0.3-0.5-0.3-0.6,0c0,0.1,0,0.2,0,0.3
			c-0.1-0.1-0.1-0.2-0.1-0.3c0-0.1,0-0.2,0-0.3c0-0.2-0.2-0.2-0.3-0.1c-0.1,0.2-0.1,0.2-0.3,0.2c0-0.1,0-0.1,0-0.2
			c0.1-0.1,0.2-0.3,0.3-0.3c0.1-0.1,0.2-0.2,0.2-0.4c0-0.1,0.1-0.3,0.1-0.4c0.1-0.2,0.1-0.4,0-0.6c-0.1-0.1-0.1-0.2-0.2-0.3
			c0-0.1-0.1-0.1-0.2-0.1c-0.1,0-0.3,0-0.4,0.2h-0.1c-0.1-0.1-0.2-0.2-0.2-0.3c-0.1-0.1-0.1-0.3,0-0.4c0-0.1,0-0.3,0-0.4
			c0-0.2,0-0.3,0.1-0.4c0.1-0.2,0.1-0.4,0.1-0.6c0-0.1-0.1-0.1-0.1-0.2c-0.1-0.1-0.3,0-0.4,0.1c-0.1,0.1-0.2,0.2-0.3,0
			c-0.1-0.1-0.2-0.2-0.2-0.2c-0.1-0.1-0.3,0.1-0.3,0.4c0,0.2,0,0.2-0.2,0.3c0-0.3-0.3-0.7-0.4-0.6c0,0-0.1,0-0.1,0.1
			c-0.1,0.1-0.2,0.2-0.3,0.3c0,0,0-0.1,0.1-0.1c0.1-0.1,0.1-0.3,0-0.4c0-0.1,0-0.2,0-0.3c0.1-0.4,0-0.7-0.2-0.9
			c-0.1-0.1-0.1-0.1-0.2-0.1c-0.1,0-0.1,0-0.1,0c-0.1-0.3,0-0.5,0-0.8c0.1-0.3,0-0.5-0.2-0.5c0,0-0.1,0-0.1-0.1
			c-0.1-0.2-0.2-0.2-0.3,0c0,0-0.1,0.1-0.1,0s-0.1-0.2-0.2-0.2c0,0,0-0.1,0.1-0.1c0.2-0.2,0.2-0.5,0.2-0.8c0-0.1-0.1-0.2-0.1-0.2
			c-0.1,0-0.3,0-0.5,0c0,0-0.1,0-0.1-0.1c-0.1-0.2-0.2-0.3-0.4-0.3c0,0,0,0-0.1,0c0-0.2,0-0.3-0.1-0.4c0-0.2-0.4-0.4-0.5-0.2
			c-0.1,0.2-0.3,0.4-0.3,0.7c-0.1,0-0.2-0.1-0.2-0.1s0,0,0-0.1c-0.1-0.1-0.1-0.2-0.1-0.3c0-0.1,0-0.2,0-0.2c0.1-0.2,0.1-0.4,0.2-0.5
			c0,0,0,0,0-0.1c0-0.4,0.1-0.7,0.1-1c0-0.2-0.1-0.3-0.2-0.3h-0.1c-0.1-0.2-0.3-0.2-0.4-0.1c-0.1,0-0.2,0.2-0.3,0.3c0,0,0,0,0,0.1
			l0,0c0-0.1,0-0.2,0-0.3c0-0.2-0.1-0.3-0.1-0.3c-0.1-0.1-0.3-0.2-0.4-0.4c0-0.1-0.1-0.1-0.2-0.2l0,0v-0.1c0-0.2,0-0.4-0.1-0.5
			c0,0-0.1-0.1-0.1-0.2c0-0.2-0.1-0.3-0.2-0.3c-0.2,0-0.2,0-0.3,0.3c0,0.1-0.1,0.2-0.1,0.3c0,0,0,0.1-0.1,0.1s-0.2-0.1-0.3-0.1
			c-0.1-0.1-0.3-0.1-0.4,0l-0.1,0.1c-0.1,0-0.2,0.1-0.2,0.3l0,0c-0.1,0-0.2-0.1-0.3-0.1s-0.2-0.2-0.2-0.3c0-0.1,0-0.2-0.1-0.2
			c-0.1-0.1-0.1-0.2-0.2-0.3c-0.1-0.2-0.3-0.2-0.4,0c-0.1,0.1-0.2,0.2-0.2,0.4c0,0-0.1,0-0.1,0.1c0,0,0,0,0-0.1
			c-0.1-0.1-0.1-0.2-0.2-0.3c0-0.1-0.1-0.2-0.1-0.3c0-0.1-0.1-0.2-0.1-0.3c0-0.1-0.1-0.2-0.1-0.2c-0.1,0-0.2,0-0.4,0
			c-0.1,0-0.1,0-0.1,0.1h-0.1c-0.2-0.2-0.3-0.1-0.5-0.1l0,0c-0.1,0.2-0.2,0.4-0.3,0.6c0,0.1,0,0.2,0,0.3c-0.1,0.1-0.3-0.1-0.4,0.2
			v-0.1c0-0.5-0.2-0.6-0.4-0.4c-0.1,0.1-0.1,0-0.2-0.2c0-0.2,0-0.3-0.1-0.5c0-0.1-0.1-0.1-0.1-0.1c-0.1,0-0.3,0-0.4,0l0,0
			c-0.2,0.2-0.4,0.4-0.5,0.7c-0.1,0.2-0.2,0.5,0,0.8c0.1,0.1,0.1,0.1,0,0.3c-0.1,0.1,0,0.3,0.1,0.4c0,0.2,0.1,0.3,0.2,0.5
			c-0.1,0-0.2,0-0.3,0.2h-0.1c-0.1,0-0.2,0.1-0.3,0.3c0,0,0,0.1-0.1,0.1s-0.2,0-0.2,0.1c0,0,0,0-0.1,0c-0.1-0.1-0.1-0.1-0.2-0.2
			c0-0.1,0-0.2-0.1-0.3c-0.1-0.3-0.2-0.4-0.4-0.3c-0.1,0-0.2,0.2-0.2,0.3c0,0.2,0,0.3,0,0.5s0.1,0.3,0.1,0.5c0,0.1,0,0.2,0,0.3
			c0,0.1,0.1,0.1,0.1,0.2c0,0,0,0.1,0,0.2c0,0,0,0-0.1,0c-0.2-0.2-0.3,0-0.4,0.3c0,0,0,0,0,0.1c0-0.1-0.1-0.1-0.1-0.2
			c-0.1-0.2-0.2-0.3-0.4-0.2h-0.1c-0.1,0-0.2,0-0.3,0.2l0,0c-0.1,0-0.3,0-0.4,0c-0.1,0-0.2-0.1-0.2,0s-0.1,0.1-0.1,0.2
			c-0.1,0.2-0.1,0.2-0.2,0.1c-0.2-0.1-0.2,0.1-0.3,0.3c0,0.1,0,0.3,0,0.4c0,0.2,0.1,0.3,0.1,0.4c-0.1,0.1-0.2,0.2-0.3,0.3
			c0,0-0.1,0.1-0.1-0.1c-0.1-0.2-0.2-0.3-0.4-0.1c-0.1,0.1-0.1,0.2-0.2,0.1c-0.1,0-0.2,0-0.3,0s-0.1-0.1-0.1-0.2
			c-0.1-0.3-0.2-0.2-0.3-0.3c-0.1,0-0.2,0.1-0.2,0.2c-0.1,0.3,0,0.5,0.1,0.6c0,0,0,0.1,0.1,0.1c0.1,0.1,0.2,0.2,0.2,0.5
			s0,0.5,0.1,0.8c0,0.1,0.1,0.2,0.2,0.2c0.1,0.1,0.2,0.2,0.3,0.3c0,0,0,0,0,0.1c-0.1,0-0.1,0-0.2,0c-0.1,0-0.2,0.1-0.2,0.2
			c0,0.3-0.1,0.6,0.1,0.8c0.1,0.1,0.3,0.2,0.4,0.2c0.1,0,0.3,0,0.4,0.1c0,0,0.1,0.2,0.1,0.3c0,0.2,0,0.4,0,0.5s0,0.2,0,0.3
			c0,0.1-0.1,0.1-0.2,0.2c-0.1,0.1-0.2,0.2-0.3,0.4c-0.1,0.1-0.1,0.2-0.2,0.4c0,0.1,0,0.2,0,0.3h-0.1c-0.1,0-0.2-0.1-0.3,0.1l0,0
			c-0.1,0.1-0.2,0.1-0.2,0.3c0,0.2,0.1,0.3,0.1,0.4s0,0.2,0,0.3c0,0.2,0.1,0.3,0.2,0.3c0.1,0,0.2,0,0.2,0.3c-0.1,0-0.1-0.1-0.2-0.1
			c-0.1,0-0.1,0-0.2,0c-0.2,0-0.3,0.1-0.5,0.2c-0.1,0-0.2,0-0.3,0.1c0,0,0-0.1-0.1-0.1s-0.1,0-0.2,0c0,0-0.1,0-0.1,0.1
			c-0.1,0.1-0.2,0.1-0.3,0.1h-0.1c-0.1,0.2-0.2,0.2-0.4,0.3c-0.1,0-0.1,0.1-0.2,0.1c-0.1,0-0.1,0.1-0.2,0.1c-0.2,0-0.3,0.1-0.4,0.3
			c-0.1,0.1-0.1,0.3-0.1,0.5c-0.1,0-0.2,0-0.3,0.2c0,0.1-0.1,0.3,0,0.4c0,0.2,0.1,0.3,0.2,0.5c0.1,0.1,0.1,0.3,0.2,0.4
			c-0.3,0.2-0.3,0.6-0.1,0.9c-0.1,0.2-0.1,0.2-0.2,0c-0.1-0.2-0.2-0.2-0.3-0.1c-0.1,0-0.1,0.1-0.2,0.2l-0.1,0.1
			c-0.1,0-0.2,0-0.3,0.1c-0.2,0.1-0.2,0.1-0.3-0.1s-0.2,0.1-0.3,0.3c0,0.4,0.1,0.7,0.2,0.9c0.1,0.1,0.1,0.3,0.2,0.4
			c0.1,0.2,0.2,0.4,0.3,0.5l0,0c-0.1,0.1-0.1,0.2-0.2,0.3c0,0.1,0,0.3,0,0.4c0.1,0.1,0,0.3,0.1,0.5c0,0,0,0.1-0.1,0.1
			s-0.2,0.2-0.2,0.3c0,0.1,0,0.3,0,0.4s0,0.2,0.1,0.2c0.1,0.1,0.2,0.2,0.2,0.3c0,0.1,0.1,0.2,0,0.3c-0.1,0.2-0.1,0.6,0,0.8l0.1,0.1
			c0.1,0.1,0.3,0.1,0.4,0.2c0.1,0,0.3,0.1,0.4,0.1l0.1,0.1c0,0,0,0.1-0.1,0.1c-0.1,0.1-0.1,0.3-0.1,0.5c-0.2,0.1-0.3,0.3-0.2,0.6
			c0,0.1,0.1,0.2,0.1,0.3c0.1,0.1,0.1,0.1,0,0.2s-0.1,0.2-0.1,0.3c0,0.1,0,0.3,0,0.4s0,0.2,0,0.4c-0.1,0.1-0.3,0.2-0.4,0
			c-0.1-0.1-0.4,0-0.5,0.1l-0.1,0.1c0,0-0.1,0-0.1,0.1c-0.1,0.2-0.2,0.1-0.2,0c-0.2-0.1-0.3-0.1-0.5-0.1l-0.1,0.2
			c0,0.4,0,0.4,0.2,0.6c0.1,0.1,0.3,0.1,0.4,0.2c0.2,0.1,0.3,0.2,0.5,0.4c0,0,0,0.1,0.1,0.1c0.2,0,0.4,0,0.6,0c0.1,0,0.2,0,0.3-0.1
			s0.2,0,0.3,0c-0.1,0.1-0.1,0.3-0.2,0.4c-0.1,0.1-0.1,0.1-0.2,0.2c-0.1,0.1-0.1,0.2-0.2,0.3v0.1c-0.1-0.1-0.1-0.1-0.2-0.2h-0.1
			c-0.1,0-0.2,0-0.2,0c-0.2,0-0.2,0.1-0.3,0.3c0,0,0,0.1,0,0.2h-0.1c-0.1,0-0.1,0.1-0.2,0.1c-0.1,0-0.1,0-0.2,0.1
			c-0.1,0.1-0.1,0.2-0.1,0.3c0,0.1,0.1,0.2,0.1,0.3c0.1,0.1,0.1,0.1,0.2,0.1c0.1,0,0.1,0,0.2,0c0,0.3,0.1,0.4,0.3,0.4
			s0.4-0.1,0.6-0.1c0.1,0,0.1,0.1,0.2,0.1c0,0,0,0.1,0,0.2c-0.1,0.2-0.1,0.3,0,0.5v0.1c0,0.2,0.1,0.3,0.1,0.4c0.1,0.2,0.2,0.2,0.4,0
			c0.1-0.1,0.2-0.1,0.3-0.1s0.1,0.1,0,0.2s-0.1,0.2-0.1,0.3c0,0.1,0,0.2,0.1,0.3c0.1,0.1,0.1,0.2,0.2,0.4c0,0.2,0.1,0.3,0.2,0.3
			c0.1,0,0.2,0,0.3-0.1h0.1c0.1,0,0.2,0.1,0.3,0.1c0.1,0.3,0.2,0.4,0.4,0.4c0.1,0,0.2,0,0.3,0.1c0.1,0,0.1,0.1,0.1,0.2
			c0,0.3,0,0.3,0.2,0.4c0.1,0.1,0.3,0.1,0.4,0l0.1-0.1c0.1,0,0.2,0,0.4-0.1c0,0.4,0.2,0.5,0.4,0.3l0.1-0.1h0.1
			c0.1-0.3,0.3-0.2,0.5-0.4c0.1-0.1,0.2-0.2,0.2-0.4l0.1-0.1c0.2,0,0.3,0,0.5-0.2c0.1-0.1,0.1-0.2,0.2-0.1c0.1,0,0.2,0.1,0.3-0.1
			c0-0.1,0.1-0.1,0.1,0c0.1,0.1,0.2,0.3,0.3,0.3c0.2,0.1,0.4-0.2,0.4-0.6c0.1-0.1,0.1-0.1,0.2-0.2c0.1,0,0.2-0.1,0.2,0.1
			c0,0.1,0.1,0,0.2,0c0.1,0,0.2,0,0.3-0.1c0,0,0.1,0,0.2,0c0,0.1,0,0.1,0,0.1c-0.2,0.3-0.1,0.7,0.1,0.8c0,0.4,0,0.5,0.3,0.5
			c0.1,0.2,0.1,0.3,0.3,0.3c0.1,0,0.2-0.2,0.3-0.4c0-0.1,0.1-0.2,0.1-0.3c0.1,0.2,0.2,0.2,0.4,0.1c0.1-0.1,0.2,0,0.3-0.2
			c0.1-0.1,0.1-0.2,0.2-0.3h0.1c0.2,0.1,0.5,0,0.6-0.3c0.1-0.1,0-0.3-0.1-0.5c0,0,0-0.1-0.1-0.1l0.1-0.1c0.1,0,0.2-0.1,0.3-0.1
			l0.1-0.1c0.1-0.3,0.2-0.4,0.3-0.5c0,0,0.1,0.1,0.1,0.2s-0.1,0.1-0.1,0.2c-0.1,0.2-0.2,0.3-0.2,0.5c0,0.3,0,0.5-0.1,0.8
			c0,0.1,0,0.2,0,0.3c-0.1,0.2,0,0.5,0.2,0.5c0.1,0,0.3,0,0.3-0.2c0.1-0.3,0.1-0.5,0.2-0.8c0-0.1,0-0.1,0.1-0.1s0.2-0.1,0.2-0.1
			s0.1,0,0.1,0.1c0,0,0,0.1,0,0.2c-0.1,0.1-0.1,0.3-0.1,0.4s0.1,0.2,0.2,0.2c0.1,0,0.2,0.1,0.3,0.3c0.1,0.4,0.2,0.7,0.3,1.1
			c0.1,0.3,0.2,0.6,0.2,1c0.1,0.3,0.1,0.7,0.1,1s0,0.5,0,0.8s0.1,0.6,0.1,0.9c0,0.2,0,0.5-0.1,0.7c0,0.3,0,0.6,0,0.9s0,0.6-0.1,0.9
			l-0.1,0.1c-0.2,0-0.3,0.2-0.4,0.3c-0.1,0.1-0.2,0.3-0.3,0.4c0,0-0.1,0.1-0.1,0.2c-0.1,0.2-0.1,0.3-0.2,0.5c0,0.1,0,0.2,0.1,0.2
			h0.1c1.2,0,2.5,0,3.7,0C557.1,120.1,557.1,120.1,557.2,120.1z"/>
	</g>
	<path class="st4" d="M570.9,112.2c0,0.1,0.1,0.2,0.1,0.2c0,0.1,0.1,0.1,0.1,0.2l-0.1,0.1c-0.1,0.1-0.1,0.2,0,0.3
		c0.1,0.1,0.1,0.3,0.1,0.4c-0.1,0.1-0.2,0.5-0.1,0.6c0.1,0.1,0.1,0.2,0.2,0.3c0.1,0.1,0.1,0.1,0,0.2c-0.1,0.2,0,0.4,0.1,0.5
		s0.2,0.1,0.3,0.1s0.2,0.1,0.4,0.1l0.1,0.1c0,0.1-0.1,0.2-0.1,0.3c0,0.1,0,0.1-0.1,0.2c0,0-0.1,0.1-0.1,0.2c0,0.2,0,0.2,0.2,0.3v0.1
		c-0.1,0.2-0.1,0.5,0,0.6c0,0.1,0.1,0.1,0.1,0.2c0,0.2,0.1,0.4,0,0.6c0,0.1,0,0.1,0.1,0.1h0.1c-0.1,0.1-0.1,0.2-0.2,0.3l0,0
		c0,0-0.1,0-0.1,0.1c-0.1,0.1-0.1,0.2-0.2,0.2c-0.1,0-0.1,0.1-0.1,0.2c0,0.2,0,0.4,0,0.6c0.2-0.1,0.3,0,0.4,0.3
		c-0.1,0.1-0.1,0.2,0,0.3h11.3c0-0.1-0.1-0.1-0.1-0.2c0,0,0-0.1-0.1-0.1c0-0.1,0.1-0.1,0.1-0.1c0.1,0.1,0.2,0.2,0.2,0.3
		c0,0,0,0.1,0.1,0.1h0.1h7.3c0-0.1,0-0.1-0.1-0.2c0-0.1,0-0.1,0-0.1c0.1,0,0.2,0,0.2,0c0.1,0.1,0.2,0.1,0.3,0s0.1-0.2,0.1-0.3
		c0,0,0,0,0-0.1c0.1-0.1,0-0.2,0-0.4v-0.1l0.1-0.1c0.1,0,0.3,0,0.4,0c0.1,0,0.2-0.1,0.2-0.3h0.1c0.1,0,0.1,0,0.2-0.1
		c0,0,0.1-0.1,0.1-0.2s0-0.2-0.1-0.2c0,0-0.1,0-0.1-0.1c0,0-0.1,0-0.1-0.1h-0.1c0-0.1,0-0.1,0-0.2c-0.1-0.1-0.1-0.2-0.2-0.2
		c-0.1,0-0.1,0-0.2,0c0,0,0,0-0.1,0s-0.1,0.1-0.2,0.1c0,0,0,0,0-0.1c-0.1-0.1-0.1-0.2-0.2-0.2c-0.1,0-0.1-0.1-0.1-0.1
		c0-0.1-0.1-0.2-0.2-0.3c0.1,0,0.2-0.1,0.2,0c0.1,0.1,0.1,0.1,0.2,0.1c0.1,0,0.3,0,0.4,0l0,0c0.1-0.2,0.2-0.2,0.3-0.3
		c0.1-0.1,0.2,0,0.3-0.1s0.2-0.2,0.1-0.4c0-0.1-0.1-0.2-0.1-0.2c-0.1,0-0.2,0-0.3,0.1c-0.1,0-0.1,0.1-0.2,0l0,0c0,0-0.1,0-0.1-0.1
		c0,0-0.3-0.1-0.3,0c-0.1,0.1-0.2,0.1-0.3,0c0-0.1,0-0.2,0-0.2c0-0.1,0-0.2,0-0.3c0-0.1,0-0.1,0-0.2v-0.1c0,0,0.1-0.1,0.1-0.2
		c0-0.2,0-0.3-0.2-0.4c0-0.1,0-0.3-0.1-0.3v-0.1c0,0,0-0.1,0.1-0.1s0.2-0.1,0.3-0.1s0.2-0.1,0.3-0.1c0,0,0.1,0,0.1-0.1
		c0.1-0.1,0.1-0.4,0-0.5c0-0.1,0-0.1,0-0.2c0.1-0.1,0.1-0.1,0.2-0.2v-0.1c0-0.1,0-0.2,0-0.3c0-0.1-0.1-0.2-0.1-0.2h-0.1
		c0-0.1,0-0.2,0-0.3c0-0.1,0.1-0.2,0-0.3c0-0.1-0.1-0.2-0.1-0.2l0,0c0.1-0.1,0.1-0.2,0.2-0.4c0.1-0.1,0.1-0.2,0.2-0.3
		c0.1-0.2,0.2-0.4,0.2-0.6c0-0.1-0.1-0.3-0.2-0.2c-0.1,0.1-0.1,0.2-0.2,0.1c-0.1-0.1-0.2,0-0.2,0h-0.1c-0.1,0-0.1-0.1-0.2-0.1
		c-0.1,0-0.1,0-0.2,0.1c-0.1,0.1-0.1,0.1-0.1,0c0.1-0.2,0.1-0.4-0.1-0.6c0.1-0.1,0.1-0.2,0.2-0.3c0.1-0.1,0.1-0.2,0.1-0.3
		c0-0.1,0-0.2,0-0.3c0-0.1-0.1-0.1-0.2-0.1c0-0.1,0-0.2-0.1-0.3c-0.1-0.2-0.2-0.2-0.3-0.2s-0.1,0-0.2-0.1l-0.1-0.1
		c-0.1,0-0.2,0-0.3-0.2c0,0,0,0-0.1,0s-0.1,0-0.2-0.1c0,0,0,0-0.1,0h-0.1c0,0,0,0.1-0.1,0.1s-0.1,0-0.2,0c-0.1,0-0.2-0.1-0.3-0.1
		h-0.1c0,0-0.1,0-0.1,0.1c0-0.2,0.1-0.2,0.1-0.2c0.1,0,0.1-0.1,0.1-0.2s0-0.1,0-0.2s0.1-0.2,0.1-0.3c0-0.2-0.1-0.2-0.1-0.2l0,0
		c-0.1-0.1-0.1-0.1-0.2,0h-0.1c0-0.1,0-0.1,0-0.2s-0.1-0.2-0.1-0.3c-0.1-0.1-0.1-0.2-0.2-0.3c0,0-0.1,0-0.1-0.1s0-0.2,0-0.2
		c0-0.1,0-0.2,0-0.4c0-0.1,0-0.2,0.1-0.2s0.2-0.1,0.3-0.1s0.2,0,0.3-0.1s0.1-0.4,0.1-0.5s-0.1-0.2-0.1-0.2h-0.1l0,0
		c0.1-0.1,0.1-0.1,0.2-0.2c0-0.1,0.1-0.1,0.1-0.2c0-0.2,0.1-0.4,0.1-0.5c0-0.2,0-0.2,0.1-0.3c0,0,0,0,0-0.1c0.1-0.1,0.1-0.2,0-0.4
		c0-0.1-0.1-0.2-0.1-0.1c-0.1,0-0.2,0-0.2,0.2c0,0.1-0.1,0.1-0.1,0.1c-0.1,0-0.1,0-0.2,0c-0.1,0-0.1,0-0.2-0.1
		c-0.1-0.1-0.2-0.1-0.3,0c0,0.1-0.1,0.1-0.1,0c-0.1-0.1-0.1-0.1-0.2-0.2c0-0.1,0.1-0.2,0.1-0.3c0-0.1,0-0.2,0-0.3
		c0-0.1-0.1-0.2-0.2-0.2c-0.1,0-0.1,0-0.2-0.1c0-0.1-0.1-0.1-0.1-0.1c-0.1-0.1-0.1-0.1-0.2,0c-0.1,0-0.2,0-0.3,0l0,0
		c-0.1-0.1-0.1-0.2-0.2-0.1c0,0,0,0-0.1,0c-0.1-0.1-0.2,0-0.3,0.1c0,0,0,0.1-0.1,0.1c0,0,0,0,0-0.1c-0.1-0.2-0.2-0.3-0.3-0.2l0,0
		v-0.1v-0.1c0-0.1,0-0.1,0-0.2s0-0.2,0-0.3c0-0.1,0-0.2,0-0.3c0-0.1-0.1-0.2-0.1-0.2c-0.1-0.1-0.2,0-0.3,0.2c0,0.1,0,0.1,0,0.2
		c-0.1,0-0.1,0.1-0.2,0.1l0,0c-0.1,0-0.1,0-0.2,0l0,0c0-0.1-0.1-0.2-0.2-0.2H585c-0.1-0.1-0.1-0.1-0.2-0.1c0-0.1,0.1-0.2,0.1-0.3
		c0-0.1,0.1-0.2,0.1-0.3c0-0.1,0-0.1,0-0.2c0.1-0.2,0.1-0.4,0-0.5c-0.1-0.2-0.3-0.3-0.4-0.4l0,0c-0.1,0-0.2,0-0.3,0
		c0,0-0.1,0-0.1,0.1s0,0.2-0.1,0.3c0,0.1-0.1,0.2-0.1,0.1c-0.2-0.2-0.3-0.1-0.3,0.2l0,0c-0.1-0.2-0.2-0.1-0.3-0.2c0-0.1,0-0.2,0-0.2
		c-0.1-0.1-0.1-0.3-0.2-0.4l0,0c-0.1,0-0.3-0.1-0.4,0h-0.1c0-0.1-0.1-0.1-0.1-0.1c-0.1,0-0.2,0-0.3,0s-0.1,0.1-0.1,0.1
		c0,0.1,0,0.2,0,0.2c0,0.1,0,0.1-0.1,0.2s-0.1,0.1-0.2,0.2l0,0c0,0-0.1,0-0.1-0.1c0-0.2-0.1-0.2-0.2-0.3c-0.1-0.1-0.2-0.1-0.3,0
		c0,0.1-0.1,0.1-0.1,0.2c0,0,0,0.1,0,0.2s-0.1,0.2-0.1,0.2c-0.1,0-0.1,0-0.2,0.1l0,0c0-0.1-0.1-0.2-0.2-0.2c0,0,0,0-0.1,0
		c-0.1-0.1-0.2-0.1-0.3,0s-0.1,0.1-0.2,0.1l0,0c0-0.1,0-0.1-0.1-0.2c-0.1-0.2-0.1-0.2-0.2-0.2c-0.1,0-0.1,0.1-0.1,0.2s0,0.1,0,0.2
		c-0.1,0.1-0.1,0.2-0.1,0.3c0,0,0,0,0,0.1l0,0l-0.1,0.1c-0.1,0.1-0.2,0.2-0.3,0.3c-0.1,0-0.1,0.1-0.1,0.2s0,0.1,0,0.2l0,0l0,0
		c-0.1-0.1-0.1-0.2-0.2-0.2c-0.1,0-0.2,0-0.3,0.1c0,0,0,0-0.1,0s-0.1,0.1-0.1,0.2c0,0.2,0.1,0.4,0.1,0.7l0,0
		c0.1,0.1,0.1,0.2,0.2,0.4c0,0,0,0.1,0,0.2s-0.1,0.2-0.1,0.2l0,0c-0.1,0-0.1,0.1-0.2,0.1c0-0.2-0.1-0.4-0.2-0.5
		c-0.1-0.1-0.3,0-0.3,0.1s0,0.2-0.1,0.3l0,0c-0.1,0-0.2,0-0.3,0.2h-0.1c-0.1,0-0.2,0-0.3,0c0,0-0.1,0.1-0.1,0.2c0,0.2,0,0.4,0.1,0.5
		c0,0,0,0,0,0.1c-0.1,0-0.2,0.1-0.2,0.1c0,0.1-0.1,0.1-0.1,0c-0.1-0.1-0.2-0.1-0.2,0c0,0,0,0-0.1,0s-0.2,0.1-0.2,0.3
		c0,0.2,0.1,0.3,0,0.5h-0.1c-0.1,0-0.1,0-0.2,0.1c-0.1,0.2-0.2,0.4-0.1,0.6c0,0.1,0,0.2,0,0.2c0,0.1,0,0.2,0,0.3v0.1
		c-0.1-0.1-0.1-0.1-0.2-0.2l-0.1-0.1c-0.1,0-0.3,0.2-0.3,0.4c-0.1-0.1-0.1-0.1-0.1-0.2c0-0.2-0.1-0.3-0.2-0.3
		c-0.1,0-0.1,0.1-0.2,0.2c-0.1,0.1-0.2,0.1-0.2,0c-0.1-0.1-0.2-0.1-0.3-0.1l-0.1,0.1c0,0.1,0,0.3,0.1,0.4s0.1,0.2,0.1,0.3
		c0,0.1,0,0.2,0,0.3c0,0.1,0,0.2,0,0.3c-0.1,0.1-0.1,0.1-0.2,0.2c0,0,0,0-0.1,0c-0.1-0.1-0.2-0.1-0.3-0.1c0,0-0.1,0-0.1,0.1
		s-0.1,0.2-0.1,0.2c-0.1,0.1-0.1,0.3,0,0.4c0,0.1,0.1,0.2,0.1,0.3c0,0.1,0.1,0.2,0.2,0.3c0.1,0.1,0.1,0.1,0.2,0.2v0.1
		c-0.1,0-0.1,0-0.2-0.1c-0.1-0.1-0.2-0.1-0.2,0.1c0,0.1,0,0.1,0,0.2s0,0.2-0.1,0.2c0-0.1,0-0.2,0-0.2c-0.1-0.2-0.3-0.2-0.4,0
		c0,0,0,0-0.1,0c-0.1,0.1-0.2,0.1-0.3,0.2c0,0,0,0,0,0.1c-0.1-0.1-0.1-0.1-0.2-0.1c-0.1,0-0.1,0.1-0.2,0.1c-0.1,0.1-0.1,0.2-0.1,0.3
		c0,0.1,0,0.3,0,0.4c-0.1,0-0.2,0.1-0.2,0.1c-0.1,0.1-0.1,0.1-0.2,0.1c-0.1,0-0.2,0.1-0.2,0.2c0,0,0,0.1-0.1,0.1c0,0.1,0,0.2,0,0.3
		c0,0,0,0-0.1,0s-0.1,0-0.1,0.1s0,0.2,0,0.3c0,0.1,0.1,0.2,0.1,0.3c0.1,0.1,0.1,0.2,0.2,0.3c-0.1,0.1-0.2,0.2-0.1,0.3
		c0,0.1,0.1,0.2,0.1,0.4h-0.1c0-0.1-0.1-0.2-0.2-0.2c-0.1,0-0.1,0-0.2,0.1c0,0,0,0-0.1,0s-0.2,0-0.2,0h-0.1c0,0-0.1,0.1-0.1,0
		s-0.1-0.1-0.1-0.1c0,0.2,0,0.4,0,0.6c0,0.1,0,0.2,0.1,0.3C570.8,112.1,570.8,112.1,570.9,112.2z"/>
</g>
</svg>
